<svg width="24" height="25" viewBox="0 0 24 25" xmlns="http://www.w3.org/2000/svg">
<path fill-rule="evenodd" clip-rule="evenodd" d="M12.75 5C12.75 4.58579 12.4142 4.25 12 4.25C11.5858 4.25 11.25 4.58579 11.25 5V11.75H4.5C4.08579 11.75 3.75 12.0858 3.75 12.5C3.75 12.9142 4.08579 13.25 4.5 13.25H11.25V20C11.25 20.4142 11.5858 20.75 12 20.75C12.4142 20.75 12.75 20.4142 12.75 20V13.25H19.5C19.9142 13.25 20.25 12.9142 20.25 12.5C20.25 12.0858 19.9142 11.75 19.5 11.75H12.75V5Z" stroke="none"/>
</svg>
