<svg width="24" height="25" viewBox="0 0 24 25" xmlns="http://www.w3.org/2000/svg">
<g clip-path="url(#clip0_2124_18260)">
<path d="M6 19.7639V15.3229C6 15.1342 5.86695 14.9704 5.68275 14.9295C1.50638 14.0014 1.395 8.02333 5.57137 7.09525C5.85627 7.03194 6.14724 7 6.43909 7H11.9056C11.9667 7 12.026 6.97921 12.0737 6.94105L16.1877 3.64988C16.515 3.38797 17 3.62106 17 4.04031V17.9597C17 18.3789 16.515 18.612 16.1877 18.3501L12.137 15.1096C12.0483 15.0386 11.9381 15 11.8246 15H10.4491C10.2011 15 10 15.2011 10 15.4491V19.7639C10 20.5215 9.57199 21.214 8.89443 21.5528C8.33137 21.8343 7.66863 21.8343 7.10557 21.5528C6.42801 21.214 6 20.5215 6 19.7639Z" stroke-width="1.5" stroke-linecap="round" fill="none" />
<path fill-rule="evenodd" clip-rule="evenodd" d="M17 14.92C17.1616 14.9725 17.3288 15 17.5 15C18.8807 15 20 13.2091 20 11C20 8.79086 18.8807 7 17.5 7C17.3288 7 17.1616 7.02754 17 7.08001V8.97337C17.0014 8.9711 17.0028 8.96883 17.0042 8.96657C17.143 8.74456 17.2752 8.61911 17.3676 8.55661C17.4513 8.49995 17.4919 8.49999 17.4997 8.5L17.5 8.5L17.5003 8.5C17.5081 8.49999 17.5487 8.49995 17.6324 8.55661C17.7248 8.61911 17.857 8.74456 17.9958 8.96657C18.277 9.41657 18.5 10.1316 18.5 11C18.5 11.8684 18.277 12.5834 17.9958 13.0334C17.857 13.2554 17.7248 13.3809 17.6324 13.4434C17.5487 13.5001 17.5081 13.5 17.5003 13.5H17.5H17.4997C17.4919 13.5 17.4513 13.5001 17.3676 13.4434C17.2752 13.3809 17.143 13.2554 17.0042 13.0334C17.0028 13.0312 17.0014 13.0289 17 13.0266V14.92Z" stroke="none"/>
</g>
<defs>
<clipPath id="clip0_2124_18260">
<rect width="24" height="24" fill="white" transform="translate(0 0.5)"/>
</clipPath>
</defs>
</svg>
