<svg width="24" height="25" viewBox="0 0 24 25" xmlns="http://www.w3.org/2000/svg">
<g clip-path="url(#clip0_2924_17510)">
<path fill-rule="evenodd" clip-rule="evenodd" d="M7.75 3C7.33579 3 7 3.33579 7 3.75V4C4.23858 4 2 6.23858 2 9V17C2 19.7614 4.23858 22 7 22H17C19.7614 22 22 19.7614 22 17V9C22 6.23858 19.7614 4 17 4V3.75C17 3.33579 16.6642 3 16.25 3C15.8358 3 15.5 3.33579 15.5 3.75V4H8.5V3.75C8.5 3.33579 8.16421 3 7.75 3ZM15.5 6.25V5.5H8.5V6.25C8.5 6.66421 8.16421 7 7.75 7C7.33579 7 7 6.66421 7 6.25V5.5C5.067 5.5 3.5 7.067 3.5 9V11H20.5V9C20.5 7.067 18.933 5.5 17 5.5V6.25C17 6.66421 16.6642 7 16.25 7C15.8358 7 15.5 6.66421 15.5 6.25ZM20.5 12.5H3.5V17C3.5 18.933 5.067 20.5 7 20.5H17C18.933 20.5 20.5 18.933 20.5 17V12.5Z" stroke="none"/>
</g>
<defs>
<clipPath id="clip0_2924_17510">
<rect width="24" height="24" fill="white" transform="translate(0 0.5)"/>
</clipPath>
</defs>
</svg>
