<svg width="24" height="25" viewBox="0 0 24 25" xmlns="http://www.w3.org/2000/svg">
<path fill-rule="evenodd" clip-rule="evenodd" d="M1.25 4.25C1.25 3.83579 1.58579 3.5 2 3.5H5.80829C6.39547 3.5 6.9035 3.90869 7.02928 4.48224L7.52238 6.73077H21.3658C22.1741 6.73077 22.7699 7.48652 22.5812 8.27257L21.3601 13.3588C21.1329 14.3052 20.6314 15.1278 19.9521 15.7506C21.0105 16.214 21.75 17.2706 21.75 18.5C21.75 20.1569 20.4069 21.5 18.75 21.5C17.0931 21.5 15.75 20.1569 15.75 18.5C15.75 17.9536 15.8961 17.4413 16.1513 17H12.5987C12.8539 17.4413 13 17.9536 13 18.5C13 20.1569 11.6569 21.5 10 21.5C8.34315 21.5 7 20.1569 7 18.5C7 17.2571 7.7558 16.1908 8.83287 15.7355C8.13963 15.094 7.63427 14.2435 7.42022 13.2675L6.18644 7.64143L5.60718 5H2C1.58579 5 1.25 4.66421 1.25 4.25ZM7.85133 8.23077L8.88541 12.9462C9.21243 14.4374 10.5333 15.5 12.06 15.5H16.7414C18.2441 15.5 19.5508 14.4698 19.9016 13.0087L21.0486 8.23077H7.85133ZM10 20C10.8284 20 11.5 19.3284 11.5 18.5C11.5 17.6716 10.8284 17 10 17C9.17157 17 8.5 17.6716 8.5 18.5C8.5 19.3284 9.17157 20 10 20ZM20.25 18.5C20.25 19.3284 19.5784 20 18.75 20C17.9216 20 17.25 19.3284 17.25 18.5C17.25 17.6716 17.9216 17 18.75 17C19.5784 17 20.25 17.6716 20.25 18.5Z" stroke="none"/>
</svg>
