<svg width="24" height="25" viewBox="0 0 24 25" xmlns="http://www.w3.org/2000/svg">
<g clip-path="url(#clip0_3698_17770)">
<path fill-rule="evenodd" clip-rule="evenodd" d="M7.25 10.5C7.25 8.98122 8.48122 7.75 10 7.75H14C15.5188 7.75 16.75 8.98122 16.75 10.5V14.5C16.75 16.0188 15.5188 17.25 14 17.25H10C8.48122 17.25 7.25 16.0188 7.25 14.5V10.5ZM10 9.25C9.30964 9.25 8.75 9.80964 8.75 10.5V14.5C8.75 15.1904 9.30964 15.75 10 15.75H14C14.6904 15.75 15.25 15.1904 15.25 14.5V10.5C15.25 9.80964 14.6904 9.25 14 9.25H10Z" stroke="none"/>
<path fill-rule="evenodd" clip-rule="evenodd" d="M13.5388 1.95642C13.839 1.67103 14.3138 1.68305 14.5991 1.98326L17.0436 4.55469C17.2502 4.77205 17.3075 5.0916 17.1892 5.36719C17.071 5.64278 16.7999 5.82143 16.5 5.82143H12.45C11.0613 5.82143 10.0641 5.82199 9.28094 5.88493C8.5063 5.94718 8.00618 6.06683 7.60034 6.26962C6.77706 6.68099 6.10956 7.34849 5.69819 8.17177C5.4954 8.57761 5.37575 9.07773 5.3135 9.85237C5.25056 10.6355 5.25 11.6327 5.25 13.0214V13.5C5.25 13.9142 4.91421 14.25 4.5 14.25C4.08579 14.25 3.75 13.9142 3.75 13.5V13.0214L3.75 12.9884C3.75 11.6398 3.74999 10.5825 3.81832 9.73221C3.88789 8.86648 4.03188 8.15071 4.35637 7.5013C4.91293 6.38745 5.81602 5.48436 6.92987 4.9278C7.57928 4.60331 8.29505 4.45932 9.16078 4.38975C10.0111 4.32142 11.0684 4.32143 12.417 4.32143H12.45H14.7522L13.512 3.01674C13.2266 2.71653 13.2386 2.24181 13.5388 1.95642Z" stroke="none"/>
<path fill-rule="evenodd" clip-rule="evenodd" d="M10.4612 23.0436C10.161 23.329 9.68627 23.317 9.40088 23.0167L6.95644 20.4453C6.74981 20.228 6.69253 19.9084 6.8108 19.6328C6.92906 19.3572 7.20012 19.1786 7.50002 19.1786H11.55C12.9387 19.1786 13.9359 19.178 14.7191 19.1151C15.4937 19.0528 15.9938 18.9332 16.3997 18.7304C17.223 18.319 17.8905 17.6515 18.3018 16.8282C18.5046 16.4224 18.6243 15.9223 18.6865 15.1476C18.7495 14.3645 18.75 13.3673 18.75 11.9786V11.5C18.75 11.0858 19.0858 10.75 19.5 10.75C19.9142 10.75 20.25 11.0858 20.25 11.5V11.9786V12.0116C20.25 13.3602 20.25 14.4175 20.1817 15.2678C20.1121 16.1335 19.9681 16.8493 19.6437 17.4987C19.0871 18.6126 18.184 19.5156 17.0701 20.0722C16.4207 20.3967 15.705 20.5407 14.8392 20.6103C13.989 20.6786 12.9316 20.6786 11.583 20.6786H11.55H9.24778L10.488 21.9833C10.7734 22.2835 10.7614 22.7582 10.4612 23.0436Z" stroke="none"/>
</g>
<defs>
<clipPath id="clip0_3698_17770">
<rect width="24" height="24" fill="white" transform="translate(0 0.5)"/>
</clipPath>
</defs>
</svg>
