<svg width="24" height="25" viewBox="0 0 24 25" xmlns="http://www.w3.org/2000/svg">
<g clip-path="url(#clip0_3698_17745)">
<rect x="16.75" y="3.25" width="4.5" height="4.5" rx="2.25" fill="none" stroke-width="1.5"/>
<rect x="16.75" y="17.25" width="4.5" height="4.5" rx="2.25" fill="none" stroke-width="1.5"/>
<rect x="2.75" y="17.25" width="4.5" height="4.5" rx="2.25" fill="none" stroke-width="1.5"/>
<rect x="2.75" y="3.25" width="4.5" height="4.5" rx="2.25" fill="none" stroke-width="1.5"/>
<path fill-rule="evenodd" clip-rule="evenodd" d="M7.25 10.5C7.25 8.98122 8.48122 7.75 10 7.75H14C15.5188 7.75 16.75 8.98122 16.75 10.5V14.5C16.75 16.0188 15.5188 17.25 14 17.25H10C8.48122 17.25 7.25 16.0188 7.25 14.5V10.5ZM10 9.25C9.30964 9.25 8.75 9.80964 8.75 10.5V14.5C8.75 15.1904 9.30964 15.75 10 15.75H14C14.6904 15.75 15.25 15.1904 15.25 14.5V10.5C15.25 9.80964 14.6904 9.25 14 9.25H10Z" stroke="none"/>
<path d="M7 17.5L8 16.5" fill="none" stroke-width="1.5" stroke-linecap="round"/>
<path d="M16 8.5L17 7.5" fill="none" stroke-width="1.5" stroke-linecap="round"/>
<path d="M17 17.5L16 16.5" fill="none" stroke-width="1.5" stroke-linecap="round"/>
<path d="M8 8.5L7 7.5" fill="none" stroke-width="1.5" stroke-linecap="round"/>
</g>
<defs>
<clipPath id="clip0_3698_17745">
<rect width="24" height="24" fill="white" transform="translate(0 0.5)"/>
</clipPath>
</defs>
</svg>
