<svg width="24" height="25" viewBox="0 0 24 25" xmlns="http://www.w3.org/2000/svg">
<g clip-path="url(#clip0_3698_17864)">
<path fill-rule="evenodd" clip-rule="evenodd" d="M3 13.75C3.41421 13.75 3.75 14.0858 3.75 14.5V16.5C3.75 18.8472 5.65279 20.75 8 20.75H10C10.4142 20.75 10.75 21.0858 10.75 21.5C10.75 21.9142 10.4142 22.25 10 22.25H8C4.82436 22.25 2.25 19.6756 2.25 16.5V14.5C2.25 14.0858 2.58579 13.75 3 13.75Z" stroke="none"/>
<path fill-rule="evenodd" clip-rule="evenodd" d="M13.9426 11.1153C12.7546 9.96158 10.8197 9.96158 9.63175 11.1153C8.45608 12.257 8.45608 14.0988 9.63175 15.2405L10.1666 15.76L10.7207 16.298L10.72 16.2988L14.9994 20.4546L14.9999 20.4541L15.0005 20.4547L19.2801 16.2987L19.2794 16.298L19.8334 15.76L20.3682 15.2405C21.5439 14.0988 21.5439 12.257 20.3682 11.1153C19.1803 9.9616 17.2453 9.9616 16.0574 11.1153L15.5225 11.6347L15 12.1421L14.4775 11.6347L13.9426 11.1153ZM21.4324 16.2979L21.4331 16.2987L20.8791 16.8367L15.5232 22.038L15.0009 22.5453L15.0001 22.5445L14.9992 22.5454L14.4768 22.0381L9.12088 16.8367L8.5668 16.2987L8.56759 16.2979C6.80444 14.5655 6.81083 11.7638 8.58673 10.0392C10.3567 8.32027 13.2176 8.32027 14.9876 10.0392L15 10.0512L15.0124 10.0392C16.7824 8.32029 19.6433 8.32029 21.4133 10.0392C23.1892 11.7639 23.1955 14.5655 21.4324 16.2979Z" stroke="none"/>
<path fill-rule="evenodd" clip-rule="evenodd" d="M4.63175 6.11527C5.81972 4.96158 7.75465 4.96158 8.94262 6.11526L9.4775 6.63471L10 7.14214L10.5225 6.63471L11.0574 6.11529C12.2453 4.9616 14.1803 4.9616 15.3682 6.11529C16.5439 7.25703 16.5439 9.0988 15.3682 10.2405L14.8334 10.76L14.7433 10.8474L15 11.0967L15.5349 10.5772C16.0984 10.03 16.7953 9.69124 17.524 9.56101C18.0411 8.02176 17.6708 6.26047 16.4133 5.03921C14.6433 3.32029 11.7824 3.32029 10.0124 5.03921L10 5.0512L9.98764 5.03919C8.21764 3.32027 5.35674 3.32027 3.58673 5.03919C1.81083 6.76384 1.80444 9.56549 3.56759 11.2979L3.5668 11.2987L4.12088 11.8367L9.47677 17.0381L9.99918 17.5454L10.0001 17.5445L10.0009 17.5453L10.464 17.0956L9.64339 16.2987L9.64412 16.298L9.10924 15.7785C8.462 15.15 8.09801 14.3505 8.01726 13.5297L5.71997 11.2988L5.72071 11.298L5.16663 10.76L4.63175 10.2405C3.45608 9.09877 3.45608 7.257 4.63175 6.11527Z" stroke="none"/>
</g>
<defs>
<clipPath id="clip0_3698_17864">
<rect width="24" height="24" fill="white" transform="translate(0 0.5)"/>
</clipPath>
</defs>
</svg>
