<svg width="24" height="25" viewBox="0 0 24 25" xmlns="http://www.w3.org/2000/svg">
<mask id="path-1-inside-1_723_5380" fill="white">
<path fill-rule="evenodd" clip-rule="evenodd" d="M12.3094 22.3776C17.6631 22.3776 22.0032 17.9279 22.0032 12.4388C22.0032 6.94976 17.6631 2.5 12.3094 2.5C6.95566 2.5 2.6156 6.94976 2.6156 12.4388C2.6156 14.6533 3.32198 16.6986 4.51633 18.3508C4.65804 18.5469 4.65155 18.816 4.49125 18.9972L2.12703 21.6689C1.82236 22.0132 2.10472 22.5516 2.56117 22.4967L8.75409 21.752C8.83556 21.7422 8.9181 21.7528 8.99498 21.7815C10.0291 22.1672 11.1453 22.3776 12.3094 22.3776Z" stroke="none"/>
</mask>
<path d="M8.75409 21.752L8.57501 20.2627L8.75409 21.752ZM8.99498 21.7815L9.51921 20.3761L8.99498 21.7815ZM2.56117 22.4967L2.74025 23.986L2.56117 22.4967ZM4.51633 18.3508L3.30069 19.2296L4.51633 18.3508ZM4.49125 18.9972L5.61458 19.9912L4.49125 18.9972ZM20.5032 12.4388C20.5032 17.135 16.7996 20.8776 12.3094 20.8776V23.8776C18.5266 23.8776 23.5032 18.7208 23.5032 12.4388H20.5032ZM12.3094 4C16.7996 4 20.5032 7.74267 20.5032 12.4388H23.5032C23.5032 6.15685 18.5266 1 12.3094 1V4ZM4.1156 12.4388C4.1156 7.74267 7.81916 4 12.3094 4V1C6.09215 1 1.1156 6.15685 1.1156 12.4388H4.1156ZM5.73197 17.4721C4.71794 16.0693 4.1156 14.3301 4.1156 12.4388H1.1156C1.1156 14.9765 1.92602 17.3279 3.30069 19.2296L5.73197 17.4721ZM3.25036 22.6629L5.61458 19.9912L3.36791 18.0031L1.00369 20.6749L3.25036 22.6629ZM8.57501 20.2627L2.38208 21.0074L2.74025 23.986L8.93317 23.2413L8.57501 20.2627ZM12.3094 20.8776C11.3274 20.8776 10.3885 20.7004 9.51921 20.3761L8.47075 23.1869C9.66957 23.6341 10.9631 23.8776 12.3094 23.8776V20.8776ZM8.93317 23.2413C8.76696 23.2612 8.6087 23.2384 8.47075 23.1869L9.51921 20.3761C9.22749 20.2673 8.90417 20.2231 8.57501 20.2627L8.93317 23.2413ZM1.00369 20.6749C-0.214981 22.0521 0.914443 24.2055 2.74025 23.986L2.38208 21.0074C3.29499 20.8976 3.8597 21.9744 3.25036 22.6629L1.00369 20.6749ZM3.30069 19.2296C3.0535 18.8876 3.03813 18.3758 3.36791 18.0031L5.61458 19.9912C6.26498 19.2562 6.26258 18.2061 5.73197 17.4721L3.30069 19.2296Z" mask="url(#path-1-inside-1_723_5380)" stroke="none"/>
</svg>
