<svg width="24" height="25" viewBox="0 0 24 25" xmlns="http://www.w3.org/2000/svg">
<rect x="2.75" y="9.25" width="12.5" height="12.5" rx="2.25" fill="none" stroke-width="1.5"/>
<path fill-rule="evenodd" clip-rule="evenodd" d="M8 7H16C16.8284 7 17.5 7.67157 17.5 8.5V16.5C17.5 17.3284 16.8284 18 16 18V19.5C17.6569 19.5 19 18.1569 19 16.5V8.5C19 6.84315 17.6569 5.5 16 5.5H8C6.34315 5.5 5 6.84315 5 8.5H6.5C6.5 7.67157 7.17157 7 8 7Z" stroke="none"/>
<path fill-rule="evenodd" clip-rule="evenodd" d="M11 4H19C19.8284 4 20.5 4.67157 20.5 5.5V13.5C20.5 14.3284 19.8284 15 19 15V16.5C20.6569 16.5 22 15.1569 22 13.5V5.5C22 3.84315 20.6569 2.5 19 2.5H11C9.34315 2.5 8 3.84315 8 5.5H9.5C9.5 4.67157 10.1716 4 11 4Z" stroke="none"/>
</svg>
