<svg width="24" height="25" viewBox="0 0 24 25" xmlns="http://www.w3.org/2000/svg">
<rect x="2.75" y="3.25" width="18.5" height="18.5" rx="4.25" fill="none" stroke-width="1.5"/>
<path fill-rule="evenodd" clip-rule="evenodd" d="M12.75 7C12.75 6.58579 12.4142 6.25 12 6.25C11.5858 6.25 11.25 6.58579 11.25 7V11.75H6.5C6.08579 11.75 5.75 12.0858 5.75 12.5C5.75 12.9142 6.08579 13.25 6.5 13.25H11.25V18C11.25 18.4142 11.5858 18.75 12 18.75C12.4142 18.75 12.75 18.4142 12.75 18V13.25H17.5C17.9142 13.25 18.25 12.9142 18.25 12.5C18.25 12.0858 17.9142 11.75 17.5 11.75H12.75V7Z" stroke="none"/>
</svg>
