<svg width="24" height="25" viewBox="0 0 24 25" xmlns="http://www.w3.org/2000/svg">
<path fill-rule="evenodd" clip-rule="evenodd" d="M6.75 6.5C6.33579 6.5 6 6.83579 6 7.25C6 7.66421 6.33579 8 6.75 8H21.25C21.6642 8 22 7.66421 22 7.25C22 6.83579 21.6642 6.5 21.25 6.5H6.75ZM6.75 11.5C6.33579 11.5 6 11.8358 6 12.25C6 12.6642 6.33579 13 6.75 13H21.25C21.6642 13 22 12.6642 22 12.25C22 11.8358 21.6642 11.5 21.25 11.5H6.75ZM6 17.25C6 16.8358 6.33579 16.5 6.75 16.5H21.25C21.6642 16.5 22 16.8358 22 17.25C22 17.6642 21.6642 18 21.25 18H6.75C6.33579 18 6 17.6642 6 17.25ZM2.75 16.5C2.33579 16.5 2 16.8358 2 17.25C2 17.6642 2.33579 18 2.75 18C3.16421 18 3.5 17.6642 3.5 17.25C3.5 16.8358 3.16421 16.5 2.75 16.5ZM2 12.25C2 11.8358 2.33579 11.5 2.75 11.5C3.16421 11.5 3.5 11.8358 3.5 12.25C3.5 12.6642 3.16421 13 2.75 13C2.33579 13 2 12.6642 2 12.25ZM2.75 6.5C2.33579 6.5 2 6.83579 2 7.25C2 7.66421 2.33579 8 2.75 8C3.16421 8 3.5 7.66421 3.5 7.25C3.5 6.83579 3.16421 6.5 2.75 6.5Z" stroke="none"/>
</svg>
