<svg width="24" height="25" viewBox="0 0 24 25" xmlns="http://www.w3.org/2000/svg">
<path d="M18.3916 6.68237C18.3865 6.67248 18.378 6.66472 18.3677 6.6605C17.1764 6.11389 15.9191 5.72412 14.6275 5.50094C14.6158 5.49876 14.6037 5.50033 14.5929 5.50543C14.5821 5.51054 14.5732 5.51892 14.5674 5.52937C14.3962 5.84009 14.2408 6.15925 14.1018 6.48562C12.7095 6.27428 11.2933 6.27428 9.901 6.48562C9.76105 6.15842 9.60315 5.83918 9.42803 5.52937C9.42202 5.51914 9.41307 5.51096 9.40235 5.50589C9.39162 5.50082 9.37962 5.49909 9.3679 5.50094C8.07615 5.72365 6.81885 6.11346 5.62765 6.66053C5.61745 6.66485 5.60885 6.67224 5.60303 6.68166C3.22087 10.2391 2.56831 13.7091 2.88843 17.1361C2.88933 17.1445 2.89191 17.1526 2.89602 17.16C2.90013 17.1674 2.90568 17.1738 2.91234 17.179C4.29945 18.2061 5.85094 18.99 7.50062 19.4974C7.51224 19.5009 7.52464 19.5008 7.53617 19.497C7.5477 19.4932 7.55779 19.486 7.56509 19.4763C7.9194 18.9942 8.23335 18.4837 8.50375 17.95C8.50746 17.9427 8.50958 17.9346 8.50997 17.9264C8.51036 17.9182 8.509 17.9101 8.50599 17.9024C8.50298 17.8948 8.49839 17.8879 8.49251 17.8821C8.48664 17.8764 8.47961 17.872 8.4719 17.8691C7.97683 17.6797 7.49754 17.4513 7.03853 17.1862C7.03019 17.1813 7.02319 17.1744 7.01814 17.1662C7.01309 17.1579 7.01015 17.1486 7.00958 17.1389C7.00901 17.1293 7.01082 17.1196 7.01486 17.1108C7.0189 17.102 7.02504 17.0944 7.03275 17.0885C7.12933 17.0164 7.22424 16.942 7.3174 16.8655C7.32557 16.8588 7.33546 16.8545 7.34595 16.853C7.35644 16.8516 7.36712 16.8532 7.37678 16.8575C10.3839 18.2299 13.6396 18.2299 16.6112 16.8575C16.6208 16.8529 16.6316 16.8511 16.6423 16.8524C16.6529 16.8537 16.663 16.858 16.6713 16.8648C16.7645 16.9417 16.8597 17.0163 16.9567 17.0885C16.9644 17.0943 16.9706 17.1019 16.9747 17.1107C16.9788 17.1194 16.9807 17.1291 16.9802 17.1387C16.9797 17.1484 16.9768 17.1578 16.9718 17.166C16.9668 17.1743 16.9599 17.1813 16.9516 17.1862C16.4936 17.4536 16.0139 17.6818 15.5175 17.8684C15.5098 17.8713 15.5028 17.8759 15.497 17.8817C15.4911 17.8875 15.4866 17.8945 15.4836 17.9022C15.4807 17.9099 15.4794 17.9182 15.4799 17.9264C15.4803 17.9346 15.4825 17.9427 15.4863 17.95C15.7612 18.4807 16.0747 18.9906 16.4242 19.4755C16.4313 19.4854 16.4414 19.4929 16.4529 19.4968C16.4645 19.5007 16.477 19.5009 16.4887 19.4973C18.1413 18.9917 19.6955 18.2076 21.0844 17.179C21.0911 17.1741 21.0968 17.1678 21.1009 17.1605C21.105 17.1532 21.1075 17.1451 21.1083 17.1368C21.4915 13.1748 20.4667 9.73328 18.3916 6.68237ZM8.95284 15.0494C8.04746 15.0494 7.30146 14.2185 7.30146 13.1982C7.30146 12.1778 8.033 11.3469 8.95284 11.3469C9.87987 11.3469 10.6187 12.185 10.6042 13.1981C10.6042 14.2185 9.87262 15.0494 8.95284 15.0494ZM15.0585 15.0494C14.1531 15.0494 13.4071 14.2185 13.4071 13.1982C13.4071 12.1778 14.1387 11.3469 15.0585 11.3469C15.9856 11.3469 16.7243 12.185 16.7098 13.1981C16.7098 14.2185 15.9856 15.0494 15.0585 15.0494Z" stroke="none"/>
</svg>
