<svg width="24" height="25" viewBox="0 0 24 25" xmlns="http://www.w3.org/2000/svg">
<mask id="path-1-outside-1_2510_16500" maskUnits="userSpaceOnUse" x="3" y="2.64233" width="17" height="19" stroke="none">
<rect fill="white" x="3" y="2.64233" width="17" height="19"/>
<path fill-rule="evenodd" clip-rule="evenodd" d="M5.29289 14.1912C4.90237 13.8006 4.90237 13.1675 5.29289 12.7769C5.68342 12.3864 6.31658 12.3864 6.70711 12.7769L10.8227 16.8925L10.8227 5.44613C10.8227 5.00221 11.1825 4.64233 11.6265 4.64233C12.0704 4.64233 12.4303 5.00221 12.4303 5.44613L12.4303 16.8928L16.5461 12.7769C16.9366 12.3864 17.5698 12.3864 17.9603 12.7769C18.3508 13.1675 18.3508 13.8006 17.9603 14.1912L12.3337 19.8178C11.9432 20.2083 11.31 20.2083 10.9195 19.8178L5.29289 14.1912Z"/>
</mask>
<path d="M5.29289 12.7769L6.35355 13.8376L6.35355 13.8376L5.29289 12.7769ZM5.29289 14.1912L6.35355 13.1305L6.35355 13.1305L5.29289 14.1912ZM6.70711 12.7769L7.76777 11.7163L6.70711 12.7769ZM10.8227 16.8925L12.3227 16.8925L12.3227 20.5138L9.76202 17.9532L10.8227 16.8925ZM10.8227 5.44613L9.32268 5.44613L10.8227 5.44613ZM12.4303 5.44613L10.9303 5.44613L12.4303 5.44613ZM12.4303 16.8928L13.4909 17.9534L10.9303 20.5141L10.9303 16.8928L12.4303 16.8928ZM16.5461 12.7769L15.4854 11.7163L15.4854 11.7163L16.5461 12.7769ZM17.9603 12.7769L19.021 11.7163L19.021 11.7163L17.9603 12.7769ZM17.9603 14.1912L16.8996 13.1305L17.9603 14.1912ZM12.3337 19.8178L13.3944 20.8784L13.3944 20.8784L12.3337 19.8178ZM10.9195 19.8178L9.85883 20.8784L9.85883 20.8784L10.9195 19.8178ZM6.35355 13.8376C6.54882 13.6423 6.54882 13.3258 6.35355 13.1305L4.23223 15.2518C3.25592 14.2755 3.25592 12.6926 4.23223 11.7163L6.35355 13.8376ZM5.64645 13.8376C5.84171 14.0329 6.15829 14.0329 6.35355 13.8376L4.23223 11.7163C5.20854 10.74 6.79146 10.74 7.76777 11.7163L5.64645 13.8376ZM9.76202 17.9532L5.64645 13.8376L7.76777 11.7163L11.8833 15.8319L9.76202 17.9532ZM12.3227 5.44613L12.3227 16.8925L9.32268 16.8925L9.32268 5.44613L12.3227 5.44613ZM11.6265 6.14233C12.011 6.14233 12.3227 5.83063 12.3227 5.44613L9.32268 5.44613C9.32268 4.17378 10.3541 3.14233 11.6265 3.14233L11.6265 6.14233ZM10.9303 5.44613C10.9303 5.83064 11.242 6.14233 11.6265 6.14233L11.6265 3.14233C12.8988 3.14233 13.9303 4.17378 13.9303 5.44613L10.9303 5.44613ZM10.9303 16.8928L10.9303 5.44613L13.9303 5.44613L13.9303 16.8928L10.9303 16.8928ZM17.6068 13.8376L13.4909 17.9534L11.3696 15.8321L15.4854 11.7163L17.6068 13.8376ZM16.8996 13.8376C17.0949 14.0329 17.4115 14.0329 17.6068 13.8376L15.4854 11.7163C16.4617 10.74 18.0447 10.74 19.021 11.7163L16.8996 13.8376ZM16.8996 13.1305C16.7044 13.3258 16.7044 13.6423 16.8996 13.8376L19.021 11.7163C19.9973 12.6926 19.9973 14.2755 19.021 15.2518L16.8996 13.1305ZM11.273 18.7571L16.8996 13.1305L19.021 15.2518L13.3944 20.8784L11.273 18.7571ZM11.9802 18.7571C11.7849 18.5618 11.4683 18.5618 11.273 18.7571L13.3944 20.8784C12.4181 21.8547 10.8351 21.8547 9.85883 20.8784L11.9802 18.7571ZM6.35355 13.1305L11.9802 18.7571L9.85883 20.8784L4.23223 15.2518L6.35355 13.1305Z" stroke="none" mask="url(#path-1-outside-1_2510_16500)"/>
</svg>
