<svg width="24" height="25" viewBox="0 0 24 25" xmlns="http://www.w3.org/2000/svg">
<path fill-rule="evenodd" clip-rule="evenodd" d="M21.2603 3.2679C20.8698 2.87737 20.2366 2.87737 19.8461 3.2679L10.6537 12.4603L12.0679 13.8745L21.2603 4.68211C21.6509 4.29159 21.6509 3.65842 21.2603 3.2679ZM10.6537 15.2887L11.3608 14.5816L9.94662 13.1674L9.23951 13.8745L8.6589 15.6163C8.60678 15.7727 8.75553 15.9214 8.91188 15.8693L10.6537 15.2887Z" stroke="none"/>
<path fill-rule="evenodd" clip-rule="evenodd" d="M18.8474 2.85235C18.2759 2.625 17.6525 2.5 17 2.5H7C4.23858 2.5 2 4.73858 2 7.5V17.5C2 20.2614 4.23858 22.5 7 22.5H17C19.7614 22.5 22 20.2614 22 17.5V7.5C22 6.86282 21.8808 6.25347 21.6635 5.69305L20.4499 6.90665C20.4828 7.09951 20.5 7.29775 20.5 7.5V17.5C20.5 19.433 18.933 21 17 21H7C5.067 21 3.5 19.433 3.5 17.5V7.5C3.5 5.567 5.067 4 7 4H17C17.219 4 17.4333 4.02011 17.6411 4.05859L18.8474 2.85235Z" stroke="none"/>
</svg>
