<svg width="24" height="25" viewBox="0 0 24 25" xmlns="http://www.w3.org/2000/svg">
<path d="M6.15656 12.019C6.15654 11.9074 6.17858 11.7968 6.22142 11.6937C6.26425 11.5906 6.32704 11.497 6.40616 11.4182C6.48529 11.3394 6.5792 11.277 6.6825 11.2347C6.7858 11.1923 6.89645 11.1708 7.0081 11.1713L8.41986 11.1759C8.64496 11.1759 8.86084 11.2653 9.02001 11.4245C9.17918 11.5837 9.2686 11.7996 9.2686 12.0247V17.363C9.42764 17.3159 9.6316 17.2657 9.85504 17.2133C10.0102 17.1767 10.1484 17.0889 10.2474 16.964C10.3464 16.839 10.4002 16.6844 10.4003 16.525V9.90317C10.4003 9.79169 10.4222 9.68131 10.4649 9.57831C10.5075 9.47532 10.5701 9.38173 10.6489 9.3029C10.7277 9.22407 10.8213 9.16153 10.9243 9.11886C11.0272 9.0762 11.1376 9.05423 11.2491 9.05422H12.6637C12.8887 9.05426 13.1046 9.14369 13.2638 9.30285C13.4229 9.46202 13.5124 9.67788 13.5124 9.90297V16.0491C13.5124 16.0491 13.8664 15.9057 14.2115 15.7601C14.3396 15.7059 14.449 15.6152 14.5259 15.4992C14.6028 15.3833 14.6439 15.2472 14.644 15.1081V7.78093C14.644 7.66948 14.6659 7.55911 14.7086 7.45614C14.7512 7.35316 14.8138 7.2596 14.8926 7.18078C14.9714 7.10197 15.0649 7.03945 15.1679 6.9968C15.2709 6.95414 15.3812 6.93219 15.4927 6.93219H16.9072C17.1323 6.93219 17.3482 7.02161 17.5074 7.18078C17.6666 7.33994 17.756 7.55583 17.7561 7.78093V13.8145C18.9824 12.9257 20.2254 11.8566 21.2117 10.5712C21.3548 10.3846 21.4495 10.1655 21.4873 9.93346C21.5252 9.70138 21.505 9.46354 21.4285 9.24117C20.7612 7.29622 19.5093 5.60489 17.8442 4.39842C16.1791 3.19195 14.182 2.52924 12.1259 2.50091C6.58158 2.42643 1.9995 6.95227 2.00005 12.4973C1.9946 14.2519 2.45255 15.9768 3.32759 17.4977C3.44827 17.7057 3.6258 17.875 3.83934 17.9856C4.05287 18.0962 4.29354 18.1436 4.53308 18.1222C4.80069 18.0986 5.13388 18.0653 5.52996 18.0188C5.70236 17.9992 5.86152 17.9169 5.97713 17.7875C6.09274 17.6581 6.15673 17.4907 6.1569 17.3172V12.019" stroke="none"/>
<path d="M6.12556 20.5806C7.61662 21.6653 9.3787 22.3164 11.2168 22.4618C13.055 22.6072 14.8975 22.2413 16.5406 21.4046C18.1837 20.5679 19.5633 19.2929 20.5268 17.7208C21.4903 16.1487 22 14.3406 21.9997 12.4967C21.9997 12.2666 21.9891 12.039 21.9737 11.8126C18.3218 17.259 11.5789 19.8051 6.12549 20.5808" stroke="none"/>
</svg>
