<svg width="24" height="25" viewBox="0 0 24 25" xmlns="http://www.w3.org/2000/svg">
<mask id="path-1-inside-1_335_3293" fill="white">
<path fill-rule="evenodd" clip-rule="evenodd" d="M5.71401 3.5C4.18138 3.5 3.2183 5.1531 3.97416 6.48637L9.0192 15.3853C9.06183 15.4605 9.08424 15.5454 9.08424 15.6319L9.08424 21.5C9.08424 22.0523 9.53196 22.5 10.0842 22.5H11.953C11.9842 22.5 12.0153 22.4968 12.0458 22.4905C13.4566 22.2002 14.5036 21.0094 14.611 19.5731L14.9071 15.6118C14.9126 15.5382 14.9344 15.4667 14.9708 15.4025L20.0256 6.48637C20.7814 5.1531 19.8183 3.5 18.2857 3.5H5.71401Z" stroke="none"/>
</mask>
<path d="M3.97416 6.48637L5.27905 5.74659H5.27905L3.97416 6.48637ZM9.08424 21.5H10.5842H9.08424ZM12.0458 22.4905L11.7435 21.0213L11.7434 21.0213L12.0458 22.4905ZM14.611 19.5731L13.1152 19.4612L14.611 19.5731ZM20.0256 6.48637L18.7207 5.74659V5.74659L20.0256 6.48637ZM14.9071 15.6118L13.4113 15.5L14.9071 15.6118ZM14.9708 15.4025L16.2757 16.1423L14.9708 15.4025ZM9.0192 15.3853L10.3241 14.6455L9.0192 15.3853ZM9.08424 15.6319L10.5842 15.6319L9.08424 15.6319ZM5.27905 5.74659C5.09008 5.41327 5.33086 5 5.71401 5V2C3.03191 2 1.34651 4.89293 2.66928 7.22615L5.27905 5.74659ZM10.3241 14.6455L5.27905 5.74659L2.66928 7.22615L7.71431 16.1251L10.3241 14.6455ZM10.5842 21.5L10.5842 15.6319L7.58424 15.6319L7.58424 21.5H10.5842ZM10.0842 21C10.3604 21 10.5842 21.2239 10.5842 21.5H7.58424C7.58424 22.8807 8.70353 24 10.0842 24V21ZM11.953 21H10.0842V24H11.953V21ZM11.7434 21.0213C11.8124 21.0071 11.8826 21 11.953 21V24C12.0857 24 12.2181 23.9865 12.3482 23.9598L11.7434 21.0213ZM13.1152 19.4612C13.0577 20.2293 12.4978 20.8661 11.7435 21.0213L12.3482 23.9598C14.4153 23.5344 15.9495 21.7895 16.1068 19.6849L13.1152 19.4612ZM13.4113 15.5L13.1152 19.4612L16.1068 19.6849L16.403 15.7236L13.4113 15.5ZM18.7207 5.74659L13.6659 14.6627L16.2757 16.1423L21.3305 7.22615L18.7207 5.74659ZM18.2857 5C18.6689 5 18.9097 5.41328 18.7207 5.74659L21.3305 7.22615C22.6532 4.89292 20.9678 2 18.2857 2V5ZM5.71401 5H18.2857V2H5.71401V5ZM16.403 15.7236C16.392 15.8709 16.3485 16.0138 16.2757 16.1423L13.6659 14.6627C13.5203 14.9196 13.4333 15.2055 13.4113 15.5L16.403 15.7236ZM7.71431 16.1251C7.62906 15.9747 7.58424 15.8047 7.58424 15.6319L10.5842 15.6319C10.5842 15.2861 10.4946 14.9463 10.3241 14.6455L7.71431 16.1251Z" stroke="none" mask="url(#path-1-inside-1_335_3293)"/>
</svg>
