<svg width="24" height="25" viewBox="0 0 24 25" xmlns="http://www.w3.org/2000/svg">
<g clip-path="url(#clip0_3698_17791)">
<path fill-rule="evenodd" clip-rule="evenodd" d="M21.875 10.9845C23.0417 11.6581 23.0417 13.342 21.875 14.0156L18.875 15.7476C17.7083 16.4212 16.25 15.5792 16.25 14.2321L16.25 10.768C16.25 9.42084 17.7083 8.57887 18.875 9.25245L21.875 10.9845ZM21.125 12.7165C21.2917 12.6203 21.2917 12.3798 21.125 12.2835L18.125 10.5515C17.9583 10.4553 17.75 10.5755 17.75 10.768V14.2321C17.75 14.4245 17.9583 14.5448 18.125 14.4486L21.125 12.7165Z" stroke="none"/>
<path fill-rule="evenodd" clip-rule="evenodd" d="M2.125 10.9845C0.958332 11.6581 0.958335 13.342 2.125 14.0156L5.125 15.7476C6.29167 16.4212 7.75 15.5792 7.75 14.2321V10.768C7.75 9.42084 6.29167 8.57887 5.125 9.25245L2.125 10.9845ZM2.875 12.7165C2.70833 12.6203 2.70833 12.3798 2.875 12.2835L5.875 10.5515C6.04167 10.4553 6.25 10.5755 6.25 10.768V14.2321C6.25 14.4245 6.04167 14.5448 5.875 14.4486L2.875 12.7165Z" stroke="none"/>
<path fill-rule="evenodd" clip-rule="evenodd" d="M13.5153 22.375C12.8418 23.5417 11.1578 23.5417 10.4843 22.375L8.7522 19.375C8.07863 18.2083 8.9206 16.75 10.2677 16.75L13.7319 16.75C15.079 16.75 15.921 18.2083 15.2474 19.375L13.5153 22.375ZM11.7833 21.625C11.8795 21.7917 12.1201 21.7917 12.2163 21.625L13.9484 18.625C14.0446 18.4583 13.9243 18.25 13.7319 18.25L10.2677 18.25C10.0753 18.25 9.95502 18.4583 10.0512 18.625L11.7833 21.625Z" stroke="none"/>
<path fill-rule="evenodd" clip-rule="evenodd" d="M10.4843 2.625C11.1578 1.45833 12.8418 1.45834 13.5153 2.625L15.2474 5.625C15.921 6.79167 15.079 8.25 13.7318 8.25L10.2677 8.25C8.92059 8.25 8.07863 6.79167 8.7522 5.625L10.4843 2.625ZM12.2163 3.375C12.1201 3.20833 11.8795 3.20833 11.7833 3.375L10.0512 6.375C9.95502 6.54167 10.0753 6.75 10.2677 6.75L13.7318 6.75C13.9243 6.75 14.0446 6.54167 13.9484 6.375L12.2163 3.375Z" stroke="none"/>
</g>
<defs>
<clipPath id="clip0_3698_17791">
<rect width="24" height="24" fill="white" transform="translate(0 0.5)"/>
</clipPath>
</defs>
</svg>
