<svg width="24" height="25" viewBox="0 0 24 25" xmlns="http://www.w3.org/2000/svg">
<rect x="4.75" y="2.75" width="10.5" height="19.5" rx="2.25" fill="none" stroke-width="1.5"/>
<path d="M15.5 16L17.7053 16.8821C17.9 16.96 18.1077 17 18.3174 17V17C18.7545 17 19.1736 16.8264 19.4827 16.5173L19.5 16.5C19.8201 16.1799 20 15.7456 20 15.2929V9.5M15.5 4H15.882C16.6172 4 17.3424 4.17119 18 4.5V4.5M18 4.5L18.5 4.75V4.75C18.8312 4.91558 19.1335 5.13347 19.3953 5.39528L19.5 5.5V5.5C19.8201 5.82014 20 6.25435 20 6.70711V9.5M18 4.5L17.6299 6.35053C17.5457 6.77147 17.6042 7.20845 17.7962 7.59241V7.59241C17.9302 7.86045 18.1248 8.09361 18.3646 8.27342L20 9.5" fill="none" stroke-width="1.5"/>
<rect x="7.25" y="5.25" width="5.5" height="5.5" rx="1.75" fill="none" stroke-width="1.5"/>
</svg>
