<svg width="24" height="25" viewBox="0 0 24 25" xmlns="http://www.w3.org/2000/svg">
<path fill-rule="evenodd" clip-rule="evenodd" d="M10.7655 6.23627C9.10342 4.58791 6.40608 4.58791 4.74398 6.23627C3.08534 7.88121 3.08534 10.5456 4.74398 12.1905L5.45117 12.8919L5.98808 13.4244L5.98737 13.4251L12.0004 19.3884L12.0012 19.3877L12.0015 19.388L18.0137 13.4254L18.0131 13.4248L18.5505 12.8919L19.2576 12.1907C20.9162 10.5457 20.9162 7.88133 19.2576 6.23639C17.5955 4.58803 14.8981 4.58803 13.236 6.23639L12.529 6.93762L12.0008 7.46138L11.4727 6.93762L10.7655 6.23627ZM20.1441 13.424L20.1447 13.4246L19.6073 13.9575L12.5295 20.9768L12.0014 21.5006L12.0005 21.4998L11.9998 21.5004L11.472 20.9769L4.39421 13.9576L3.8573 13.4252L3.85802 13.4245L3.68773 13.2556C1.43742 11.0239 1.43742 7.40294 3.68773 5.17122C5.93459 2.94293 9.57491 2.94293 11.8218 5.17122L12.0008 5.34881L12.1798 5.17134C14.4266 2.94304 18.0669 2.94304 20.3138 5.17134C22.5641 7.40306 22.5641 11.024 20.3138 13.2557L20.1441 13.424Z" stroke="none"/>
</svg>
