<svg width="24" height="24" viewBox="0 0 24 24" fill="none" xmlns="http://www.w3.org/2000/svg">
<path d="M4.53553 12.6058C2.58291 10.6532 2.58291 7.4874 4.53553 5.53478C6.48816 3.58216 9.65398 3.58216 11.6066 5.53478L19.3848 13.313L12.3137 20.384L4.53553 12.6058Z" fill="#DD3939"/>
<path d="M19.8492 12.6058C21.8019 10.6532 21.8019 7.4874 19.8492 5.53478C17.8966 3.58216 14.7308 3.58216 12.7782 5.53478L4.99999 13.313L12.0711 20.384L19.8492 12.6058Z" fill="#DD3939"/>
<path fill-rule="evenodd" clip-rule="evenodd" d="M10.7657 5.73649C9.10363 4.08813 6.40629 4.08813 4.74419 5.73649C3.08555 7.38143 3.08555 10.0458 4.74419 11.6908L5.45138 12.3921L5.98828 12.9246L5.98757 12.9253L12.0006 18.8887L12.0014 18.8879L12.0017 18.8882L18.0139 12.9256L18.0134 12.925L18.5507 12.3921L19.2578 11.6909C20.9164 10.0459 20.9164 7.38155 19.2578 5.73661C17.5957 4.08825 14.8983 4.08825 13.2362 5.73661L12.5292 6.43784L12.001 6.9616L11.4729 6.43784L10.7657 5.73649ZM20.1443 12.9242L20.1449 12.9248L19.6075 13.4577L12.5298 20.4771L12.0016 21.0009L12.0007 21L12 21.0006L11.4722 20.4772L4.39442 13.4579L3.85751 12.9254L3.85822 12.9247L3.68794 12.7558C1.43763 10.5241 1.43763 6.90316 3.68794 4.67144C5.9348 2.44314 9.57512 2.44315 11.822 4.67144L12.001 4.84902L12.18 4.67156C14.4268 2.44326 18.0672 2.44326 20.314 4.67156C22.5643 6.90328 22.5643 10.5242 20.314 12.7559L20.1443 12.9242Z" fill="#DD3939"/>
</svg>
