<svg width="24" height="25" viewBox="0 0 24 25" xmlns="http://www.w3.org/2000/svg">
<path d="M8 4H16" fill="none" stroke-width="1.5" stroke-linecap="round"/>
<path d="M6 7L18 7" fill="none" stroke-width="1.5" stroke-linecap="round"/>
<path d="M4 10L20 10" fill="none" stroke-width="1.5" stroke-linecap="round"/>
<path d="M3 18V14.5C3 13.6716 3.67157 13 4.5 13H6.35969C6.51158 13 6.65524 13.069 6.75012 13.1877L8.39951 15.2494C8.77906 15.7238 9.35368 16 9.96125 16H14.0388C14.6463 16 15.2209 15.7238 15.6005 15.2494L17.2499 13.1877C17.3448 13.069 17.4884 13 17.6403 13H19.5C20.3284 13 21 13.6716 21 14.5V18C21 19.6569 19.6569 21 18 21H6C4.34315 21 3 19.6569 3 18Z" fill="none" stroke-width="1.5" stroke-linecap="round"/>
</svg>
