<svg width="24" height="25" viewBox="0 0 24 25" xmlns="http://www.w3.org/2000/svg">
<g clip-path="url(#clip0_289_2738)">
<path d="M11.504 7.55859C8.80668 7.55859 6.63101 9.76289 6.63101 12.4957C6.63101 15.2285 8.80668 17.4328 11.504 17.4328C14.2013 17.4328 16.377 15.2285 16.377 12.4957C16.377 9.76289 14.2013 7.55859 11.504 7.55859ZM11.504 15.7055C9.76092 15.7055 8.33592 14.266 8.33592 12.4957C8.33592 10.7254 9.75668 9.28593 11.504 9.28593C13.2513 9.28593 14.6721 10.7254 14.6721 12.4957C14.6721 14.266 13.2471 15.7055 11.504 15.7055ZM17.7129 7.35664C17.7129 7.99687 17.204 8.5082 16.5763 8.5082C15.9444 8.5082 15.4397 7.99258 15.4397 7.35664C15.4397 6.7207 15.9486 6.20507 16.5763 6.20507C17.204 6.20507 17.7129 6.7207 17.7129 7.35664ZM20.9404 8.52539C20.8683 6.98281 20.5205 5.6164 19.4051 4.49062C18.294 3.36484 16.9453 3.0125 15.4228 2.93515C13.8536 2.84492 9.15021 2.84492 7.58101 2.93515C6.06271 3.0082 4.71405 3.36054 3.59865 4.48633C2.48325 5.61211 2.13972 6.97851 2.06338 8.52109C1.97432 10.1109 1.97432 14.8762 2.06338 16.466C2.13548 18.0086 2.48325 19.375 3.59865 20.5008C4.71405 21.6266 6.05847 21.9789 7.58101 22.0562C9.15021 22.1465 13.8536 22.1465 15.4228 22.0562C16.9453 21.9832 18.294 21.6309 19.4051 20.5008C20.5163 19.375 20.864 18.0086 20.9404 16.466C21.0295 14.8762 21.0295 10.1152 20.9404 8.52539ZM18.9132 18.1719C18.5824 19.0141 17.942 19.6629 17.1065 20.0023C15.8553 20.5051 12.8866 20.3891 11.504 20.3891C10.1214 20.3891 7.14842 20.5008 5.90155 20.0023C5.0703 19.6672 4.4299 19.0184 4.09485 18.1719C3.59865 16.9043 3.71316 13.8965 3.71316 12.4957C3.71316 11.0949 3.60289 8.08281 4.09485 6.81953C4.42566 5.97734 5.06606 5.32851 5.90155 4.98906C7.15266 4.48632 10.1214 4.60234 11.504 4.60234C12.8866 4.60234 15.8596 4.49062 17.1065 4.98906C17.9377 5.32422 18.5781 5.97304 18.9132 6.81953C19.4094 8.08711 19.2949 11.0949 19.2949 12.4957C19.2949 13.8965 19.4094 16.9086 18.9132 18.1719Z" stroke="none"/>
</g>
<defs>
<clipPath id="clip0_289_2738">
<rect width="19" height="22" fill="white" transform="translate(2 1.5)"/>
</clipPath>
</defs>
</svg>
