<svg width="24" height="24" viewBox="0 0 24 24" fill="none" xmlns="http://www.w3.org/2000/svg">
<path d="M2.80693 11.7591C2.80693 10.2469 4.03132 9.02359 5.54245 9.02359H10.918V7.03139H5.54317C2.92669 7.03139 0.814453 9.14359 0.814453 11.7592C0.814453 14.3747 2.92665 16.4869 5.54221 16.4869H10.9177V14.4947H5.54293C4.03074 14.4947 2.80645 13.2713 2.80645 11.7592L2.80693 11.7591ZM18.4547 7.03135H13.0792V9.02354H18.4547C19.9669 9.02354 21.1902 10.2479 21.1902 11.7591C21.1902 13.2713 19.9658 14.4946 18.4547 14.4946H13.0792V16.4868H18.4547C21.0702 16.4868 23.1825 14.3746 23.1825 11.759C23.1834 9.14349 21.0712 7.03125 18.4547 7.03125V7.03135ZM6.31117 11.7591C6.31117 12.3113 6.76679 12.7669 7.31898 12.7669H16.7035C17.2557 12.7669 17.7113 12.3113 17.7113 11.7591C17.7113 11.2069 17.2557 10.7513 16.7035 10.7513H7.31898C6.76679 10.7513 6.31117 11.2069 6.31117 11.7591Z" stroke="none"/>
</svg>
