<svg width="24" height="25" viewBox="0 0 24 25" xmlns="http://www.w3.org/2000/svg">
<path d="M18.7857 3.75H4.21049C3.54263 3.75 3 4.31641 3 5.01172V19.9883C3 20.6836 3.54263 21.25 4.21049 21.25H18.7857C19.4536 21.25 20 20.6836 20 19.9883V5.01172C20 4.31641 19.4536 3.75 18.7857 3.75ZM8.13795 18.75H5.6183V10.3984H8.14174V18.75H8.13795ZM6.87812 9.25781C6.06987 9.25781 5.41719 8.58203 5.41719 7.75391C5.41719 6.92578 6.06987 6.25 6.87812 6.25C7.68259 6.25 8.33906 6.92578 8.33906 7.75391C8.33906 8.58594 7.68638 9.25781 6.87812 9.25781ZM17.5828 18.75H15.0632V14.6875C15.0632 13.7188 15.0442 12.4727 13.754 12.4727C12.4411 12.4727 12.24 13.5273 12.24 14.6172V18.75H9.72031V10.3984H12.1375V11.5391H12.1717C12.5094 10.8828 13.3328 10.1914 14.5585 10.1914C17.1085 10.1914 17.5828 11.9219 17.5828 14.1719V18.75Z" stroke="none"/>
</svg>
