<svg width="24" height="25" viewBox="0 0 24 25" xmlns="http://www.w3.org/2000/svg">
<path d="M21.5 12.5C21.5 14.3789 20.9428 16.2156 19.899 17.7779C18.8551 19.3402 17.3714 20.5578 15.6355 21.2769C13.8996 21.9959 11.9895 22.184 10.1466 21.8175C8.30383 21.4509 6.61109 20.5461 5.28249 19.2175C3.95389 17.8889 3.0491 16.1962 2.68254 14.3534C2.31598 12.5105 2.50412 10.6004 3.22315 8.86451C3.94218 7.12861 5.15982 5.64491 6.72209 4.60104C8.28435 3.55717 10.1211 3 12 3" fill="none" stroke-width="1.5" stroke-linecap="round"/>
<path fill-rule="evenodd" clip-rule="evenodd" d="M17.0912 7.40882C16.0842 6.40188 14.8013 5.71615 13.4047 5.43834C12.008 5.16052 10.5603 5.30311 9.24468 5.84806C7.92906 6.39301 6.80457 7.31585 6.01342 8.49988C5.22228 9.68392 4.80001 11.076 4.80001 12.5C4.80001 13.924 5.22228 15.3161 6.01342 16.5001C6.80457 17.6841 7.92905 18.607 9.24468 19.1519C10.5603 19.6969 12.008 19.8395 13.4047 19.5616C14.8013 19.2838 16.0842 18.5981 17.0912 17.5912C17.2474 17.4349 17.5006 17.4349 17.6569 17.5912C17.8131 17.7474 17.8131 18.0006 17.6569 18.1568C16.538 19.2757 15.1126 20.0376 13.5607 20.3463C12.0089 20.6549 10.4003 20.4965 8.93854 19.891C7.47673 19.2855 6.2273 18.2601 5.34825 16.9445C4.4692 15.629 4.00001 14.0822 4 12.5C4 10.9177 4.4692 9.37102 5.34825 8.05543C6.2273 6.73983 7.47673 5.71445 8.93854 5.10895C10.4003 4.50345 12.0089 4.34503 13.5607 4.65371C15.1126 4.96239 16.538 5.72431 17.6569 6.84313C17.8131 6.99934 17.8131 7.25261 17.6569 7.40882C17.5006 7.56503 17.2474 7.56503 17.0912 7.40882Z" stroke="none"/>
<path fill-rule="evenodd" clip-rule="evenodd" d="M16.9177 11.1823C16.6571 10.2097 16.1139 9.3362 15.3568 8.67227C14.5998 8.00835 13.6629 7.58384 12.6645 7.4524C11.6662 7.32097 10.6513 7.48853 9.74823 7.93389C8.84513 8.37924 8.09438 9.0824 7.59091 9.95444C7.08744 10.8265 6.85386 11.8282 6.91972 12.833C6.98558 13.8378 7.34791 14.8005 7.96089 15.5993C8.57388 16.3982 9.40999 16.9973 10.3635 17.321C11.317 17.6447 12.3451 17.6783 13.3177 17.4177C13.4686 17.3773 13.6237 17.4668 13.6641 17.6177C13.7045 17.7686 13.615 17.9237 13.4641 17.9641C12.3834 18.2537 11.2411 18.2163 10.1817 17.8567C9.12221 17.497 8.1932 16.8313 7.51211 15.9437C6.83101 15.0561 6.42842 13.9864 6.35525 12.87C6.28207 11.7536 6.5416 10.6405 7.10101 9.67159C7.66042 8.70266 8.49459 7.92138 9.49803 7.42654C10.5015 6.9317 11.6291 6.74552 12.7384 6.89156C13.8476 7.03759 14.8886 7.50928 15.7298 8.24697C16.571 8.98466 17.1745 9.95522 17.4641 11.0359C17.5045 11.1868 17.415 11.3419 17.2641 11.3823C17.1132 11.4228 16.9581 11.3332 16.9177 11.1823Z" stroke="none"/>
<path fill-rule="evenodd" clip-rule="evenodd" d="M14.8637 14.1534C15.1907 13.587 15.3424 12.9364 15.2997 12.2837C15.2569 11.6311 15.0216 11.0058 14.6234 10.487C14.2253 9.96808 13.6822 9.57892 13.0629 9.36869C12.4436 9.15846 11.7758 9.1366 11.1441 9.30588C10.5123 9.47515 9.94496 9.82796 9.51373 10.3197C9.0825 10.8114 8.80677 11.42 8.7214 12.0684C8.63604 12.7168 8.74487 13.376 9.03414 13.9626C9.3234 14.5492 9.78012 15.0368 10.3465 15.3638C10.4344 15.4145 10.4645 15.5269 10.4138 15.6148C10.363 15.7026 10.2507 15.7327 10.1628 15.682C9.53347 15.3187 9.02601 14.7769 8.7046 14.1251C8.38319 13.4733 8.26227 12.7409 8.35712 12.0204C8.45198 11.3 8.75834 10.6238 9.23749 10.0774C9.71663 9.53106 10.347 9.13906 11.049 8.95097C11.7509 8.76289 12.4928 8.78718 13.181 9.02077C13.8691 9.25436 14.4725 9.68675 14.9149 10.2633C15.3573 10.8398 15.6188 11.5346 15.6663 12.2597C15.7138 12.9849 15.5453 13.7078 15.1819 14.3371C15.1312 14.425 15.0188 14.4551 14.931 14.4044C14.8431 14.3537 14.813 14.2413 14.8637 14.1534Z" stroke="none"/>
<path fill-rule="evenodd" clip-rule="evenodd" d="M12.8399 13.9544C13.1276 13.7883 13.3596 13.5406 13.5065 13.2427C13.6534 12.9448 13.7087 12.61 13.6653 12.2807C13.6219 11.9514 13.4819 11.6423 13.2629 11.3926C13.0439 11.1428 12.7557 10.9636 12.4349 10.8777C12.114 10.7917 11.7749 10.8028 11.4603 10.9096C11.1458 11.0163 10.87 11.214 10.6678 11.4775C10.4656 11.741 10.346 12.0586 10.3243 12.3901C10.3026 12.7215 10.3796 13.052 10.5457 13.3397C10.5715 13.3843 10.5562 13.4413 10.5116 13.4671C10.467 13.4929 10.4099 13.4776 10.3841 13.433C10.1996 13.1133 10.114 12.7462 10.1381 12.3779C10.1622 12.0096 10.2951 11.6567 10.5197 11.3639C10.7444 11.0711 11.0509 10.8515 11.4004 10.7329C11.7499 10.6142 12.1267 10.6019 12.4832 10.6974C12.8397 10.7929 13.1598 10.992 13.4032 11.2695C13.6465 11.547 13.8021 11.8904 13.8503 12.2563C13.8985 12.6223 13.8371 12.9943 13.6738 13.3253C13.5106 13.6563 13.2529 13.9315 12.9332 14.116C12.8886 14.1418 12.8315 14.1265 12.8058 14.0818C12.78 14.0372 12.7953 13.9802 12.8399 13.9544Z" stroke="none"/>
</svg>
