<svg width="23" height="18" viewBox="0 0 23 18" xmlns="http://www.w3.org/2000/svg">
<path fill-rule="evenodd" clip-rule="evenodd" d="M11.2882 10.2201C9.35094 10.2201 7.77975 8.65006 7.77975 6.7116C7.77975 4.77314 9.35094 3.20312 11.2882 3.20312C13.2255 3.20312 14.7967 4.77314 14.7967 6.7116C14.7967 8.65006 13.2255 10.2201 11.2882 10.2201ZM9.7628 6.7116C9.7628 7.55441 10.4462 8.23702 11.2882 8.23702C12.1303 8.23702 12.8137 7.55441 12.8137 6.7116C12.8137 5.86879 12.1303 5.18618 11.2882 5.18618C10.4462 5.18618 9.7628 5.86879 9.7628 6.7116Z" stroke="none" fill="#04CD58"/>
<path fill-rule="evenodd" clip-rule="evenodd" d="M0 6.7165L6.71186 0H15.8644L22.5763 6.7165L11.2881 18L0 6.7165ZM16.4746 4.27116C13.622 1.40681 8.95424 1.40682 6.10169 4.27117L3.66102 6.71188L6.10169 9.15257C8.95424 12.0169 13.622 12.0169 16.4746 9.15256L18.9153 6.71188L16.4746 4.27116Z" stroke="none" fill="#04CD58"/>
</svg>
