<svg width="24" height="25" viewBox="0 0 24 25" xmlns="http://www.w3.org/2000/svg">
<path d="M5.64317 8.55333C5.65338 8.45188 5.63971 8.34945 5.60324 8.25424C5.56678 8.15903 5.50853 8.07367 5.43317 8.00499L3.8765 6.11583V5.83333H8.70817L12.4432 14.0875L15.7265 5.83333H20.3332V6.11583L19.0023 7.39999C18.9459 7.44353 18.9024 7.50157 18.8765 7.56791C18.8505 7.63425 18.843 7.7064 18.8548 7.77666V17.2217C18.843 17.2919 18.8505 17.3641 18.8765 17.4304C18.9024 17.4967 18.9459 17.5548 19.0023 17.5983L20.3023 18.8833V19.1667H13.7657V18.8842L15.1123 17.5675C15.2448 17.4342 15.2448 17.395 15.2448 17.1917V9.55666L11.5015 19.135H10.9965L6.63817 9.55666V15.9767C6.60234 16.2458 6.6915 16.5183 6.87984 16.7133L8.63067 18.8533V19.135H3.6665V18.8533L5.4165 16.7133C5.5091 16.6167 5.57782 16.4998 5.61717 16.3719C5.65653 16.244 5.66543 16.1086 5.64317 15.9767V8.55333Z" stroke="none"/>
</svg>
