<svg width="24" height="25" viewBox="0 0 24 25" xmlns="http://www.w3.org/2000/svg">
<path fill-rule="evenodd" clip-rule="evenodd" d="M7.5551 5.55203C7.71837 5.12199 8.32672 5.12199 8.48999 5.55203L9.69204 8.71818C9.73973 8.84378 9.83594 8.9449 9.95901 8.99877L12.9985 10.3291C13.3979 10.5038 13.3979 11.0704 12.9985 11.2452L9.95901 12.5755C9.83594 12.6293 9.73973 12.7304 9.69204 12.856L8.48999 16.0222C8.32672 16.4522 7.71837 16.4522 7.5551 16.0222L6.35304 12.856C6.30536 12.7304 6.20914 12.6293 6.08607 12.5755L3.04657 11.2452C2.6472 11.0704 2.6472 10.5038 3.04657 10.3291L6.08607 8.99877C6.20914 8.9449 6.30536 8.84378 6.35304 8.71818L7.5551 5.55203ZM14.0754 14.06C14.2386 13.63 14.847 13.6299 15.0103 14.0599L15.7727 16.0674C15.8204 16.193 15.9166 16.2941 16.0396 16.3479L18.0003 17.2063C18.3996 17.3811 18.3996 17.9476 18.0003 18.1224L16.0396 18.9808C15.9166 19.0346 15.8204 19.1357 15.7727 19.2613L15.0103 21.2688C14.847 21.6988 14.2386 21.6987 14.0754 21.2687L13.3136 19.2614C13.2659 19.1358 13.1697 19.0346 13.0466 18.9807L11.086 18.1224C10.6867 17.9476 10.6867 17.3811 11.086 17.2063L13.0466 16.348C13.1697 16.2941 13.2659 16.193 13.3136 16.0674L14.0754 14.06ZM17.0289 3.73132C17.1921 3.30125 17.8005 3.30119 17.9638 3.73122L18.7262 5.73871C18.7739 5.86427 18.87 5.96537 18.9931 6.01923L20.9538 6.87761C21.3531 7.05243 21.3531 7.61886 20.9538 7.79367L18.9931 8.65206C18.87 8.70592 18.7739 8.80702 18.7262 8.93257L17.9638 10.9401C17.8005 11.3701 17.1921 11.37 17.0289 10.94L16.2671 8.93265C16.2194 8.80704 16.1232 8.70591 16.0001 8.65203L14.0395 7.79367C13.6402 7.61886 13.6402 7.05243 14.0395 6.87761L16.0001 6.01925C16.1232 5.96538 16.2194 5.86424 16.2671 5.73864L17.0289 3.73132Z" fill="none" stroke-width="1.5"/>
</svg>
