<svg width="24" height="24" viewBox="0 0 24 24" xmlns="http://www.w3.org/2000/svg">
<path d="M20.7015 14.0541C20.7704 13.8205 20.7023 13.5671 20.5269 13.3982C20.3506 13.2293 20.0956 13.1719 19.8644 13.249C18.2197 13.8057 16.4208 13.6868 14.8638 12.9169C13.3068 12.1478 12.1196 10.7909 11.5627 9.14612C11.006 7.50057 11.1257 5.70254 11.8956 4.14552C12.003 3.92578 11.9801 3.66422 11.8349 3.46744C11.6898 3.26984 11.4471 3.16981 11.2053 3.20835C8.35107 3.65438 5.91772 5.51638 4.7402 8.15396C3.5628 10.7915 3.80139 13.8466 5.3748 16.2694C6.94822 18.6915 9.64244 20.1525 12.5311 20.1492C14.366 20.141 16.1493 19.5441 17.6202 18.447C19.0903 17.35 20.1709 15.8103 20.7015 14.0539L20.7015 14.0541Z" stroke="none"/>
</svg>
