<svg width="24" height="25" viewBox="0 0 24 25" xmlns="http://www.w3.org/2000/svg">
<path fill-rule="evenodd" clip-rule="evenodd" d="M5.5 12.5C5.5 13.3284 4.82843 14 4 14C3.17157 14 2.5 13.3284 2.5 12.5C2.5 11.6716 3.17157 11 4 11C4.82843 11 5.5 11.6716 5.5 12.5ZM13.5 12.5C13.5 13.3284 12.8284 14 12 14C11.1716 14 10.5 13.3284 10.5 12.5C10.5 11.6716 11.1716 11 12 11C12.8284 11 13.5 11.6716 13.5 12.5ZM20 14C20.8284 14 21.5 13.3284 21.5 12.5C21.5 11.6716 20.8284 11 20 11C19.1716 11 18.5 11.6716 18.5 12.5C18.5 13.3284 19.1716 14 20 14Z" stroke="none"/>
</svg>
