<svg width="24" height="25" viewBox="0 0 24 25" xmlns="http://www.w3.org/2000/svg">
<path fill-rule="evenodd" clip-rule="evenodd" d="M19.9481 19.5763C21.0012 19.5763 21.5824 18.3538 20.9175 17.5372L17.8198 13.7321L17.8198 8.93004C17.8198 8.37846 17.7414 7.82968 17.587 7.30017C15.9572 1.71342 8.04263 1.71342 6.41285 7.30017L6.23103 7.92346C6.19716 8.03954 6.17997 8.15985 6.17997 8.28078L6.17997 12.0677V13.7321L3.08229 17.5372C2.41744 18.3538 2.99859 19.5763 4.05168 19.5763H7.55313C7.62452 20.8614 9.58766 21.8914 11.999 21.8914C14.4102 21.8914 16.3734 20.8614 16.4448 19.5763H19.9481ZM14.8569 19.5763H9.141C9.21449 19.6503 9.34251 19.752 9.56331 19.8705C10.1101 20.164 10.9686 20.3914 11.999 20.3914C13.0293 20.3914 13.8878 20.164 14.4346 19.8705C14.6554 19.752 14.7834 19.6503 14.8569 19.5763ZM16.5332 14.5274L19.4222 18.0763L4.57757 18.0763L7.39936 14.6101C7.58087 14.3872 7.67997 14.1084 7.67997 13.8209V12.0677V8.3128L7.85283 7.72025C9.06256 3.57339 14.9372 3.57339 16.147 7.72025C16.2616 8.11328 16.3198 8.52062 16.3198 8.93004L16.3198 13.9275C16.3198 14.1461 16.3952 14.358 16.5332 14.5274Z" stroke="none"/>
</svg>
