<svg width="24" height="25" viewBox="0 0 24 25" xmlns="http://www.w3.org/2000/svg">
<path fill-rule="evenodd" clip-rule="evenodd" d="M3 9C3 8.58579 3.33579 8.25 3.75 8.25C4.16421 8.25 4.5 8.58579 4.5 9V9.48767C4.49985 9.49636 4.49985 9.50505 4.5 9.51375V16C4.5 16.4142 4.16421 16.75 3.75 16.75C3.33579 16.75 3 16.4142 3 16V9ZM6 9.92866V15.1299C7.43383 16.1807 9.1678 16.75 10.9516 16.75H13.9837L20.7811 11.2271C21.0246 11.0293 21.0683 10.6744 20.8801 10.4234C20.699 10.182 20.3638 10.1183 20.1068 10.2765L14.6431 13.6387L14.4623 13.75H14.25H10.25C9.83579 13.75 9.5 13.4142 9.5 13C9.5 12.5858 9.83579 12.25 10.25 12.25H13.5V11C13.5 10.3096 12.9404 9.75 12.25 9.75H10.2707C10.1616 9.75 10.0535 9.72918 9.95219 9.68865C8.66237 9.17272 7.2124 9.26335 6 9.92866ZM5.84335 16.8265C5.51392 17.6602 4.70084 18.25 3.75 18.25C2.50736 18.25 1.5 17.2426 1.5 16V9C1.5 7.75736 2.50736 6.75 3.75 6.75C4.75514 6.75 5.60635 7.4091 5.895 8.31868C7.32177 7.73148 8.92882 7.6999 10.3909 8.25H12.25C13.7688 8.25 15 9.48122 15 11V11.6578L19.3206 8.99897C20.2378 8.43457 21.4339 8.6619 22.0801 9.52343C22.7518 10.419 22.5959 11.6853 21.727 12.3913L14.823 18.0008C14.6246 18.162 14.3767 18.25 14.121 18.25H10.9516C9.14281 18.25 7.3775 17.7535 5.84335 16.8265Z" stroke="none"/>
</svg>
