<svg width="18" height="18" viewBox="0 0 18 18" xmlns="http://www.w3.org/2000/svg">
<g clip-path="url(#clip0_1985_10134)">
<path d="M18 9C18 13.9703 13.9703 18 9 18C4.02972 18 0 13.9703 0 9C0 4.02972 4.02972 0 9 0C13.9713 0 18 4.02972 18 9Z" stroke="none" fill="#2081E2"/>
<path d="M4.44022 9.30269L4.47906 9.24167L6.82032 5.57907C6.85452 5.52543 6.93498 5.53099 6.96086 5.58923C7.352 6.46583 7.6895 7.55601 7.53138 8.23471C7.46388 8.51395 7.27896 8.89215 7.0709 9.24167C7.04408 9.29253 7.0145 9.34247 6.98306 9.39055C6.96826 9.41273 6.9433 9.42569 6.91648 9.42569H4.50864C4.44392 9.42569 4.40602 9.35541 4.44022 9.30269Z" stroke="none" fill="white"/>
<path d="M14.876 9.98259V10.5623C14.876 10.5956 14.8557 10.6252 14.8261 10.6382C14.6448 10.7158 14.0244 11.0006 13.7664 11.3594C13.108 12.2757 12.605 13.586 11.4806 13.586H6.7898C5.12724 13.586 3.78 12.2341 3.78 10.566V10.5124C3.78 10.468 3.81606 10.432 3.86046 10.432H6.4754C6.52718 10.432 6.5651 10.48 6.56048 10.5309C6.54198 10.701 6.57342 10.8749 6.65386 11.033C6.80922 11.3483 7.131 11.5453 7.47868 11.5453H8.7732V10.5346H7.49346C7.42782 10.5346 7.38898 10.4588 7.4269 10.4051C7.44076 10.3839 7.45648 10.3617 7.47312 10.3367C7.59426 10.1647 7.76716 9.89751 7.93916 9.59329C8.05658 9.38803 8.17032 9.16887 8.26186 8.94881C8.28036 8.90905 8.29516 8.86837 8.30994 8.82859C8.33492 8.75833 8.3608 8.69267 8.3793 8.62703C8.39778 8.57155 8.41258 8.51329 8.42738 8.45873C8.47084 8.27195 8.48934 8.07407 8.48934 7.86879C8.48934 7.78835 8.48564 7.70421 8.47824 7.62375C8.47454 7.53591 8.46344 7.44807 8.45234 7.36023C8.44494 7.28255 8.43108 7.20581 8.41628 7.12537C8.39778 7.00793 8.3719 6.89143 8.3423 6.77399L8.33214 6.72961C8.30994 6.64917 8.29146 6.57241 8.26556 6.49197C8.19252 6.23953 8.10836 5.99357 8.0196 5.76333C7.98724 5.67179 7.95024 5.58395 7.91326 5.49611C7.8587 5.36387 7.80322 5.24367 7.75238 5.12993C7.72648 5.07815 7.70428 5.03099 7.6821 4.98291C7.65714 4.92835 7.63124 4.87381 7.60536 4.82201C7.58686 4.78225 7.56558 4.74527 7.5508 4.70829L7.39268 4.41609C7.37048 4.37633 7.40748 4.32917 7.45092 4.34119L8.44032 4.60935H8.4431C8.44494 4.60935 8.44588 4.61027 8.4468 4.61027L8.57718 4.64633L8.7205 4.68701L8.7732 4.70181V4.11373C8.7732 3.82985 9.00068 3.59961 9.28178 3.59961C9.42232 3.59961 9.54992 3.65693 9.64146 3.75033C9.733 3.84373 9.79034 3.97133 9.79034 4.11373V4.98661L9.89574 5.01619C9.90408 5.01897 9.9124 5.02267 9.9198 5.02821C9.94568 5.04763 9.98266 5.07631 10.0298 5.11143C10.0668 5.14103 10.1066 5.17709 10.1547 5.21407C10.2499 5.29083 10.3636 5.38977 10.4885 5.50349C10.5217 5.53217 10.5541 5.56175 10.5837 5.59135C10.7446 5.74113 10.9249 5.91683 11.0969 6.11101C11.145 6.16555 11.1921 6.22103 11.2402 6.27929C11.2883 6.33847 11.3392 6.39673 11.3835 6.45499C11.4418 6.53265 11.5047 6.61309 11.5592 6.69725C11.5851 6.73701 11.6147 6.77769 11.6397 6.81745C11.7099 6.92379 11.7719 7.03383 11.8311 7.14385C11.856 7.19471 11.8819 7.25019 11.9041 7.30475C11.9698 7.45177 12.0216 7.60157 12.0548 7.75137C12.065 7.78373 12.0724 7.81887 12.0761 7.85031V7.85769C12.0872 7.90209 12.0909 7.94925 12.0946 7.99733C12.1094 8.15081 12.102 8.30431 12.0687 8.45873C12.0548 8.52439 12.0364 8.58633 12.0142 8.65199C11.992 8.71487 11.9698 8.78051 11.9411 8.84247C11.8856 8.97099 11.82 9.09953 11.7423 9.21973C11.7173 9.26411 11.6878 9.31127 11.6582 9.35565C11.6258 9.40281 11.5925 9.44721 11.5629 9.49067C11.5222 9.54615 11.4788 9.60439 11.4344 9.65617C11.3946 9.71073 11.3539 9.76529 11.3096 9.81337C11.2476 9.88641 11.1884 9.95577 11.1265 10.0223C11.0895 10.0658 11.0497 10.1102 11.009 10.1499C10.9693 10.1943 10.9286 10.2341 10.8916 10.2711C10.8297 10.333 10.7779 10.3811 10.7344 10.4209L10.6327 10.5143C10.6179 10.5272 10.5985 10.5346 10.5782 10.5346H9.79034V11.5453H10.7816C11.0035 11.5453 11.2143 11.4667 11.3845 11.3224C11.4427 11.2716 11.697 11.0515 11.9975 10.7195C12.0077 10.7084 12.0206 10.7001 12.0354 10.6964L14.7734 9.90491C14.8242 9.89011 14.876 9.92895 14.876 9.98259Z" stroke="none" fill="white"/>
</g>
<defs>
<clipPath id="clip0_1985_10134">
<rect width="18" height="18" fill="white"/>
</clipPath>
</defs>
</svg>
