<svg width="24" height="25" viewBox="0 0 24 25" xmlns="http://www.w3.org/2000/svg">
<path d="M9.05131 18.0584L15.0878 21.5436C15.102 21.5518 15.1201 21.5469 15.1283 21.5327C16.0633 19.9134 16.1812 17.9484 15.4467 16.2288L14.6592 14.3852C14.653 14.3708 14.654 14.3543 14.6618 14.3407L17.0661 10.1765C17.1201 10.0828 17.2032 10.0092 17.3027 9.96669L20.8278 8.46088C21.2068 8.29903 21.2383 7.77407 20.8814 7.56806L12.2212 2.56806C11.8644 2.36205 11.4255 2.65181 11.4748 3.06088L11.9333 6.86669C11.9462 6.9741 11.924 7.08281 11.8699 7.1765L9.46567 11.3407C9.45784 11.3543 9.44409 11.3634 9.42854 11.3653L7.4381 11.6051C5.58168 11.8287 3.93891 12.9134 3.00398 14.5327C2.99578 14.5469 3.00065 14.5651 3.01486 14.5733L9.05131 18.0584ZM9.05131 18.0584L6.55131 22.3886" fill="none" stroke-width="1.5" stroke-linecap="round"/>
</svg>
