<svg width="24" height="25" viewBox="0 0 24 25" xmlns="http://www.w3.org/2000/svg">
<path fill-rule="evenodd" clip-rule="evenodd" d="M8.75 10.5C8.75 8.70507 10.2051 7.25 12 7.25C13.7949 7.25 15.25 8.70507 15.25 10.5C15.25 12.2949 13.7949 13.75 12 13.75C10.2051 13.75 8.75 12.2949 8.75 10.5ZM12 5.75C9.37665 5.75 7.25 7.87665 7.25 10.5C7.25 12.3642 8.32385 13.9775 9.88671 14.7552C7.61569 15.325 6 16.7867 6 18.5C6 20.7091 8.68629 22.5 12 22.5C15.3137 22.5 18 20.7091 18 18.5C18 16.7867 16.3843 15.325 14.1133 14.7552C15.6761 13.9775 16.75 12.3642 16.75 10.5C16.75 7.87665 14.6234 5.75 12 5.75ZM16.5 18.5C16.5 18.947 16.2282 19.5353 15.4106 20.0804C14.6035 20.6184 13.402 21 12 21C10.598 21 9.39654 20.6184 8.58941 20.0804C7.7718 19.5353 7.5 18.947 7.5 18.5C7.5 18.053 7.7718 17.4647 8.58941 16.9196C9.39654 16.3816 10.598 16 12 16C13.402 16 14.6035 16.3816 15.4106 16.9196C16.2282 17.4647 16.5 18.053 16.5 18.5Z" stroke="none" />
<circle cx="12" cy="12.5" r="9.25" stroke-width="1.5" fill="none"/>
</svg>
