<svg width="24" height="25" viewBox="0 0 24 25" xmlns="http://www.w3.org/2000/svg">
<g clip-path="url(#clip0_3698_17840)">
<path fill-rule="evenodd" clip-rule="evenodd" d="M10 11.75C8.48122 11.75 7.25 12.9812 7.25 14.5V18.5C7.25 20.0188 8.48122 21.25 10 21.25H14C15.5188 21.25 16.75 20.0188 16.75 18.5V14.5C16.75 12.9812 15.5188 11.75 14 11.75H10ZM8.75 14.5C8.75 13.8096 9.30964 13.25 10 13.25H14C14.6904 13.25 15.25 13.8096 15.25 14.5V18.5C15.25 19.1904 14.6904 19.75 14 19.75H10C9.30964 19.75 8.75 19.1904 8.75 18.5V14.5Z" stroke="none"/>
<path fill-rule="evenodd" clip-rule="evenodd" d="M13.3109 4.21642C12.6144 3.42819 11.3848 3.42819 10.6882 4.21642L3.5075 12.3422C2.5092 13.4719 3.31126 15.251 4.81885 15.251H5.99995V13.751H4.81885C4.60348 13.751 4.4889 13.4969 4.63151 13.3355L11.8122 5.2097C11.9117 5.09709 12.0874 5.09709 12.1869 5.2097L19.3676 13.3355C19.5102 13.4969 19.3957 13.751 19.1803 13.751H18V15.251H19.1803C20.6879 15.251 21.4899 13.4719 20.4916 12.3422L13.3109 4.21642Z" stroke="none"/>
</g>
<defs>
<clipPath id="clip0_3698_17840">
<rect width="24" height="24" fill="white" transform="translate(0 0.5)"/>
</clipPath>
</defs>
</svg>
