<svg width="24" height="25" viewBox="0 0 24 25" xmlns="http://www.w3.org/2000/svg">
<path d="M17.6567 4V8.15685C17.6567 8.433 17.4329 8.65685 17.1567 8.65685L12.9999 8.65685" fill="none" stroke-width="1.5" stroke-linecap="round"/>
<path d="M19 12.5C19 14.1364 18.4267 15.7211 17.3797 16.9788C16.3326 18.2364 14.8781 19.0875 13.2688 19.3841C11.6594 19.6807 9.99706 19.4041 8.57049 18.6023C7.14391 17.8006 6.04331 16.5244 5.45993 14.9955C4.87655 13.4666 4.84725 11.7816 5.37714 10.2333C5.90703 8.68508 6.9626 7.3714 8.36045 6.52056C9.75829 5.66973 11.4101 5.33551 13.0287 5.576C14.6474 5.81649 16.4099 7.27952 17.5 8.5" fill="none" stroke-width="1.5" stroke-linecap="round"/>
</svg>
