<svg width="24" height="25" viewBox="0 0 24 25" xmlns="http://www.w3.org/2000/svg">
<g clip-path="url(#clip0_3698_17855)">
<rect x="10" y="10.5" width="4" height="4" rx="1" stroke="none"/>
<path fill-rule="evenodd" clip-rule="evenodd" d="M12 5.07604L5.5 8.79456V16.2079L12 19.9264L18.5 16.2079V8.79456L12 5.07604ZM12.4966 3.632C12.1889 3.456 11.8111 3.456 11.5034 3.632L4.50343 7.63656C4.1921 7.81467 4 8.14588 4 8.50456V16.4979C4 16.8565 4.1921 17.1878 4.50343 17.3659L11.5034 21.3704C11.8111 21.5464 12.1889 21.5464 12.4966 21.3704L19.4965 17.3659C19.8079 17.1878 20 16.8565 20 16.4979V8.50456C20 8.14588 19.8079 7.81467 19.4965 7.63656L12.4966 3.632Z" stroke="none"/>
</g>
<defs>
<clipPath id="clip0_3698_17855">
<rect width="24" height="24" fill="white" transform="translate(0 0.5)"/>
</clipPath>
</defs>
</svg>
