<svg width="24" height="25" viewBox="0 0 24 25" xmlns="http://www.w3.org/2000/svg">
<path fill-rule="evenodd" clip-rule="evenodd" d="M16.5 11.5C16.5 14.8137 13.8137 17.5 10.5 17.5C7.18629 17.5 4.5 14.8137 4.5 11.5C4.5 8.18629 7.18629 5.5 10.5 5.5C13.8137 5.5 16.5 8.18629 16.5 11.5ZM15.2465 17.3072C13.9536 18.3652 12.301 19 10.5 19C6.35786 19 3 15.6421 3 11.5C3 7.35786 6.35786 4 10.5 4C14.6421 4 18 7.35786 18 11.5C18 13.301 17.3652 14.9536 16.3072 16.2465L20.5303 20.4697C20.8232 20.7626 20.8232 21.2374 20.5303 21.5303C20.2374 21.8232 19.7626 21.8232 19.4697 21.5303L15.2465 17.3072Z" stroke="none"/>
</svg>
