<svg width="24" height="25" viewBox="0 0 24 25" xmlns="http://www.w3.org/2000/svg">
<circle cx="12" cy="12.5" r="4.25" fill="none" stroke-width="1.5"/>
<path d="M11.4393 3.25965C11.7377 2.92399 12.2621 2.92398 12.5605 3.25965L14.9584 5.95757C15.2807 6.32012 15.7115 6.56883 16.1866 6.66662L19.722 7.39435C20.1619 7.48489 20.4241 7.93909 20.2826 8.3653L19.1451 11.791C18.9922 12.2513 18.9922 12.7487 19.1451 13.209L20.2826 16.6347C20.4241 17.0609 20.1619 17.5151 19.722 17.6056L16.1866 18.3334C15.7115 18.4312 15.2807 18.6799 14.9584 19.0424L12.5605 21.7403C12.2621 22.076 11.7377 22.076 11.4393 21.7403L9.04138 19.0424C8.71914 18.6799 8.28837 18.4312 7.81327 18.3334L4.27782 17.6056C3.83796 17.5151 3.57572 17.0609 3.71725 16.6347L4.85474 13.209C5.0076 12.7487 5.00759 12.2513 4.85474 11.791L3.71725 8.3653C3.57572 7.93909 3.83796 7.48489 4.27783 7.39435L7.81327 6.66662C8.28837 6.56883 8.71914 6.32012 9.04138 5.95757L11.4393 3.25965Z" fill="none" stroke-width="1.5"/>
</svg>
