<svg width="24" height="25" viewBox="0 0 24 25" xmlns="http://www.w3.org/2000/svg">
<path fill-rule="evenodd" clip-rule="evenodd" d="M18 8C18.8284 8 19.5 7.32843 19.5 6.5C19.5 5.67157 18.8284 5 18 5C17.1716 5 16.5 5.67157 16.5 6.5C16.5 7.32843 17.1716 8 18 8ZM18 9.5C19.6569 9.5 21 8.15685 21 6.5C21 4.84315 19.6569 3.5 18 3.5C16.3431 3.5 15 4.84315 15 6.5C15 6.88363 15.072 7.25045 15.2032 7.58766L8.72064 11.2341C8.24327 10.2099 7.20454 9.5 6 9.5C4.34315 9.5 3 10.8431 3 12.5C3 14.1569 4.34315 15.5 6 15.5C7.20454 15.5 8.24327 14.7901 8.72064 13.7659L15.2032 17.4123C15.072 17.7496 15 18.1164 15 18.5C15 20.1569 16.3431 21.5 18 21.5C19.6569 21.5 21 20.1569 21 18.5C21 16.8431 19.6569 15.5 18 15.5C17.2731 15.5 16.6066 15.7585 16.0874 16.1886L9.5298 12.5L16.0874 8.81136C16.6066 9.24148 17.2731 9.5 18 9.5ZM7.5 12.5C7.5 13.3284 6.82843 14 6 14C5.17157 14 4.5 13.3284 4.5 12.5C4.5 11.6716 5.17157 11 6 11C6.82843 11 7.5 11.6716 7.5 12.5ZM19.5 18.5C19.5 19.3284 18.8284 20 18 20C17.1716 20 16.5 19.3284 16.5 18.5C16.5 17.6716 17.1716 17 18 17C18.8284 17 19.5 17.6716 19.5 18.5Z" stroke="none"/>
</svg>
