<svg width="24" height="25" viewBox="0 0 24 25" xmlns="http://www.w3.org/2000/svg">
<path d="M17.3394 5.5H6.66065C5.94293 5.5 5.28024 5.88457 4.92416 6.50772L4.19621 7.78163C3.77837 8.51286 3.86337 9.4275 4.40882 10.0692L10.4761 17.2072C11.2748 18.1468 12.7252 18.1468 13.5239 17.2072L19.5912 10.0692C20.1366 9.4275 20.2216 8.51286 19.8038 7.78163L19.0758 6.50772C18.7198 5.88457 18.0571 5.5 17.3394 5.5Z" fill="none" stroke-width="1.5"/>
<path d="M8.2773 8.75736L11.6707 5.7881C11.8593 5.62315 12.1407 5.62315 12.3293 5.7881L15.7227 8.75736C15.8876 8.90165 15.9393 9.13649 15.8503 9.33672L12.4569 16.972C12.2809 17.3679 11.7191 17.3679 11.5431 16.972L8.14965 9.33672C8.06066 9.13649 8.11241 8.90165 8.2773 8.75736Z" fill="none" stroke-width="1.5"/>
</svg>
