<svg width="24" height="25" viewBox="0 0 24 25" xmlns="http://www.w3.org/2000/svg">
<path d="M19.9441 8.42641C19.9568 8.60406 19.9568 8.78176 19.9568 8.95941C19.9568 14.3782 15.8325 20.6218 8.29441 20.6218C5.97207 20.6218 3.81473 19.9492 2 18.7818C2.32996 18.8198 2.64719 18.8325 2.98984 18.8325C4.90605 18.8325 6.67004 18.1853 8.07867 17.0813C6.27664 17.0432 4.76648 15.863 4.24617 14.2386C4.5 14.2766 4.75379 14.302 5.02031 14.302C5.38832 14.302 5.75637 14.2513 6.09898 14.1625C4.22082 13.7817 2.81215 12.132 2.81215 10.1396V10.0889C3.35781 10.3934 3.99238 10.5838 4.66492 10.6091C3.56086 9.87309 2.83754 8.61676 2.83754 7.19543C2.83754 6.43402 3.04055 5.73606 3.3959 5.12692C5.41367 7.61422 8.44668 9.23856 11.8477 9.41625C11.7842 9.11168 11.7461 8.79445 11.7461 8.47719C11.7461 6.21828 13.5736 4.3782 15.8451 4.3782C17.0253 4.3782 18.0913 4.87313 18.84 5.67262C19.7664 5.49496 20.6547 5.15231 21.4416 4.68277C21.137 5.63457 20.4898 6.43406 19.6395 6.94164C20.4644 6.85285 21.2639 6.62438 21.9999 6.30715C21.4416 7.1193 20.7436 7.84262 19.9441 8.42641Z" stroke="none"/>
</svg>
