<svg width="24" height="25" viewBox="0 0 24 25" xmlns="http://www.w3.org/2000/svg">
<mask id="path-1-outside-1_2510_16496" maskUnits="userSpaceOnUse" x="3" y="3.1106" width="17" height="19" stroke="none">
<rect fill="white" x="3" y="3.1106" width="17" height="19"/>
<path fill-rule="evenodd" clip-rule="evenodd" d="M5.29289 10.5618C4.90237 10.9523 4.90237 11.5855 5.29289 11.976C5.68342 12.3665 6.31658 12.3665 6.70711 11.976L10.8227 7.86041L10.8227 19.3068C10.8227 19.7507 11.1825 20.1106 11.6265 20.1106C12.0704 20.1106 12.4303 19.7507 12.4303 19.3068L12.4303 7.86016L16.5461 11.976C16.9366 12.3665 17.5698 12.3665 17.9603 11.976C18.3508 11.5855 18.3508 10.9523 17.9603 10.5618L12.3337 4.93517C11.9432 4.54464 11.31 4.54464 10.9195 4.93517L5.29289 10.5618Z"/>
</mask>
<path d="M5.29289 11.976L6.35355 10.9153L6.35355 10.9153L5.29289 11.976ZM5.29289 10.5618L6.35355 11.6224L6.35355 11.6224L5.29289 10.5618ZM6.70711 11.976L7.76777 13.0366L6.70711 11.976ZM10.8227 7.86041L12.3227 7.86041L12.3227 4.23909L9.76202 6.79975L10.8227 7.86041ZM10.8227 19.3068L9.32268 19.3068L10.8227 19.3068ZM12.4303 19.3068L10.9303 19.3068L12.4303 19.3068ZM12.4303 7.86016L13.4909 6.7995L10.9303 4.23884L10.9303 7.86016L12.4303 7.86016ZM16.5461 11.976L15.4854 13.0366L15.4854 13.0366L16.5461 11.976ZM17.9603 11.976L19.021 13.0366L19.021 13.0366L17.9603 11.976ZM17.9603 10.5618L16.8996 11.6224L17.9603 10.5618ZM12.3337 4.93517L13.3944 3.87451L13.3944 3.87451L12.3337 4.93517ZM10.9195 4.93517L9.85883 3.87451L9.85883 3.87451L10.9195 4.93517ZM6.35355 10.9153C6.54882 11.1106 6.54882 11.4272 6.35355 11.6224L4.23223 9.50111C3.25592 10.4774 3.25592 12.0603 4.23223 13.0366L6.35355 10.9153ZM5.64645 10.9153C5.84171 10.7201 6.15829 10.7201 6.35355 10.9153L4.23223 13.0366C5.20854 14.013 6.79146 14.013 7.76777 13.0366L5.64645 10.9153ZM9.76202 6.79975L5.64645 10.9153L7.76777 13.0366L11.8833 8.92107L9.76202 6.79975ZM12.3227 19.3068L12.3227 7.86041L9.32268 7.86041L9.32268 19.3068L12.3227 19.3068ZM11.6265 18.6106C12.011 18.6106 12.3227 18.9223 12.3227 19.3068L9.32268 19.3068C9.32268 20.5791 10.3541 21.6106 11.6265 21.6106L11.6265 18.6106ZM10.9303 19.3068C10.9303 18.9223 11.242 18.6106 11.6265 18.6106L11.6265 21.6106C12.8988 21.6106 13.9303 20.5792 13.9303 19.3068L10.9303 19.3068ZM10.9303 7.86016L10.9303 19.3068L13.9303 19.3068L13.9303 7.86016L10.9303 7.86016ZM17.6068 10.9153L13.4909 6.7995L11.3696 8.92082L15.4854 13.0366L17.6068 10.9153ZM16.8996 10.9153C17.0949 10.7201 17.4115 10.7201 17.6068 10.9153L15.4854 13.0366C16.4617 14.013 18.0447 14.013 19.021 13.0366L16.8996 10.9153ZM16.8996 11.6224C16.7044 11.4272 16.7044 11.1106 16.8996 10.9153L19.021 13.0366C19.9973 12.0603 19.9973 10.4774 19.021 9.50111L16.8996 11.6224ZM11.273 5.99583L16.8996 11.6224L19.021 9.50111L13.3944 3.87451L11.273 5.99583ZM11.9802 5.99583C11.7849 6.19109 11.4683 6.19109 11.273 5.99583L13.3944 3.87451C12.4181 2.8982 10.8351 2.8982 9.85883 3.87451L11.9802 5.99583ZM6.35355 11.6224L11.9802 5.99583L9.85883 3.87451L4.23223 9.50111L6.35355 11.6224Z" stroke="none" mask="url(#path-1-outside-1_2510_16496)"/>
</svg>
