<svg width="24" height="25" viewBox="0 0 24 25" xmlns="http://www.w3.org/2000/svg">
<g clip-path="url(#clip0_2900_16763)">
<path d="M12 22.5C17.5229 22.5 22 18.0229 22 12.5C22 6.97715 17.5229 2.5 12 2.5C6.47715 2.5 2 6.97715 2 12.5C2 18.0229 6.47715 22.5 12 22.5Z" stroke="none" fill="#2775CA"/>
<path d="M14.3393 13.4094C14.3393 12.1268 13.5744 11.6871 12.0446 11.5039C10.9519 11.3573 10.7333 11.0642 10.7333 10.551C10.7333 10.0379 11.0976 9.70818 11.826 9.70818C12.4816 9.70818 12.8459 9.92811 13.028 10.4778C13.0645 10.5877 13.1738 10.661 13.283 10.661H13.8657C14.0114 10.661 14.1207 10.551 14.1207 10.4045V10.3678C13.975 9.56158 13.3194 8.93865 12.4816 8.86538V7.98586C12.4816 7.83924 12.3724 7.7293 12.1903 7.69263H11.644C11.4982 7.69263 11.389 7.80257 11.3525 7.98586V8.82869C10.2598 8.97531 9.56783 9.70818 9.56783 10.6244C9.56783 11.8337 10.2962 12.31 11.826 12.4934C12.8459 12.6766 13.1738 12.8964 13.1738 13.4828C13.1738 14.0692 12.6638 14.4722 11.9718 14.4722C11.0247 14.4722 10.6969 14.0691 10.5876 13.5194C10.5512 13.3728 10.442 13.2995 10.3327 13.2995H9.71343C9.56783 13.2995 9.4585 13.4094 9.4585 13.556V13.5928C9.60416 14.5088 10.187 15.1685 11.389 15.3518V16.2313C11.389 16.3778 11.4982 16.4878 11.6803 16.5244H12.2267C12.3724 16.5244 12.4816 16.4145 12.5181 16.2313V15.3518C13.6108 15.1685 14.3393 14.3989 14.3393 13.4094Z" stroke="none" fill="white"/>
<path d="M10.0648 17.292C7.21481 16.267 5.75323 13.082 6.81291 10.263C7.36099 8.72543 8.56677 7.55397 10.0648 7.00483C10.211 6.93165 10.284 6.82182 10.284 6.63871V6.12621C10.284 5.97975 10.211 5.86993 10.0648 5.83337C10.0282 5.83337 9.95523 5.83337 9.91863 5.86993C6.4475 6.96819 4.54746 10.6658 5.64362 14.1436C6.30131 16.1936 7.8725 17.7679 9.91863 18.4268C10.0648 18.5 10.211 18.4268 10.2475 18.2804C10.284 18.2438 10.284 18.2072 10.284 18.134V17.6214C10.284 17.5116 10.1744 17.3652 10.0648 17.292ZM13.938 5.86993C13.7918 5.79673 13.6456 5.86993 13.6091 6.01639C13.5726 6.05303 13.5726 6.08958 13.5726 6.16285V6.67535C13.5726 6.82182 13.6822 6.96819 13.7918 7.04147C16.6418 8.06647 18.1034 11.2514 17.0437 14.0704C16.4956 15.608 15.2898 16.7794 13.7918 17.3286C13.6456 17.4018 13.5726 17.5116 13.5726 17.6947V18.2072C13.5726 18.3536 13.6456 18.4635 13.7918 18.5C13.8284 18.5 13.9014 18.5 13.938 18.4635C17.4091 17.3652 19.3092 13.6676 18.213 10.1898C17.5553 8.10311 15.9475 6.52889 13.938 5.86993Z" stroke="none" fill="white"/>
</g>
<defs>
<clipPath id="clip0_2900_16763">
<rect width="20" height="20" fill="white" transform="translate(2 2.5)"/>
</clipPath>
</defs>
</svg>
