<svg width="24" height="25" viewBox="0 0 24 25" xmlns="http://www.w3.org/2000/svg">
<path d="M10.8693 3.27457C11.5507 2.80773 12.4489 2.80773 13.1303 3.27457L14.1712 3.9878C14.4886 4.20525 14.8619 4.32656 15.2465 4.33718L16.5078 4.372C17.3334 4.3948 18.0601 4.92277 18.3369 5.70094L18.7598 6.8898C18.8888 7.25226 19.1195 7.56984 19.4244 7.80447L20.4244 8.57405C21.0789 9.07778 21.3565 9.93206 21.123 10.7243L20.7664 11.9347C20.6576 12.3037 20.6576 12.6963 20.7664 13.0653L21.123 14.2757C21.3565 15.0679 21.0789 15.9222 20.4244 16.4259L19.4244 17.1955C19.1195 17.4302 18.8888 17.7477 18.7598 18.1102L18.3369 19.299C18.0601 20.0772 17.3334 20.6052 16.5078 20.628L15.2465 20.6628C14.8619 20.6734 14.4886 20.7947 14.1712 21.0122L13.1303 21.7254C12.4489 22.1923 11.5507 22.1923 10.8693 21.7254L9.82842 21.0122C9.51106 20.7947 9.13772 20.6734 8.75316 20.6628L7.49181 20.628C6.66618 20.6052 5.93949 20.0772 5.66268 19.299L5.23978 18.1102C5.11084 17.7477 4.88011 17.4302 4.57523 17.1955L3.57525 16.4259C2.9207 15.9222 2.64313 15.0679 2.87658 14.2757L3.23324 13.0653C3.34198 12.6963 3.34198 12.3037 3.23324 11.9347L2.87658 10.7243C2.64313 9.93206 2.9207 9.07778 3.57525 8.57405L4.57523 7.80447C4.88011 7.56984 5.11084 7.25226 5.23978 6.8898L5.66268 5.70094C5.93949 4.92277 6.66618 4.3948 7.49181 4.372L8.75316 4.33718C9.13772 4.32656 9.51106 4.20525 9.82842 3.9878L10.8693 3.27457Z" stroke="none"/>
<path fill-rule="evenodd" clip-rule="evenodd" d="M8.4714 12.6855C8.21106 12.9458 8.21105 13.3679 8.4714 13.6283L9.88562 15.0425C9.88819 15.0451 9.89078 15.0476 9.89337 15.0502L10.8284 15.9852L11.7646 15.0491C11.7668 15.0469 11.769 15.0447 11.7712 15.0425L11.7712 15.0425L16.0139 10.7998C16.2742 10.5394 16.2742 10.1173 16.0139 9.85698C15.7535 9.59663 15.3314 9.59663 15.0711 9.85698L10.8284 14.0996L9.41421 12.6855C9.15386 12.4251 8.73175 12.4251 8.4714 12.6855Z" stroke="none" fill="white"/>
</svg>
