<svg width="24" height="25" viewBox="0 0 24 25" xmlns="http://www.w3.org/2000/svg">
<path fill-rule="evenodd" clip-rule="evenodd" d="M17.4222 9.51893C18.6353 10.585 19.5916 11.7437 20.1619 12.5C19.5916 13.2563 18.6353 14.415 17.4222 15.4811C15.7844 16.9205 13.8954 18 12.0001 18C10.1047 18 8.21579 16.9205 6.5779 15.4811C5.36482 14.415 4.40859 13.2563 3.83824 12.5C4.40859 11.7437 5.36482 10.585 6.5779 9.51893C8.21579 8.07955 10.1047 7 12.0001 7C13.8954 7 15.7844 8.07955 17.4222 9.51893ZM21.8238 12.238C21.9347 12.3983 21.9347 12.6017 21.8238 12.762C20.9446 14.0335 16.8806 19.5 12.0001 19.5C7.11952 19.5 3.05559 14.0335 2.17634 12.762C2.06545 12.6017 2.06545 12.3983 2.17634 12.238C3.05559 10.9665 7.11952 5.5 12.0001 5.5C16.8806 5.5 20.9446 10.9665 21.8238 12.238ZM12.0001 15C13.3808 15 14.5001 13.8807 14.5001 12.5C14.5001 11.1193 13.3808 10 12.0001 10C11.878 10 11.758 10.0087 11.6406 10.0257C11.8647 10.2878 12.0001 10.6281 12.0001 11C12.0001 11.8284 11.3285 12.5 10.5001 12.5C10.1282 12.5 9.78785 12.3646 9.52573 12.1405C9.50882 12.2579 9.50007 12.3779 9.50007 12.5C9.50007 13.8807 10.6194 15 12.0001 15ZM12.0001 16.5C14.2092 16.5 16.0001 14.7091 16.0001 12.5C16.0001 10.2909 14.2092 8.5 12.0001 8.5C9.79094 8.5 8.00007 10.2909 8.00007 12.5C8.00007 14.7091 9.79094 16.5 12.0001 16.5Z" stroke="none"/>
</svg>
