<svg width="24" height="25" viewBox="0 0 24 25" xmlns="http://www.w3.org/2000/svg">
<path fill-rule="evenodd" clip-rule="evenodd" d="M6 6H18C19.0252 6 19.9062 6.61705 20.292 7.5H17C14.2386 7.5 12 9.73858 12 12.5C12 15.2614 14.2386 17.5 17 17.5H20.292C19.9062 18.383 19.0252 19 18 19H6C4.61929 19 3.5 17.8807 3.5 16.5V8.5C3.5 7.11929 4.61929 6 6 6ZM20.5 16V9H17C15.067 9 13.5 10.567 13.5 12.5C13.5 14.433 15.067 16 17 16H20.5ZM21.9963 16.6734C21.9055 18.8021 20.1511 20.5 18 20.5H6C3.79086 20.5 2 18.7091 2 16.5V8.5C2 6.29086 3.79086 4.5 6 4.5H18C20.1511 4.5 21.9055 6.19792 21.9963 8.32663C21.9988 8.35379 22 8.38129 22 8.40909V8.5V16.5V16.5909C22 16.6187 21.9988 16.6462 21.9963 16.6734Z" stroke="none"/>
<circle cx="18" cy="12.5" r="1.5" stroke="none"/>
</svg>
