<svg width="24" height="25" viewBox="0 0 24 25" xmlns="http://www.w3.org/2000/svg">
<path fill-rule="evenodd" clip-rule="evenodd" d="M20.5 12.5C20.5 13.4051 20.3585 14.2772 20.0965 15.0953C18.6696 15.2378 17.2399 15.3425 15.8089 15.4094C15.933 14.4925 16 13.5148 16 12.5C16 11.4852 15.933 10.5075 15.8089 9.59059C17.2399 9.65754 18.6696 9.76225 20.0965 9.90471C20.3585 10.7228 20.5 11.5949 20.5 12.5ZM14.2857 9.53359C14.4229 10.448 14.5 11.4463 14.5 12.5C14.5 13.5537 14.4229 14.552 14.2857 15.4664C12.7622 15.5092 11.2378 15.5092 9.71433 15.4664C9.57713 14.552 9.5 13.5537 9.5 12.5C9.5 11.4463 9.57713 10.448 9.71433 9.53359C11.2378 9.49085 12.7622 9.49085 14.2857 9.53359ZM15.5413 8.07851C16.8335 8.13471 18.1247 8.22169 19.4139 8.33945C18.2676 6.30116 16.305 4.78338 13.9694 4.22931C14.636 5.12664 15.1835 6.46548 15.5413 8.07851ZM10.0306 4.22931C7.695 4.78338 5.73244 6.30116 4.58612 8.33945C5.87525 8.22169 7.16649 8.13471 8.45873 8.07851C8.81651 6.46548 9.36396 5.12664 10.0306 4.22931ZM10.0121 8.02578C10.166 7.40907 10.3492 6.85108 10.554 6.36457C10.8699 5.61448 11.2076 5.10463 11.5061 4.80481C11.7988 4.51071 11.9645 4.5 12 4.5C12.0355 4.5 12.2012 4.51071 12.4939 4.80481C12.7924 5.10463 13.1301 5.61448 13.446 6.36457C13.6508 6.85108 13.834 7.40907 13.9879 8.02578C12.6628 7.99345 11.3372 7.99345 10.0121 8.02578ZM8.19107 9.59059C6.76005 9.65754 5.33037 9.76225 3.9035 9.90471C3.64147 10.7228 3.5 11.5949 3.5 12.5C3.5 13.4051 3.64147 14.2772 3.9035 15.0953C5.33037 15.2378 6.76005 15.3425 8.19107 15.4094C8.067 14.4925 8 13.5148 8 12.5C8 11.4852 8.067 10.5075 8.19107 9.59059ZM8.45873 16.9215C7.16649 16.8653 5.87525 16.7783 4.58612 16.6605C5.73244 18.6988 7.695 20.2166 10.0306 20.7707C9.36396 19.8734 8.81651 18.5345 8.45873 16.9215ZM13.9694 20.7707C16.305 20.2166 18.2676 18.6988 19.4139 16.6605C18.1247 16.7783 16.8335 16.8653 15.5413 16.9215C15.1835 18.5345 14.636 19.8734 13.9694 20.7707ZM13.9879 16.9742C12.6628 17.0065 11.3372 17.0065 10.0121 16.9742C10.166 17.5909 10.3492 18.1489 10.554 18.6354C10.8699 19.3855 11.2076 19.8954 11.5061 20.1952C11.7988 20.4893 11.9645 20.5 12 20.5C12.0355 20.5 12.2012 20.4893 12.4939 20.1952C12.7924 19.8954 13.1301 19.3855 13.446 18.6354C13.6508 18.1489 13.834 17.5909 13.9879 16.9742ZM22 12.5C22 18.0228 17.5228 22.5 12 22.5C6.47715 22.5 2 18.0228 2 12.5C2 6.97715 6.47715 2.5 12 2.5C17.5228 2.5 22 6.97715 22 12.5Z" stroke="none"/>
</svg>
