<svg width="19" height="18" viewBox="0 0 19 18" xmlns="http://www.w3.org/2000/svg">
<path d="M16.7223 3.52804C15.3433 2.18049 13.4568 1.35 11.3763 1.35C7.15132 1.35 3.72629 4.77503 3.72629 9C3.72629 13.225 7.15132 16.65 11.3763 16.65C13.4567 16.65 15.3433 15.8195 16.7223 14.472C15.0773 16.617 12.4883 18 9.57629 18C4.60573 18 0.576294 13.9706 0.576294 9C0.576294 4.02943 4.60573 0 9.57629 0C12.4883 0 15.0773 1.38301 16.7223 3.52804Z" stroke="none" fill="url(#paint0_linear_1985_10145)"/>
<path d="M5.65942 13.3774C6.7627 14.4554 8.27188 15.1198 9.93625 15.1198C13.3162 15.1198 16.0563 12.3798 16.0563 8.9998C16.0563 5.61981 13.3162 2.8798 9.93625 2.8798C8.27188 2.8798 6.7627 3.54419 5.65942 4.62222C6.97543 2.90621 9.04662 1.7998 11.3763 1.7998C15.3527 1.7998 18.5763 5.02335 18.5763 8.9998C18.5763 12.9763 15.3527 16.1998 11.3763 16.1998C9.04662 16.1998 6.97543 15.0934 5.65942 13.3774Z" stroke="none" fill="url(#paint1_linear_1985_10145)"/>
<path fill-rule="evenodd" clip-rule="evenodd" d="M14.9762 9.00059C14.9762 11.9829 12.5585 14.4006 9.57621 14.4006C6.59387 14.4006 4.17621 11.9829 4.17621 9.00059C4.17621 6.01825 6.59387 3.60059 9.57621 3.60059C12.5585 3.60059 14.9762 6.01825 14.9762 9.00059ZM13.1762 9.00059C13.1762 10.9888 11.5644 12.6006 9.57621 12.6006C7.58798 12.6006 5.97621 10.9888 5.97621 9.00059C5.97621 7.01236 7.58798 5.40059 9.57621 5.40059C11.5644 5.40059 13.1762 7.01236 13.1762 9.00059Z" stroke="none" fill="url(#paint2_linear_1985_10145)"/>
<defs>
<linearGradient id="paint0_linear_1985_10145" x1="0.576294" y1="8.68964" x2="18.5763" y2="8.68964" gradientUnits="userSpaceOnUse">
<stop stop-color="#00E0FF"/>
<stop offset="1" stop-color="#562EC8"/>
</linearGradient>
<linearGradient id="paint1_linear_1985_10145" x1="0.576253" y1="8.68944" x2="18.5763" y2="8.68944" gradientUnits="userSpaceOnUse">
<stop stop-color="#00E0FF"/>
<stop offset="1" stop-color="#562EC8"/>
</linearGradient>
<linearGradient id="paint2_linear_1985_10145" x1="0.576209" y1="8.69023" x2="18.5762" y2="8.69023" gradientUnits="userSpaceOnUse">
<stop stop-color="#00E0FF"/>
<stop offset="1" stop-color="#562EC8"/>
</linearGradient>
</defs>
</svg>
