<svg width="1367" height="230" viewBox="0 0 1367 230" fill="none" xmlns="http://www.w3.org/2000/svg">
<path d="M34 201.5H1367" stroke="#F0F0F0"/>
<path d="M34 201.5H1367" stroke="#F0F0F0"/>
<path d="M33 6V201" stroke="#F0F0F0"/>
<path d="M19.9941 196.211C21.2611 196.211 22.1771 196.733 22.7422 197.776C23.1797 198.583 23.3984 199.688 23.3984 201.092C23.3984 202.423 23.2002 203.523 22.8037 204.394C22.2295 205.642 21.2907 206.267 19.9873 206.267C18.8115 206.267 17.9365 205.756 17.3623 204.735C16.8838 203.883 16.6445 202.739 16.6445 201.304C16.6445 200.192 16.7881 199.237 17.0752 198.439C17.613 196.954 18.5859 196.211 19.9941 196.211ZM19.9805 205.146C20.6185 205.146 21.1266 204.863 21.5049 204.298C21.8831 203.733 22.0723 202.68 22.0723 201.14C22.0723 200.028 21.9355 199.114 21.6621 198.398C21.3887 197.678 20.8577 197.318 20.0693 197.318C19.3447 197.318 18.8138 197.66 18.4766 198.344C18.1439 199.023 17.9775 200.025 17.9775 201.352C17.9775 202.35 18.0846 203.152 18.2988 203.758C18.627 204.683 19.1875 205.146 19.9805 205.146Z" fill="#A3A3A3"/>
<path d="M66.8584 217.17C67.9521 217.17 68.7132 217.455 69.1416 218.024C69.5745 218.59 69.791 219.173 69.791 219.774H68.5742C68.5013 219.387 68.3851 219.084 68.2256 218.865C67.9294 218.455 67.4805 218.25 66.8789 218.25C66.1908 218.25 65.6439 218.569 65.2383 219.207C64.8327 219.84 64.6071 220.75 64.5615 221.935C64.8441 221.52 65.1995 221.21 65.6279 221.005C66.0199 220.823 66.4574 220.731 66.9404 220.731C67.7607 220.731 68.4762 220.993 69.0869 221.518C69.6976 222.042 70.0029 222.823 70.0029 223.862C70.0029 224.751 69.7135 225.539 69.1348 226.228C68.556 226.911 67.7311 227.253 66.6602 227.253C65.7441 227.253 64.9535 226.907 64.2881 226.214C63.6227 225.517 63.29 224.345 63.29 222.7C63.29 221.483 63.4382 220.451 63.7344 219.604C64.304 217.981 65.3454 217.17 66.8584 217.17ZM66.7695 226.159C67.4167 226.159 67.8997 225.943 68.2188 225.51C68.5423 225.072 68.7041 224.557 68.7041 223.965C68.7041 223.464 68.5605 222.987 68.2734 222.536C67.9863 222.08 67.4645 221.853 66.708 221.853C66.1794 221.853 65.7145 222.028 65.3135 222.379C64.917 222.73 64.7188 223.258 64.7188 223.965C64.7188 224.585 64.8988 225.106 65.2588 225.53C65.6234 225.95 66.127 226.159 66.7695 226.159ZM73.7422 216.958H74.7812L71.5957 227H70.5566L73.7422 216.958ZM75.793 220.068V219.125C76.6816 219.038 77.3014 218.895 77.6523 218.694C78.0033 218.489 78.2653 218.008 78.4385 217.252H79.4092V227H78.0967V220.068H75.793ZM82.5469 220.068V219.125C83.4355 219.038 84.0553 218.895 84.4062 218.694C84.7572 218.489 85.0192 218.008 85.1924 217.252H86.1631V227H84.8506V220.068H82.5469Z" fill="#A3A3A3"/>
<path d="M208.819 217.17C209.913 217.17 210.674 217.455 211.103 218.024C211.535 218.59 211.752 219.173 211.752 219.774H210.535C210.462 219.387 210.346 219.084 210.187 218.865C209.89 218.455 209.441 218.25 208.84 218.25C208.152 218.25 207.605 218.569 207.199 219.207C206.794 219.84 206.568 220.75 206.522 221.935C206.805 221.52 207.16 221.21 207.589 221.005C207.981 220.823 208.418 220.731 208.901 220.731C209.722 220.731 210.437 220.993 211.048 221.518C211.659 222.042 211.964 222.823 211.964 223.862C211.964 224.751 211.674 225.539 211.096 226.228C210.517 226.911 209.692 227.253 208.621 227.253C207.705 227.253 206.914 226.907 206.249 226.214C205.584 225.517 205.251 224.345 205.251 222.7C205.251 221.483 205.399 220.451 205.695 219.604C206.265 217.981 207.306 217.17 208.819 217.17ZM208.73 226.159C209.378 226.159 209.861 225.943 210.18 225.51C210.503 225.072 210.665 224.557 210.665 223.965C210.665 223.464 210.521 222.987 210.234 222.536C209.947 222.08 209.425 221.853 208.669 221.853C208.14 221.853 207.675 222.028 207.274 222.379C206.878 222.73 206.68 223.258 206.68 223.965C206.68 224.585 206.86 225.106 207.22 225.53C207.584 225.95 208.088 226.159 208.73 226.159ZM215.703 216.958H216.742L213.557 227H212.518L215.703 216.958ZM216.852 227C216.897 226.157 217.07 225.423 217.371 224.799C217.676 224.174 218.269 223.607 219.148 223.097L220.461 222.338C221.049 221.996 221.461 221.704 221.698 221.463C222.072 221.085 222.259 220.652 222.259 220.164C222.259 219.594 222.088 219.143 221.746 218.811C221.404 218.473 220.949 218.305 220.379 218.305C219.536 218.305 218.952 218.624 218.629 219.262C218.456 219.604 218.36 220.077 218.342 220.684H217.091C217.104 219.831 217.262 219.136 217.562 218.599C218.096 217.651 219.037 217.177 220.386 217.177C221.507 217.177 222.325 217.48 222.84 218.086C223.359 218.692 223.619 219.367 223.619 220.109C223.619 220.893 223.343 221.563 222.792 222.119C222.473 222.443 221.901 222.835 221.076 223.295L220.14 223.814C219.693 224.061 219.342 224.295 219.087 224.519C218.631 224.915 218.344 225.355 218.226 225.838H223.571V227H216.852ZM227.994 217.211C229.261 217.211 230.177 217.733 230.742 218.776C231.18 219.583 231.398 220.688 231.398 222.092C231.398 223.423 231.2 224.523 230.804 225.394C230.229 226.642 229.291 227.267 227.987 227.267C226.812 227.267 225.937 226.756 225.362 225.735C224.884 224.883 224.645 223.739 224.645 222.304C224.645 221.192 224.788 220.237 225.075 219.439C225.613 217.954 226.586 217.211 227.994 217.211ZM227.98 226.146C228.618 226.146 229.127 225.863 229.505 225.298C229.883 224.733 230.072 223.68 230.072 222.14C230.072 221.028 229.936 220.114 229.662 219.398C229.389 218.678 228.858 218.318 228.069 218.318C227.345 218.318 226.814 218.66 226.477 219.344C226.144 220.023 225.978 221.025 225.978 222.352C225.978 223.35 226.085 224.152 226.299 224.758C226.627 225.683 227.188 226.146 227.98 226.146Z" fill="#A3A3A3"/>
<path d="M351.819 217.17C352.913 217.17 353.674 217.455 354.103 218.024C354.535 218.59 354.752 219.173 354.752 219.774H353.535C353.462 219.387 353.346 219.084 353.187 218.865C352.89 218.455 352.441 218.25 351.84 218.25C351.152 218.25 350.605 218.569 350.199 219.207C349.794 219.84 349.568 220.75 349.522 221.935C349.805 221.52 350.16 221.21 350.589 221.005C350.981 220.823 351.418 220.731 351.901 220.731C352.722 220.731 353.437 220.993 354.048 221.518C354.659 222.042 354.964 222.823 354.964 223.862C354.964 224.751 354.674 225.539 354.096 226.228C353.517 226.911 352.692 227.253 351.621 227.253C350.705 227.253 349.914 226.907 349.249 226.214C348.584 225.517 348.251 224.345 348.251 222.7C348.251 221.483 348.399 220.451 348.695 219.604C349.265 217.981 350.306 217.17 351.819 217.17ZM351.73 226.159C352.378 226.159 352.861 225.943 353.18 225.51C353.503 225.072 353.665 224.557 353.665 223.965C353.665 223.464 353.521 222.987 353.234 222.536C352.947 222.08 352.425 221.853 351.669 221.853C351.14 221.853 350.675 222.028 350.274 222.379C349.878 222.73 349.68 223.258 349.68 223.965C349.68 224.585 349.86 225.106 350.22 225.53C350.584 225.95 351.088 226.159 351.73 226.159ZM358.703 216.958H359.742L356.557 227H355.518L358.703 216.958ZM359.852 227C359.897 226.157 360.07 225.423 360.371 224.799C360.676 224.174 361.269 223.607 362.148 223.097L363.461 222.338C364.049 221.996 364.461 221.704 364.698 221.463C365.072 221.085 365.259 220.652 365.259 220.164C365.259 219.594 365.088 219.143 364.746 218.811C364.404 218.473 363.949 218.305 363.379 218.305C362.536 218.305 361.952 218.624 361.629 219.262C361.456 219.604 361.36 220.077 361.342 220.684H360.091C360.104 219.831 360.262 219.136 360.562 218.599C361.096 217.651 362.037 217.177 363.386 217.177C364.507 217.177 365.325 217.48 365.84 218.086C366.359 218.692 366.619 219.367 366.619 220.109C366.619 220.893 366.343 221.563 365.792 222.119C365.473 222.443 364.901 222.835 364.076 223.295L363.14 223.814C362.693 224.061 362.342 224.295 362.087 224.519C361.631 224.915 361.344 225.355 361.226 225.838H366.571V227H359.852ZM369.066 224.635C369.103 225.314 369.365 225.783 369.853 226.043C370.103 226.18 370.386 226.248 370.7 226.248C371.288 226.248 371.789 226.004 372.204 225.517C372.619 225.024 372.913 224.029 373.086 222.529C372.812 222.962 372.473 223.268 372.067 223.445C371.666 223.618 371.233 223.705 370.769 223.705C369.825 223.705 369.078 223.411 368.526 222.823C367.979 222.235 367.706 221.479 367.706 220.554C367.706 219.665 367.977 218.883 368.52 218.209C369.062 217.535 369.862 217.197 370.919 217.197C372.345 217.197 373.33 217.84 373.872 219.125C374.173 219.831 374.323 220.715 374.323 221.777C374.323 222.976 374.143 224.038 373.783 224.963C373.186 226.503 372.174 227.273 370.748 227.273C369.791 227.273 369.064 227.023 368.567 226.521C368.071 226.02 367.822 225.391 367.822 224.635H369.066ZM370.933 222.625C371.42 222.625 371.865 222.465 372.266 222.146C372.671 221.823 372.874 221.26 372.874 220.458C372.874 219.738 372.692 219.202 372.327 218.852C371.967 218.496 371.507 218.318 370.946 218.318C370.345 218.318 369.866 218.521 369.511 218.927C369.16 219.328 368.984 219.866 368.984 220.54C368.984 221.178 369.139 221.686 369.449 222.064C369.759 222.438 370.254 222.625 370.933 222.625Z" fill="#A3A3A3"/>
<path d="M499.839 217.375V218.448C499.524 218.754 499.105 219.285 498.581 220.041C498.062 220.798 497.601 221.613 497.2 222.488C496.804 223.34 496.503 224.118 496.298 224.819C496.166 225.271 495.995 225.997 495.785 227H494.425C494.735 225.132 495.418 223.272 496.476 221.422C497.1 220.337 497.756 219.401 498.444 218.612H493.03V217.375H499.839ZM503.496 216.958H504.535L501.35 227H500.311L503.496 216.958ZM508.015 221.312C508.557 221.312 508.981 221.162 509.286 220.861C509.591 220.556 509.744 220.194 509.744 219.774C509.744 219.41 509.598 219.075 509.307 218.77C509.015 218.464 508.571 218.312 507.974 218.312C507.381 218.312 506.953 218.464 506.688 218.77C506.424 219.075 506.292 219.433 506.292 219.843C506.292 220.303 506.463 220.663 506.805 220.923C507.146 221.183 507.55 221.312 508.015 221.312ZM508.09 226.159C508.66 226.159 509.131 226.007 509.505 225.701C509.883 225.391 510.072 224.931 510.072 224.32C510.072 223.687 509.879 223.206 509.491 222.878C509.104 222.55 508.607 222.386 508.001 222.386C507.413 222.386 506.932 222.554 506.559 222.892C506.189 223.224 506.005 223.687 506.005 224.279C506.005 224.79 506.174 225.232 506.511 225.605C506.853 225.975 507.379 226.159 508.09 226.159ZM506.34 221.784C505.998 221.638 505.731 221.467 505.54 221.271C505.18 220.907 505 220.433 505 219.85C505 219.12 505.264 218.494 505.793 217.97C506.322 217.446 507.071 217.184 508.042 217.184C508.981 217.184 509.717 217.432 510.25 217.929C510.783 218.421 511.05 218.997 511.05 219.658C511.05 220.269 510.895 220.763 510.585 221.142C510.412 221.356 510.143 221.565 509.778 221.771C510.184 221.957 510.503 222.172 510.735 222.413C511.168 222.869 511.385 223.461 511.385 224.19C511.385 225.052 511.095 225.783 510.517 226.385C509.938 226.982 509.12 227.28 508.062 227.28C507.11 227.28 506.303 227.023 505.643 226.508C504.986 225.988 504.658 225.236 504.658 224.252C504.658 223.673 504.799 223.174 505.082 222.755C505.365 222.331 505.784 222.007 506.34 221.784Z" fill="#A3A3A3"/>
<path d="M635.046 217.375V218.448C634.731 218.754 634.312 219.285 633.788 220.041C633.269 220.798 632.808 221.613 632.407 222.488C632.011 223.34 631.71 224.118 631.505 224.819C631.373 225.271 631.202 225.997 630.992 227H629.632C629.942 225.132 630.625 223.272 631.683 221.422C632.307 220.337 632.963 219.401 633.651 218.612H628.237V217.375H635.046ZM638.703 216.958H639.742L636.557 227H635.518L638.703 216.958ZM640.754 220.068V219.125C641.643 219.038 642.262 218.895 642.613 218.694C642.964 218.489 643.226 218.008 643.399 217.252H644.37V227H643.058V220.068H640.754ZM654.528 217.375V218.448C654.214 218.754 653.795 219.285 653.271 220.041C652.751 220.798 652.291 221.613 651.89 222.488C651.493 223.34 651.192 224.118 650.987 224.819C650.855 225.271 650.684 225.997 650.475 227H649.114C649.424 225.132 650.108 223.272 651.165 221.422C651.789 220.337 652.446 219.401 653.134 218.612H647.72V217.375H654.528Z" fill="#A3A3A3"/>
<path d="M778.046 217.375V218.448C777.731 218.754 777.312 219.285 776.788 220.041C776.269 220.798 775.808 221.613 775.407 222.488C775.011 223.34 774.71 224.118 774.505 224.819C774.373 225.271 774.202 225.997 773.992 227H772.632C772.942 225.132 773.625 223.272 774.683 221.422C775.307 220.337 775.963 219.401 776.651 218.612H771.237V217.375H778.046ZM781.703 216.958H782.742L779.557 227H778.518L781.703 216.958ZM782.852 227C782.897 226.157 783.07 225.423 783.371 224.799C783.676 224.174 784.269 223.607 785.148 223.097L786.461 222.338C787.049 221.996 787.461 221.704 787.698 221.463C788.072 221.085 788.259 220.652 788.259 220.164C788.259 219.594 788.088 219.143 787.746 218.811C787.404 218.473 786.949 218.305 786.379 218.305C785.536 218.305 784.952 218.624 784.629 219.262C784.456 219.604 784.36 220.077 784.342 220.684H783.091C783.104 219.831 783.262 219.136 783.562 218.599C784.096 217.651 785.037 217.177 786.386 217.177C787.507 217.177 788.325 217.48 788.84 218.086C789.359 218.692 789.619 219.367 789.619 220.109C789.619 220.893 789.343 221.563 788.792 222.119C788.473 222.443 787.901 222.835 787.076 223.295L786.14 223.814C785.693 224.061 785.342 224.295 785.087 224.519C784.631 224.915 784.344 225.355 784.226 225.838H789.571V227H782.852ZM794.302 217.17C795.396 217.17 796.157 217.455 796.585 218.024C797.018 218.59 797.234 219.173 797.234 219.774H796.018C795.945 219.387 795.828 219.084 795.669 218.865C795.373 218.455 794.924 218.25 794.322 218.25C793.634 218.25 793.087 218.569 792.682 219.207C792.276 219.84 792.05 220.75 792.005 221.935C792.287 221.52 792.643 221.21 793.071 221.005C793.463 220.823 793.901 220.731 794.384 220.731C795.204 220.731 795.92 220.993 796.53 221.518C797.141 222.042 797.446 222.823 797.446 223.862C797.446 224.751 797.157 225.539 796.578 226.228C795.999 226.911 795.174 227.253 794.104 227.253C793.188 227.253 792.397 226.907 791.731 226.214C791.066 225.517 790.733 224.345 790.733 222.7C790.733 221.483 790.882 220.451 791.178 219.604C791.747 217.981 792.789 217.17 794.302 217.17ZM794.213 226.159C794.86 226.159 795.343 225.943 795.662 225.51C795.986 225.072 796.147 224.557 796.147 223.965C796.147 223.464 796.004 222.987 795.717 222.536C795.43 222.08 794.908 221.853 794.151 221.853C793.623 221.853 793.158 222.028 792.757 222.379C792.36 222.73 792.162 223.258 792.162 223.965C792.162 224.585 792.342 225.106 792.702 225.53C793.067 225.95 793.57 226.159 794.213 226.159Z" fill="#A3A3A3"/>
<path d="M919.325 221.312C919.868 221.312 920.291 221.162 920.597 220.861C920.902 220.556 921.055 220.194 921.055 219.774C921.055 219.41 920.909 219.075 920.617 218.77C920.326 218.464 919.881 218.312 919.284 218.312C918.692 218.312 918.263 218.464 917.999 218.77C917.735 219.075 917.603 219.433 917.603 219.843C917.603 220.303 917.773 220.663 918.115 220.923C918.457 221.183 918.86 221.312 919.325 221.312ZM919.4 226.159C919.97 226.159 920.442 226.007 920.815 225.701C921.194 225.391 921.383 224.931 921.383 224.32C921.383 223.687 921.189 223.206 920.802 222.878C920.414 222.55 919.918 222.386 919.312 222.386C918.724 222.386 918.243 222.554 917.869 222.892C917.5 223.224 917.315 223.687 917.315 224.279C917.315 224.79 917.484 225.232 917.821 225.605C918.163 225.975 918.689 226.159 919.4 226.159ZM917.65 221.784C917.309 221.638 917.042 221.467 916.851 221.271C916.491 220.907 916.311 220.433 916.311 219.85C916.311 219.12 916.575 218.494 917.104 217.97C917.632 217.446 918.382 217.184 919.353 217.184C920.291 217.184 921.027 217.432 921.561 217.929C922.094 218.421 922.36 218.997 922.36 219.658C922.36 220.269 922.205 220.763 921.896 221.142C921.722 221.356 921.453 221.565 921.089 221.771C921.494 221.957 921.813 222.172 922.046 222.413C922.479 222.869 922.695 223.461 922.695 224.19C922.695 225.052 922.406 225.783 921.827 226.385C921.248 226.982 920.43 227.28 919.373 227.28C918.421 227.28 917.614 227.023 916.953 226.508C916.297 225.988 915.969 225.236 915.969 224.252C915.969 223.673 916.11 223.174 916.393 222.755C916.675 222.331 917.094 222.007 917.65 221.784ZM926.496 216.958H927.535L924.35 227H923.311L926.496 216.958ZM931.835 223.534V219.098L928.697 223.534H931.835ZM931.855 227V224.607H927.562V223.404L932.047 217.184H933.086V223.534H934.528V224.607H933.086V227H931.855Z" fill="#A3A3A3"/>
<path d="M1054.53 221.312C1055.07 221.312 1055.5 221.162 1055.8 220.861C1056.11 220.556 1056.26 220.194 1056.26 219.774C1056.26 219.41 1056.12 219.075 1055.82 218.77C1055.53 218.464 1055.09 218.312 1054.49 218.312C1053.9 218.312 1053.47 218.464 1053.21 218.77C1052.94 219.075 1052.81 219.433 1052.81 219.843C1052.81 220.303 1052.98 220.663 1053.32 220.923C1053.66 221.183 1054.07 221.312 1054.53 221.312ZM1054.61 226.159C1055.18 226.159 1055.65 226.007 1056.02 225.701C1056.4 225.391 1056.59 224.931 1056.59 224.32C1056.59 223.687 1056.4 223.206 1056.01 222.878C1055.62 222.55 1055.12 222.386 1054.52 222.386C1053.93 222.386 1053.45 222.554 1053.08 222.892C1052.71 223.224 1052.52 223.687 1052.52 224.279C1052.52 224.79 1052.69 225.232 1053.03 225.605C1053.37 225.975 1053.9 226.159 1054.61 226.159ZM1052.86 221.784C1052.52 221.638 1052.25 221.467 1052.06 221.271C1051.7 220.907 1051.52 220.433 1051.52 219.85C1051.52 219.12 1051.78 218.494 1052.31 217.97C1052.84 217.446 1053.59 217.184 1054.56 217.184C1055.5 217.184 1056.23 217.432 1056.77 217.929C1057.3 218.421 1057.57 218.997 1057.57 219.658C1057.57 220.269 1057.41 220.763 1057.1 221.142C1056.93 221.356 1056.66 221.565 1056.3 221.771C1056.7 221.957 1057.02 222.172 1057.25 222.413C1057.69 222.869 1057.9 223.461 1057.9 224.19C1057.9 225.052 1057.61 225.783 1057.03 226.385C1056.46 226.982 1055.64 227.28 1054.58 227.28C1053.63 227.28 1052.82 227.023 1052.16 226.508C1051.5 225.988 1051.18 225.236 1051.18 224.252C1051.18 223.673 1051.32 223.174 1051.6 222.755C1051.88 222.331 1052.3 222.007 1052.86 221.784ZM1061.7 216.958H1062.74L1059.56 227H1058.52L1061.7 216.958ZM1063.75 220.068V219.125C1064.64 219.038 1065.26 218.895 1065.61 218.694C1065.96 218.489 1066.23 218.008 1066.4 217.252H1067.37V227H1066.06V220.068H1063.75ZM1073.84 227.267C1072.69 227.267 1071.85 226.95 1071.32 226.316C1070.8 225.678 1070.54 224.904 1070.54 223.992H1071.83C1071.88 224.626 1072 225.086 1072.18 225.373C1072.5 225.888 1073.08 226.146 1073.91 226.146C1074.56 226.146 1075.08 225.972 1075.47 225.626C1075.86 225.28 1076.06 224.833 1076.06 224.286C1076.06 223.612 1075.85 223.14 1075.44 222.871C1075.03 222.602 1074.45 222.468 1073.72 222.468C1073.64 222.468 1073.55 222.47 1073.47 222.475C1073.39 222.475 1073.3 222.477 1073.21 222.481V221.395C1073.34 221.408 1073.45 221.417 1073.54 221.422C1073.62 221.426 1073.72 221.429 1073.82 221.429C1074.28 221.429 1074.65 221.356 1074.95 221.21C1075.47 220.955 1075.73 220.499 1075.73 219.843C1075.73 219.355 1075.56 218.979 1075.21 218.715C1074.86 218.451 1074.46 218.318 1074 218.318C1073.18 218.318 1072.61 218.592 1072.3 219.139C1072.13 219.439 1072.03 219.868 1072 220.424H1070.79C1070.79 219.695 1070.93 219.075 1071.23 218.564C1071.73 217.653 1072.61 217.197 1073.87 217.197C1074.87 217.197 1075.64 217.421 1076.19 217.867C1076.74 218.309 1077.01 218.952 1077.01 219.795C1077.01 220.396 1076.85 220.884 1076.52 221.258C1076.32 221.49 1076.06 221.673 1075.74 221.805C1076.26 221.946 1076.66 222.219 1076.95 222.625C1077.24 223.026 1077.38 223.518 1077.38 224.102C1077.38 225.036 1077.08 225.797 1076.46 226.385C1075.85 226.973 1074.97 227.267 1073.84 227.267Z" fill="#A3A3A3"/>
<path d="M1197.53 221.312C1198.07 221.312 1198.5 221.162 1198.8 220.861C1199.11 220.556 1199.26 220.194 1199.26 219.774C1199.26 219.41 1199.12 219.075 1198.82 218.77C1198.53 218.464 1198.09 218.312 1197.49 218.312C1196.9 218.312 1196.47 218.464 1196.21 218.77C1195.94 219.075 1195.81 219.433 1195.81 219.843C1195.81 220.303 1195.98 220.663 1196.32 220.923C1196.66 221.183 1197.07 221.312 1197.53 221.312ZM1197.61 226.159C1198.18 226.159 1198.65 226.007 1199.02 225.701C1199.4 225.391 1199.59 224.931 1199.59 224.32C1199.59 223.687 1199.4 223.206 1199.01 222.878C1198.62 222.55 1198.12 222.386 1197.52 222.386C1196.93 222.386 1196.45 222.554 1196.08 222.892C1195.71 223.224 1195.52 223.687 1195.52 224.279C1195.52 224.79 1195.69 225.232 1196.03 225.605C1196.37 225.975 1196.9 226.159 1197.61 226.159ZM1195.86 221.784C1195.52 221.638 1195.25 221.467 1195.06 221.271C1194.7 220.907 1194.52 220.433 1194.52 219.85C1194.52 219.12 1194.78 218.494 1195.31 217.97C1195.84 217.446 1196.59 217.184 1197.56 217.184C1198.5 217.184 1199.23 217.432 1199.77 217.929C1200.3 218.421 1200.57 218.997 1200.57 219.658C1200.57 220.269 1200.41 220.763 1200.1 221.142C1199.93 221.356 1199.66 221.565 1199.3 221.771C1199.7 221.957 1200.02 222.172 1200.25 222.413C1200.69 222.869 1200.9 223.461 1200.9 224.19C1200.9 225.052 1200.61 225.783 1200.03 226.385C1199.46 226.982 1198.64 227.28 1197.58 227.28C1196.63 227.28 1195.82 227.023 1195.16 226.508C1194.5 225.988 1194.18 225.236 1194.18 224.252C1194.18 223.673 1194.32 223.174 1194.6 222.755C1194.88 222.331 1195.3 222.007 1195.86 221.784ZM1204.7 216.958H1205.74L1202.56 227H1201.52L1204.7 216.958ZM1205.85 227C1205.9 226.157 1206.07 225.423 1206.37 224.799C1206.68 224.174 1207.27 223.607 1208.15 223.097L1209.46 222.338C1210.05 221.996 1210.46 221.704 1210.7 221.463C1211.07 221.085 1211.26 220.652 1211.26 220.164C1211.26 219.594 1211.09 219.143 1210.75 218.811C1210.4 218.473 1209.95 218.305 1209.38 218.305C1208.54 218.305 1207.95 218.624 1207.63 219.262C1207.46 219.604 1207.36 220.077 1207.34 220.684H1206.09C1206.1 219.831 1206.26 219.136 1206.56 218.599C1207.1 217.651 1208.04 217.177 1209.39 217.177C1210.51 217.177 1211.32 217.48 1211.84 218.086C1212.36 218.692 1212.62 219.367 1212.62 220.109C1212.62 220.893 1212.34 221.563 1211.79 222.119C1211.47 222.443 1210.9 222.835 1210.08 223.295L1209.14 223.814C1208.69 224.061 1208.34 224.295 1208.09 224.519C1207.63 224.915 1207.34 225.355 1207.23 225.838H1212.57V227H1205.85ZM1213.64 227C1213.69 226.157 1213.86 225.423 1214.16 224.799C1214.47 224.174 1215.06 223.607 1215.94 223.097L1217.25 222.338C1217.84 221.996 1218.25 221.704 1218.49 221.463C1218.86 221.085 1219.05 220.652 1219.05 220.164C1219.05 219.594 1218.88 219.143 1218.54 218.811C1218.2 218.473 1217.74 218.305 1217.17 218.305C1216.33 218.305 1215.75 218.624 1215.42 219.262C1215.25 219.604 1215.15 220.077 1215.13 220.684H1213.88C1213.9 219.831 1214.05 219.136 1214.36 218.599C1214.89 217.651 1215.83 217.177 1217.18 217.177C1218.3 217.177 1219.12 217.48 1219.63 218.086C1220.15 218.692 1220.41 219.367 1220.41 220.109C1220.41 220.893 1220.14 221.563 1219.58 222.119C1219.27 222.443 1218.69 222.835 1217.87 223.295L1216.93 223.814C1216.49 224.061 1216.14 224.295 1215.88 224.519C1215.42 224.915 1215.14 225.355 1215.02 225.838H1220.36V227H1213.64Z" fill="#A3A3A3"/>
<path d="M1340.53 221.312C1341.07 221.312 1341.5 221.162 1341.8 220.861C1342.11 220.556 1342.26 220.194 1342.26 219.774C1342.26 219.41 1342.12 219.075 1341.82 218.77C1341.53 218.464 1341.09 218.312 1340.49 218.312C1339.9 218.312 1339.47 218.464 1339.21 218.77C1338.94 219.075 1338.81 219.433 1338.81 219.843C1338.81 220.303 1338.98 220.663 1339.32 220.923C1339.66 221.183 1340.07 221.312 1340.53 221.312ZM1340.61 226.159C1341.18 226.159 1341.65 226.007 1342.02 225.701C1342.4 225.391 1342.59 224.931 1342.59 224.32C1342.59 223.687 1342.4 223.206 1342.01 222.878C1341.62 222.55 1341.12 222.386 1340.52 222.386C1339.93 222.386 1339.45 222.554 1339.08 222.892C1338.71 223.224 1338.52 223.687 1338.52 224.279C1338.52 224.79 1338.69 225.232 1339.03 225.605C1339.37 225.975 1339.9 226.159 1340.61 226.159ZM1338.86 221.784C1338.52 221.638 1338.25 221.467 1338.06 221.271C1337.7 220.907 1337.52 220.433 1337.52 219.85C1337.52 219.12 1337.78 218.494 1338.31 217.97C1338.84 217.446 1339.59 217.184 1340.56 217.184C1341.5 217.184 1342.23 217.432 1342.77 217.929C1343.3 218.421 1343.57 218.997 1343.57 219.658C1343.57 220.269 1343.41 220.763 1343.1 221.142C1342.93 221.356 1342.66 221.565 1342.3 221.771C1342.7 221.957 1343.02 222.172 1343.25 222.413C1343.69 222.869 1343.9 223.461 1343.9 224.19C1343.9 225.052 1343.61 225.783 1343.03 226.385C1342.46 226.982 1341.64 227.28 1340.58 227.28C1339.63 227.28 1338.82 227.023 1338.16 226.508C1337.5 225.988 1337.18 225.236 1337.18 224.252C1337.18 223.673 1337.32 223.174 1337.6 222.755C1337.88 222.331 1338.3 222.007 1338.86 221.784ZM1347.7 216.958H1348.74L1345.56 227H1344.52L1347.7 216.958ZM1352.05 227.267C1350.89 227.267 1350.05 226.95 1349.53 226.316C1349.01 225.678 1348.75 224.904 1348.75 223.992H1350.03C1350.09 224.626 1350.21 225.086 1350.39 225.373C1350.71 225.888 1351.29 226.146 1352.12 226.146C1352.77 226.146 1353.29 225.972 1353.68 225.626C1354.07 225.28 1354.27 224.833 1354.27 224.286C1354.27 223.612 1354.06 223.14 1353.64 222.871C1353.23 222.602 1352.66 222.468 1351.93 222.468C1351.85 222.468 1351.76 222.47 1351.67 222.475C1351.59 222.475 1351.51 222.477 1351.42 222.481V221.395C1351.55 221.408 1351.66 221.417 1351.74 221.422C1351.83 221.426 1351.92 221.429 1352.02 221.429C1352.48 221.429 1352.86 221.356 1353.16 221.21C1353.68 220.955 1353.94 220.499 1353.94 219.843C1353.94 219.355 1353.76 218.979 1353.42 218.715C1353.07 218.451 1352.67 218.318 1352.21 218.318C1351.39 218.318 1350.82 218.592 1350.51 219.139C1350.33 219.439 1350.23 219.868 1350.21 220.424H1349C1349 219.695 1349.14 219.075 1349.43 218.564C1349.93 217.653 1350.82 217.197 1352.08 217.197C1353.08 217.197 1353.85 217.421 1354.4 217.867C1354.94 218.309 1355.22 218.952 1355.22 219.795C1355.22 220.396 1355.05 220.884 1354.73 221.258C1354.53 221.49 1354.27 221.673 1353.95 221.805C1354.47 221.946 1354.87 222.219 1355.15 222.625C1355.45 223.026 1355.59 223.518 1355.59 224.102C1355.59 225.036 1355.28 225.797 1354.67 226.385C1354.05 226.973 1353.18 227.267 1352.05 227.267ZM1357.55 220.068V219.125C1358.44 219.038 1359.06 218.895 1359.41 218.694C1359.76 218.489 1360.02 218.008 1360.19 217.252H1361.16V227H1359.85V220.068H1357.55Z" fill="#A3A3A3"/>
<path d="M1.96094 136.068V135.125C2.84961 135.038 3.4694 134.895 3.82031 134.694C4.17122 134.489 4.43327 134.008 4.60645 133.252H5.57715V143H4.26465V136.068H1.96094ZM12.2012 133.211C13.4681 133.211 14.3841 133.733 14.9492 134.776C15.3867 135.583 15.6055 136.688 15.6055 138.092C15.6055 139.423 15.4072 140.523 15.0107 141.394C14.4365 142.642 13.4977 143.267 12.1943 143.267C11.0186 143.267 10.1436 142.756 9.56934 141.735C9.09082 140.883 8.85156 139.739 8.85156 138.304C8.85156 137.192 8.99512 136.237 9.28223 135.439C9.81999 133.954 10.793 133.211 12.2012 133.211ZM12.1875 142.146C12.8255 142.146 13.3337 141.863 13.7119 141.298C14.0902 140.733 14.2793 139.68 14.2793 138.14C14.2793 137.028 14.1426 136.114 13.8691 135.398C13.5957 134.678 13.0648 134.318 12.2764 134.318C11.5518 134.318 11.0208 134.66 10.6836 135.344C10.3509 136.023 10.1846 137.025 10.1846 138.352C10.1846 139.35 10.2917 140.152 10.5059 140.758C10.834 141.683 11.3945 142.146 12.1875 142.146ZM19.9941 133.211C21.2611 133.211 22.1771 133.733 22.7422 134.776C23.1797 135.583 23.3984 136.688 23.3984 138.092C23.3984 139.423 23.2002 140.523 22.8037 141.394C22.2295 142.642 21.2907 143.267 19.9873 143.267C18.8115 143.267 17.9365 142.756 17.3623 141.735C16.8838 140.883 16.6445 139.739 16.6445 138.304C16.6445 137.192 16.7881 136.237 17.0752 135.439C17.613 133.954 18.5859 133.211 19.9941 133.211ZM19.9805 142.146C20.6185 142.146 21.1266 141.863 21.5049 141.298C21.8831 140.733 22.0723 139.68 22.0723 138.14C22.0723 137.028 21.9355 136.114 21.6621 135.398C21.3887 134.678 20.8577 134.318 20.0693 134.318C19.3447 134.318 18.8138 134.66 18.4766 135.344C18.1439 136.023 17.9775 137.025 17.9775 138.352C17.9775 139.35 18.0846 140.152 18.2988 140.758C18.627 141.683 19.1875 142.146 19.9805 142.146Z" fill="#A3A3A3"/>
<path d="M1.05859 78C1.10417 77.1569 1.27734 76.4232 1.57812 75.7988C1.88346 75.1745 2.47591 74.6071 3.35547 74.0967L4.66797 73.3379C5.25586 72.9961 5.66829 72.7044 5.90527 72.4629C6.27897 72.0846 6.46582 71.6517 6.46582 71.1641C6.46582 70.5944 6.29492 70.1432 5.95312 69.8105C5.61133 69.4733 5.1556 69.3047 4.58594 69.3047C3.74284 69.3047 3.15951 69.6237 2.83594 70.2617C2.66276 70.6035 2.56706 71.0775 2.54883 71.6836H1.29785C1.31152 70.8314 1.46875 70.1364 1.76953 69.5986C2.30273 68.6507 3.24382 68.1768 4.59277 68.1768C5.71387 68.1768 6.5319 68.4798 7.04688 69.0859C7.56641 69.6921 7.82617 70.3665 7.82617 71.1094C7.82617 71.8932 7.55046 72.5632 6.99902 73.1191C6.68001 73.4427 6.10807 73.8346 5.2832 74.2949L4.34668 74.8145C3.90007 75.0605 3.54915 75.2952 3.29395 75.5186C2.83822 75.915 2.55111 76.3548 2.43262 76.8379H7.77832V78H1.05859ZM12.2012 68.2109C13.4681 68.2109 14.3841 68.7327 14.9492 69.7764C15.3867 70.583 15.6055 71.6882 15.6055 73.0918C15.6055 74.4225 15.4072 75.5231 15.0107 76.3936C14.4365 77.6423 13.4977 78.2666 12.1943 78.2666C11.0186 78.2666 10.1436 77.7562 9.56934 76.7354C9.09082 75.8831 8.85156 74.7393 8.85156 73.3037C8.85156 72.1917 8.99512 71.237 9.28223 70.4395C9.81999 68.9538 10.793 68.2109 12.2012 68.2109ZM12.1875 77.1455C12.8255 77.1455 13.3337 76.863 13.7119 76.2979C14.0902 75.7327 14.2793 74.68 14.2793 73.1396C14.2793 72.0277 14.1426 71.1139 13.8691 70.3984C13.5957 69.6784 13.0648 69.3184 12.2764 69.3184C11.5518 69.3184 11.0208 69.6602 10.6836 70.3438C10.3509 71.0228 10.1846 72.0254 10.1846 73.3516C10.1846 74.3496 10.2917 75.1517 10.5059 75.7578C10.834 76.6829 11.3945 77.1455 12.1875 77.1455ZM19.9941 68.2109C21.2611 68.2109 22.1771 68.7327 22.7422 69.7764C23.1797 70.583 23.3984 71.6882 23.3984 73.0918C23.3984 74.4225 23.2002 75.5231 22.8037 76.3936C22.2295 77.6423 21.2907 78.2666 19.9873 78.2666C18.8115 78.2666 17.9365 77.7562 17.3623 76.7354C16.8838 75.8831 16.6445 74.7393 16.6445 73.3037C16.6445 72.1917 16.7881 71.237 17.0752 70.4395C17.613 68.9538 18.5859 68.2109 19.9941 68.2109ZM19.9805 77.1455C20.6185 77.1455 21.1266 76.863 21.5049 76.2979C21.8831 75.7327 22.0723 74.68 22.0723 73.1396C22.0723 72.0277 21.9355 71.1139 21.6621 70.3984C21.3887 69.6784 20.8577 69.3184 20.0693 69.3184C19.3447 69.3184 18.8138 69.6602 18.4766 70.3438C18.1439 71.0228 17.9775 72.0254 17.9775 73.3516C17.9775 74.3496 18.0846 75.1517 18.2988 75.7578C18.627 76.6829 19.1875 77.1455 19.9805 77.1455Z" fill="#A3A3A3"/>
<path d="M4.25781 13.2666C3.10026 13.2666 2.25944 12.9499 1.73535 12.3164C1.21582 11.6784 0.956055 10.9036 0.956055 9.99219H2.24121C2.2959 10.6257 2.41439 11.0859 2.59668 11.373C2.91569 11.888 3.49219 12.1455 4.32617 12.1455C4.97331 12.1455 5.49284 11.9723 5.88477 11.626C6.27669 11.2796 6.47266 10.833 6.47266 10.2861C6.47266 9.61165 6.2653 9.13997 5.85059 8.87109C5.44043 8.60221 4.86849 8.46777 4.13477 8.46777C4.05273 8.46777 3.96842 8.47005 3.88184 8.47461C3.7998 8.47461 3.71549 8.47689 3.62891 8.48145V7.39453C3.75651 7.4082 3.86361 7.41732 3.9502 7.42188C4.03678 7.42643 4.13021 7.42871 4.23047 7.42871C4.69076 7.42871 5.06901 7.35579 5.36523 7.20996C5.88477 6.95475 6.14453 6.49902 6.14453 5.84277C6.14453 5.35514 5.97135 4.97917 5.625 4.71484C5.27865 4.45052 4.87533 4.31836 4.41504 4.31836C3.59473 4.31836 3.02734 4.5918 2.71289 5.13867C2.53971 5.43945 2.44173 5.86784 2.41895 6.42383H1.20215C1.20215 5.69466 1.34798 5.07487 1.63965 4.56445C2.14095 3.65299 3.02279 3.19727 4.28516 3.19727C5.2832 3.19727 6.05566 3.42057 6.60254 3.86719C7.14941 4.30924 7.42285 4.95182 7.42285 5.79492C7.42285 6.39648 7.26107 6.88411 6.9375 7.25781C6.73698 7.49023 6.47721 7.67253 6.1582 7.80469C6.67318 7.94596 7.07422 8.2194 7.36133 8.625C7.65299 9.02604 7.79883 9.51823 7.79883 10.1016C7.79883 11.0358 7.49121 11.7969 6.87598 12.3848C6.26074 12.9727 5.38802 13.2666 4.25781 13.2666ZM12.2012 3.21094C13.4681 3.21094 14.3841 3.73275 14.9492 4.77637C15.3867 5.58301 15.6055 6.68815 15.6055 8.0918C15.6055 9.42253 15.4072 10.5231 15.0107 11.3936C14.4365 12.6423 13.4977 13.2666 12.1943 13.2666C11.0186 13.2666 10.1436 12.7562 9.56934 11.7354C9.09082 10.8831 8.85156 9.73926 8.85156 8.30371C8.85156 7.19173 8.99512 6.23698 9.28223 5.43945C9.81999 3.95378 10.793 3.21094 12.2012 3.21094ZM12.1875 12.1455C12.8255 12.1455 13.3337 11.863 13.7119 11.2979C14.0902 10.7327 14.2793 9.68001 14.2793 8.13965C14.2793 7.02767 14.1426 6.11393 13.8691 5.39844C13.5957 4.67839 13.0648 4.31836 12.2764 4.31836C11.5518 4.31836 11.0208 4.66016 10.6836 5.34375C10.3509 6.02279 10.1846 7.02539 10.1846 8.35156C10.1846 9.34961 10.2917 10.1517 10.5059 10.7578C10.834 11.6829 11.3945 12.1455 12.1875 12.1455ZM19.9941 3.21094C21.2611 3.21094 22.1771 3.73275 22.7422 4.77637C23.1797 5.58301 23.3984 6.68815 23.3984 8.0918C23.3984 9.42253 23.2002 10.5231 22.8037 11.3936C22.2295 12.6423 21.2907 13.2666 19.9873 13.2666C18.8115 13.2666 17.9365 12.7562 17.3623 11.7354C16.8838 10.8831 16.6445 9.73926 16.6445 8.30371C16.6445 7.19173 16.7881 6.23698 17.0752 5.43945C17.613 3.95378 18.5859 3.21094 19.9941 3.21094ZM19.9805 12.1455C20.6185 12.1455 21.1266 11.863 21.5049 11.2979C21.8831 10.7327 22.0723 9.68001 22.0723 8.13965C22.0723 7.02767 21.9355 6.11393 21.6621 5.39844C21.3887 4.67839 20.8577 4.31836 20.0693 4.31836C19.3447 4.31836 18.8138 4.66016 18.4766 5.34375C18.1439 6.02279 17.9775 7.02539 17.9775 8.35156C17.9775 9.34961 18.0846 10.1517 18.2988 10.7578C18.627 11.6829 19.1875 12.1455 19.9805 12.1455Z" fill="#A3A3A3"/>
<path d="M45 71H36V201H45V71Z" fill="url(#paint0_linear_1_2)" fill-opacity="0.6"/>
<path d="M60 34H51V201H60V34Z" fill="url(#paint1_linear_1_2)" fill-opacity="0.6"/>
<path d="M75 62H66V201H75V62Z" fill="url(#paint2_linear_1_2)" fill-opacity="0.6"/>
<path d="M90 102H81V201H90V102Z" fill="url(#paint3_linear_1_2)" fill-opacity="0.6"/>
<path d="M105 66H96V201H105V66Z" fill="url(#paint4_linear_1_2)" fill-opacity="0.6"/>
<path d="M119 89H110V201H119V89Z" fill="url(#paint5_linear_1_2)" fill-opacity="0.6"/>
<path d="M134 67H125V201H134V67Z" fill="url(#paint6_linear_1_2)" fill-opacity="0.6"/>
<path d="M149 49H140V201H149V49Z" fill="url(#paint7_linear_1_2)" fill-opacity="0.6"/>
<path d="M164 161H155V201H164V161Z" fill="url(#paint8_linear_1_2)" fill-opacity="0.6"/>
<path d="M179 152H170V201H179V152Z" fill="url(#paint9_linear_1_2)" fill-opacity="0.6"/>
<path d="M193 148H184V201H193V148Z" fill="url(#paint10_linear_1_2)" fill-opacity="0.6"/>
<path d="M208 115H199V201H208V115Z" fill="url(#paint11_linear_1_2)" fill-opacity="0.6"/>
<path d="M223 128H214V201H223V128Z" fill="url(#paint12_linear_1_2)" fill-opacity="0.6"/>
<path d="M238 161H229V201H238V161Z" fill="url(#paint13_linear_1_2)" fill-opacity="0.6"/>
<path d="M253 56H244V201H253V56Z" fill="url(#paint14_linear_1_2)" fill-opacity="0.6"/>
<path d="M268 98H259V201H268V98Z" fill="url(#paint15_linear_1_2)" fill-opacity="0.6"/>
<path d="M282 84H273V201H282V84Z" fill="url(#paint16_linear_1_2)" fill-opacity="0.6"/>
<path d="M297 173H288V201H297V173Z" fill="url(#paint17_linear_1_2)" fill-opacity="0.6"/>
<path d="M312 79H303V201H312V79Z" fill="url(#paint18_linear_1_2)" fill-opacity="0.6"/>
<path d="M327 67H318V201H327V67Z" fill="url(#paint19_linear_1_2)" fill-opacity="0.6"/>
<path d="M342 156H333V201H342V156Z" fill="url(#paint20_linear_1_2)" fill-opacity="0.6"/>
<path d="M356 148H347V201H356V148Z" fill="url(#paint21_linear_1_2)" fill-opacity="0.6"/>
<path d="M371 124H362V201H371V124Z" fill="url(#paint22_linear_1_2)" fill-opacity="0.6"/>
<path d="M386 140H377V201H386V140Z" fill="url(#paint23_linear_1_2)" fill-opacity="0.6"/>
<path d="M401 52H392V201H401V52Z" fill="url(#paint24_linear_1_2)" fill-opacity="0.6"/>
<path d="M416 56H407V201H416V56Z" fill="url(#paint25_linear_1_2)" fill-opacity="0.6"/>
<path d="M430 148H421V201H430V148Z" fill="url(#paint26_linear_1_2)" fill-opacity="0.6"/>
<path d="M445 130H436V201H445V130Z" fill="url(#paint27_linear_1_2)" fill-opacity="0.6"/>
<path d="M460 111H451V201H460V111Z" fill="url(#paint28_linear_1_2)" fill-opacity="0.6"/>
<path d="M475 69H466V201H475V69Z" fill="url(#paint29_linear_1_2)" fill-opacity="0.6"/>
<path d="M490 85H481V201H490V85Z" fill="url(#paint30_linear_1_2)" fill-opacity="0.6"/>
<path d="M505 70H496V201H505V70Z" fill="url(#paint31_linear_1_2)" fill-opacity="0.6"/>
<path d="M519 99H510V201H519V99Z" fill="url(#paint32_linear_1_2)" fill-opacity="0.6"/>
<path d="M534 152H525V201H534V152Z" fill="url(#paint33_linear_1_2)" fill-opacity="0.6"/>
<path d="M549 51H540V201H549V51Z" fill="url(#paint34_linear_1_2)" fill-opacity="0.6"/>
<path d="M564 102H555V201H564V102Z" fill="url(#paint35_linear_1_2)" fill-opacity="0.6"/>
<path d="M579 152H570V201H579V152Z" fill="url(#paint36_linear_1_2)" fill-opacity="0.6"/>
<path d="M593 99H584V201H593V99Z" fill="url(#paint37_linear_1_2)" fill-opacity="0.6"/>
<path d="M608 81H599V201H608V81Z" fill="url(#paint38_linear_1_2)" fill-opacity="0.6"/>
<path d="M623 57H614V201H623V57Z" fill="url(#paint39_linear_1_2)" fill-opacity="0.6"/>
<path d="M638 41H629V201H638V41Z" fill="url(#paint40_linear_1_2)" fill-opacity="0.6"/>
<path d="M653 127H644V201H653V127Z" fill="url(#paint41_linear_1_2)" fill-opacity="0.6"/>
<path d="M667 108H658V201H667V108Z" fill="url(#paint42_linear_1_2)" fill-opacity="0.6"/>
<path d="M682 68H673V201H682V68Z" fill="url(#paint43_linear_1_2)" fill-opacity="0.6"/>
<path d="M697 59H688V201H697V59Z" fill="url(#paint44_linear_1_2)" fill-opacity="0.6"/>
<path d="M712 167H703V201H712V167Z" fill="url(#paint45_linear_1_2)" fill-opacity="0.6"/>
<path d="M727 70H718V201H727V70Z" fill="url(#paint46_linear_1_2)" fill-opacity="0.6"/>
<path d="M741 181H732V201H741V181Z" fill="url(#paint47_linear_1_2)" fill-opacity="0.6"/>
<path d="M756 80H747V201H756V80Z" fill="url(#paint48_linear_1_2)" fill-opacity="0.6"/>
<path d="M771 108H762V201H771V108Z" fill="url(#paint49_linear_1_2)" fill-opacity="0.6"/>
<path d="M786 110H777V201H786V110Z" fill="url(#paint50_linear_1_2)" fill-opacity="0.6"/>
<path d="M801 140H792V201H801V140Z" fill="url(#paint51_linear_1_2)" fill-opacity="0.6"/>
<path d="M816 74H807V201H816V74Z" fill="url(#paint52_linear_1_2)" fill-opacity="0.6"/>
<path d="M830 120H821V201H830V120Z" fill="url(#paint53_linear_1_2)" fill-opacity="0.6"/>
<path d="M845 186H836V201H845V186Z" fill="url(#paint54_linear_1_2)" fill-opacity="0.6"/>
<path d="M860 149H851V201H860V149Z" fill="url(#paint55_linear_1_2)" fill-opacity="0.6"/>
<path d="M875 48H866V201H875V48Z" fill="url(#paint56_linear_1_2)" fill-opacity="0.6"/>
<path d="M890 154H881V201H890V154Z" fill="url(#paint57_linear_1_2)" fill-opacity="0.6"/>
<path d="M904 56H895V201H904V56Z" fill="url(#paint58_linear_1_2)" fill-opacity="0.6"/>
<path d="M919 159H910V201H919V159Z" fill="url(#paint59_linear_1_2)" fill-opacity="0.6"/>
<path d="M934 135H925V201H934V135Z" fill="url(#paint60_linear_1_2)" fill-opacity="0.6"/>
<path d="M949 65H940V201H949V65Z" fill="url(#paint61_linear_1_2)" fill-opacity="0.6"/>
<path d="M964 56H955V201H964V56Z" fill="url(#paint62_linear_1_2)" fill-opacity="0.6"/>
<path d="M978 116H969V201H978V116Z" fill="url(#paint63_linear_1_2)" fill-opacity="0.6"/>
<path d="M993 77H984V201H993V77Z" fill="url(#paint64_linear_1_2)" fill-opacity="0.6"/>
<path d="M1008 175H999V201H1008V175Z" fill="url(#paint65_linear_1_2)" fill-opacity="0.6"/>
<path d="M1023 50H1014V201H1023V50Z" fill="url(#paint66_linear_1_2)" fill-opacity="0.6"/>
<path d="M1038 194H1029V201H1038V194Z" fill="url(#paint67_linear_1_2)" fill-opacity="0.6"/>
<path d="M1053 181H1044V201H1053V181Z" fill="url(#paint68_linear_1_2)" fill-opacity="0.6"/>
<path d="M1067 95H1058V201H1067V95Z" fill="url(#paint69_linear_1_2)" fill-opacity="0.6"/>
<path d="M1082 52H1073V201H1082V52Z" fill="url(#paint70_linear_1_2)" fill-opacity="0.6"/>
<path d="M1097 59H1088V201H1097V59Z" fill="url(#paint71_linear_1_2)" fill-opacity="0.6"/>
<path d="M1112 102H1103V201H1112V102Z" fill="url(#paint72_linear_1_2)" fill-opacity="0.6"/>
<path d="M1127 120H1118V201H1127V120Z" fill="url(#paint73_linear_1_2)" fill-opacity="0.6"/>
<path d="M1141 145H1132V201H1141V145Z" fill="url(#paint74_linear_1_2)" fill-opacity="0.6"/>
<path d="M1156 80H1147V201H1156V80Z" fill="url(#paint75_linear_1_2)" fill-opacity="0.6"/>
<path d="M1171 42H1162V201H1171V42Z" fill="url(#paint76_linear_1_2)" fill-opacity="0.6"/>
<path d="M1186 49H1177V201H1186V49Z" fill="url(#paint77_linear_1_2)" fill-opacity="0.6"/>
<path d="M1201 59H1192V201H1201V59Z" fill="url(#paint78_linear_1_2)" fill-opacity="0.6"/>
<path d="M1215 148H1206V201H1215V148Z" fill="url(#paint79_linear_1_2)" fill-opacity="0.6"/>
<path d="M1230 87H1221V201H1230V87Z" fill="url(#paint80_linear_1_2)" fill-opacity="0.6"/>
<path d="M1245 56H1236V201H1245V56Z" fill="url(#paint81_linear_1_2)" fill-opacity="0.6"/>
<path d="M1260 150H1251V201H1260V150Z" fill="url(#paint82_linear_1_2)" fill-opacity="0.6"/>
<path d="M1275 148H1266V201H1275V148Z" fill="url(#paint83_linear_1_2)" fill-opacity="0.6"/>
<path d="M1290 108H1281V201H1290V108Z" fill="url(#paint84_linear_1_2)" fill-opacity="0.6"/>
<path d="M1304 123H1295V201H1304V123Z" fill="url(#paint85_linear_1_2)" fill-opacity="0.6"/>
<path d="M1319 168H1310V201H1319V168Z" fill="url(#paint86_linear_1_2)" fill-opacity="0.6"/>
<path d="M1334 90H1325V201H1334V90Z" fill="url(#paint87_linear_1_2)" fill-opacity="0.6"/>
<path d="M1349 59H1340V201H1349V59Z" fill="url(#paint88_linear_1_2)" fill-opacity="0.6"/>
<path d="M1364 68H1355V201H1364V68Z" fill="url(#paint89_linear_1_2)" fill-opacity="0.6"/>
<path d="M36.5 134L79.1172 139.682C80.6615 139.888 82.2303 139.573 83.5752 138.787L144.111 103.397C145.646 102.499 147.465 102.22 149.199 102.615L184.241 110.599C185.395 110.862 186.463 111.413 187.346 112.201L214.557 136.481C216.89 138.564 220.322 138.845 222.964 137.171L266.149 109.806C267.951 108.665 270.174 108.407 272.189 109.105L304.304 120.239C305.73 120.733 307.277 120.753 308.715 120.297L330.207 113.474C334.301 112.174 338.59 114.835 339.243 119.082L341.053 130.843C341.894 136.313 348.452 138.689 352.603 135.027L368.5 121L387.842 107.419C390.322 105.678 393.64 105.73 396.064 107.548L409.695 117.771C412.233 119.675 415.735 119.633 418.227 117.67L425.836 111.674C428.527 109.555 432.356 109.693 434.886 112.001L457.637 132.756C458.53 133.572 459.62 134.141 460.799 134.41L522.365 148.444C525.163 149.081 528.067 147.947 529.691 145.581L554.378 109.634C555.111 108.566 556.127 107.722 557.313 107.197L589.907 92.7564C592.888 91.4357 596.386 92.3481 598.342 94.9565L603.4 101.7C604.722 103.463 606.797 104.5 609 104.5H630.109C630.701 104.5 631.29 104.425 631.863 104.277L669.972 94.413C672.183 93.8408 674.534 94.383 676.271 95.8657L694 111L741.5 146.5L766.301 166.08C768.537 167.845 771.62 168.079 774.097 166.672L789.158 158.115C790.959 157.091 793.122 156.919 795.063 157.643L823.43 168.228C824.777 168.73 826.247 168.806 827.638 168.444L922.896 143.677C924.572 143.241 926.35 143.442 927.887 144.241L969.397 165.826C972.785 167.588 976.959 166.31 978.78 162.953L991.107 140.224C991.368 139.743 991.572 139.233 991.714 138.705L1017.13 44.1836C1018.96 37.3831 1028.56 37.2359 1030.59 43.9772L1050.53 109.965C1051.62 113.6 1055.42 115.697 1059.08 114.69L1067.4 112.402C1070.42 111.572 1073.62 112.844 1075.24 115.518L1079.47 122.486C1080.45 124.094 1082.03 125.241 1083.86 125.67L1140.47 138.908C1142.1 139.29 1143.82 139.072 1145.31 138.295L1193.38 113.154C1195.88 111.849 1198.91 112.167 1201.08 113.962L1241.79 147.608C1244.49 149.838 1248.42 149.733 1250.99 147.361L1279.89 120.742C1282.52 118.326 1286.54 118.268 1289.23 120.605L1299.41 129.447C1301.82 131.539 1305.34 131.738 1307.96 129.931L1324.72 118.408C1326.48 117.202 1328.69 116.86 1330.72 117.478L1355.5 125" stroke="url(#paint90_linear_1_2)" stroke-width="4"/>
<defs>
<linearGradient id="paint0_linear_1_2" x1="40.5" y1="71" x2="40.5" y2="201" gradientUnits="userSpaceOnUse">
<stop stop-color="#3169FA" stop-opacity="0.37"/>
<stop offset="0.46875" stop-color="#5931FA" stop-opacity="0.665313"/>
<stop offset="1" stop-color="#3169FA"/>
</linearGradient>
<linearGradient id="paint1_linear_1_2" x1="55.5" y1="34" x2="55.5" y2="201" gradientUnits="userSpaceOnUse">
<stop stop-color="#3169FA" stop-opacity="0.37"/>
<stop offset="0.46875" stop-color="#5931FA" stop-opacity="0.665313"/>
<stop offset="1" stop-color="#3169FA"/>
</linearGradient>
<linearGradient id="paint2_linear_1_2" x1="70.5" y1="62" x2="70.5" y2="201" gradientUnits="userSpaceOnUse">
<stop stop-color="#3169FA" stop-opacity="0.37"/>
<stop offset="0.46875" stop-color="#5931FA" stop-opacity="0.665313"/>
<stop offset="1" stop-color="#3169FA"/>
</linearGradient>
<linearGradient id="paint3_linear_1_2" x1="85.5" y1="102" x2="85.5" y2="201" gradientUnits="userSpaceOnUse">
<stop stop-color="#3169FA" stop-opacity="0.37"/>
<stop offset="0.46875" stop-color="#5931FA" stop-opacity="0.665313"/>
<stop offset="1" stop-color="#3169FA"/>
</linearGradient>
<linearGradient id="paint4_linear_1_2" x1="100.5" y1="66" x2="100.5" y2="201" gradientUnits="userSpaceOnUse">
<stop stop-color="#3169FA" stop-opacity="0.37"/>
<stop offset="0.46875" stop-color="#5931FA" stop-opacity="0.665313"/>
<stop offset="1" stop-color="#3169FA"/>
</linearGradient>
<linearGradient id="paint5_linear_1_2" x1="114.5" y1="89" x2="114.5" y2="201" gradientUnits="userSpaceOnUse">
<stop stop-color="#3169FA" stop-opacity="0.37"/>
<stop offset="0.46875" stop-color="#5931FA" stop-opacity="0.665313"/>
<stop offset="1" stop-color="#3169FA"/>
</linearGradient>
<linearGradient id="paint6_linear_1_2" x1="129.5" y1="67" x2="129.5" y2="201" gradientUnits="userSpaceOnUse">
<stop stop-color="#3169FA" stop-opacity="0.37"/>
<stop offset="0.46875" stop-color="#5931FA" stop-opacity="0.665313"/>
<stop offset="1" stop-color="#3169FA"/>
</linearGradient>
<linearGradient id="paint7_linear_1_2" x1="144.5" y1="49" x2="144.5" y2="201" gradientUnits="userSpaceOnUse">
<stop stop-color="#3169FA" stop-opacity="0.37"/>
<stop offset="0.46875" stop-color="#5931FA" stop-opacity="0.665313"/>
<stop offset="1" stop-color="#3169FA"/>
</linearGradient>
<linearGradient id="paint8_linear_1_2" x1="159.5" y1="161" x2="159.5" y2="201" gradientUnits="userSpaceOnUse">
<stop stop-color="#3169FA" stop-opacity="0.37"/>
<stop offset="0.46875" stop-color="#5931FA" stop-opacity="0.665313"/>
<stop offset="1" stop-color="#3169FA"/>
</linearGradient>
<linearGradient id="paint9_linear_1_2" x1="174.5" y1="152" x2="174.5" y2="201" gradientUnits="userSpaceOnUse">
<stop stop-color="#3169FA" stop-opacity="0.37"/>
<stop offset="0.46875" stop-color="#5931FA" stop-opacity="0.665313"/>
<stop offset="1" stop-color="#3169FA"/>
</linearGradient>
<linearGradient id="paint10_linear_1_2" x1="188.5" y1="148" x2="188.5" y2="201" gradientUnits="userSpaceOnUse">
<stop stop-color="#3169FA" stop-opacity="0.37"/>
<stop offset="0.46875" stop-color="#5931FA" stop-opacity="0.665313"/>
<stop offset="1" stop-color="#3169FA"/>
</linearGradient>
<linearGradient id="paint11_linear_1_2" x1="203.5" y1="115" x2="203.5" y2="201" gradientUnits="userSpaceOnUse">
<stop stop-color="#3169FA" stop-opacity="0.37"/>
<stop offset="0.46875" stop-color="#5931FA" stop-opacity="0.665313"/>
<stop offset="1" stop-color="#3169FA"/>
</linearGradient>
<linearGradient id="paint12_linear_1_2" x1="218.5" y1="128" x2="218.5" y2="201" gradientUnits="userSpaceOnUse">
<stop stop-color="#3169FA" stop-opacity="0.37"/>
<stop offset="0.46875" stop-color="#5931FA" stop-opacity="0.665313"/>
<stop offset="1" stop-color="#3169FA"/>
</linearGradient>
<linearGradient id="paint13_linear_1_2" x1="233.5" y1="161" x2="233.5" y2="201" gradientUnits="userSpaceOnUse">
<stop stop-color="#3169FA" stop-opacity="0.37"/>
<stop offset="0.46875" stop-color="#5931FA" stop-opacity="0.665313"/>
<stop offset="1" stop-color="#3169FA"/>
</linearGradient>
<linearGradient id="paint14_linear_1_2" x1="248.5" y1="56" x2="248.5" y2="201" gradientUnits="userSpaceOnUse">
<stop stop-color="#3169FA" stop-opacity="0.37"/>
<stop offset="0.46875" stop-color="#5931FA" stop-opacity="0.665313"/>
<stop offset="1" stop-color="#3169FA"/>
</linearGradient>
<linearGradient id="paint15_linear_1_2" x1="263.5" y1="98" x2="263.5" y2="201" gradientUnits="userSpaceOnUse">
<stop stop-color="#3169FA" stop-opacity="0.37"/>
<stop offset="0.46875" stop-color="#5931FA" stop-opacity="0.665313"/>
<stop offset="1" stop-color="#3169FA"/>
</linearGradient>
<linearGradient id="paint16_linear_1_2" x1="277.5" y1="84" x2="277.5" y2="201" gradientUnits="userSpaceOnUse">
<stop stop-color="#3169FA" stop-opacity="0.37"/>
<stop offset="0.46875" stop-color="#5931FA" stop-opacity="0.665313"/>
<stop offset="1" stop-color="#3169FA"/>
</linearGradient>
<linearGradient id="paint17_linear_1_2" x1="292.5" y1="173" x2="292.5" y2="201" gradientUnits="userSpaceOnUse">
<stop stop-color="#3169FA" stop-opacity="0.37"/>
<stop offset="0.46875" stop-color="#5931FA" stop-opacity="0.665313"/>
<stop offset="1" stop-color="#3169FA"/>
</linearGradient>
<linearGradient id="paint18_linear_1_2" x1="307.5" y1="79" x2="307.5" y2="201" gradientUnits="userSpaceOnUse">
<stop stop-color="#3169FA" stop-opacity="0.37"/>
<stop offset="0.46875" stop-color="#5931FA" stop-opacity="0.665313"/>
<stop offset="1" stop-color="#3169FA"/>
</linearGradient>
<linearGradient id="paint19_linear_1_2" x1="322.5" y1="67" x2="322.5" y2="201" gradientUnits="userSpaceOnUse">
<stop stop-color="#3169FA" stop-opacity="0.37"/>
<stop offset="0.46875" stop-color="#5931FA" stop-opacity="0.665313"/>
<stop offset="1" stop-color="#3169FA"/>
</linearGradient>
<linearGradient id="paint20_linear_1_2" x1="337.5" y1="156" x2="337.5" y2="201" gradientUnits="userSpaceOnUse">
<stop stop-color="#3169FA" stop-opacity="0.37"/>
<stop offset="0.46875" stop-color="#5931FA" stop-opacity="0.665313"/>
<stop offset="1" stop-color="#3169FA"/>
</linearGradient>
<linearGradient id="paint21_linear_1_2" x1="351.5" y1="148" x2="351.5" y2="201" gradientUnits="userSpaceOnUse">
<stop stop-color="#3169FA" stop-opacity="0.37"/>
<stop offset="0.46875" stop-color="#5931FA" stop-opacity="0.665313"/>
<stop offset="1" stop-color="#3169FA"/>
</linearGradient>
<linearGradient id="paint22_linear_1_2" x1="366.5" y1="124" x2="366.5" y2="201" gradientUnits="userSpaceOnUse">
<stop stop-color="#3169FA" stop-opacity="0.37"/>
<stop offset="0.46875" stop-color="#5931FA" stop-opacity="0.665313"/>
<stop offset="1" stop-color="#3169FA"/>
</linearGradient>
<linearGradient id="paint23_linear_1_2" x1="381.5" y1="140" x2="381.5" y2="201" gradientUnits="userSpaceOnUse">
<stop stop-color="#3169FA" stop-opacity="0.37"/>
<stop offset="0.46875" stop-color="#5931FA" stop-opacity="0.665313"/>
<stop offset="1" stop-color="#3169FA"/>
</linearGradient>
<linearGradient id="paint24_linear_1_2" x1="396.5" y1="52" x2="396.5" y2="201" gradientUnits="userSpaceOnUse">
<stop stop-color="#3169FA" stop-opacity="0.37"/>
<stop offset="0.46875" stop-color="#5931FA" stop-opacity="0.665313"/>
<stop offset="1" stop-color="#3169FA"/>
</linearGradient>
<linearGradient id="paint25_linear_1_2" x1="411.5" y1="56" x2="411.5" y2="201" gradientUnits="userSpaceOnUse">
<stop stop-color="#3169FA" stop-opacity="0.37"/>
<stop offset="0.46875" stop-color="#5931FA" stop-opacity="0.665313"/>
<stop offset="1" stop-color="#3169FA"/>
</linearGradient>
<linearGradient id="paint26_linear_1_2" x1="425.5" y1="148" x2="425.5" y2="201" gradientUnits="userSpaceOnUse">
<stop stop-color="#3169FA" stop-opacity="0.37"/>
<stop offset="0.46875" stop-color="#5931FA" stop-opacity="0.665313"/>
<stop offset="1" stop-color="#3169FA"/>
</linearGradient>
<linearGradient id="paint27_linear_1_2" x1="440.5" y1="130" x2="440.5" y2="201" gradientUnits="userSpaceOnUse">
<stop stop-color="#3169FA" stop-opacity="0.37"/>
<stop offset="0.46875" stop-color="#5931FA" stop-opacity="0.665313"/>
<stop offset="1" stop-color="#3169FA"/>
</linearGradient>
<linearGradient id="paint28_linear_1_2" x1="455.5" y1="111" x2="455.5" y2="201" gradientUnits="userSpaceOnUse">
<stop stop-color="#3169FA" stop-opacity="0.37"/>
<stop offset="0.46875" stop-color="#5931FA" stop-opacity="0.665313"/>
<stop offset="1" stop-color="#3169FA"/>
</linearGradient>
<linearGradient id="paint29_linear_1_2" x1="470.5" y1="69" x2="470.5" y2="201" gradientUnits="userSpaceOnUse">
<stop stop-color="#3169FA" stop-opacity="0.37"/>
<stop offset="0.46875" stop-color="#5931FA" stop-opacity="0.665313"/>
<stop offset="1" stop-color="#3169FA"/>
</linearGradient>
<linearGradient id="paint30_linear_1_2" x1="485.5" y1="85" x2="485.5" y2="201" gradientUnits="userSpaceOnUse">
<stop stop-color="#3169FA" stop-opacity="0.37"/>
<stop offset="0.46875" stop-color="#5931FA" stop-opacity="0.665313"/>
<stop offset="1" stop-color="#3169FA"/>
</linearGradient>
<linearGradient id="paint31_linear_1_2" x1="500.5" y1="70" x2="500.5" y2="201" gradientUnits="userSpaceOnUse">
<stop stop-color="#3169FA" stop-opacity="0.37"/>
<stop offset="0.46875" stop-color="#5931FA" stop-opacity="0.665313"/>
<stop offset="1" stop-color="#3169FA"/>
</linearGradient>
<linearGradient id="paint32_linear_1_2" x1="514.5" y1="99" x2="514.5" y2="201" gradientUnits="userSpaceOnUse">
<stop stop-color="#3169FA" stop-opacity="0.37"/>
<stop offset="0.46875" stop-color="#5931FA" stop-opacity="0.665313"/>
<stop offset="1" stop-color="#3169FA"/>
</linearGradient>
<linearGradient id="paint33_linear_1_2" x1="529.5" y1="152" x2="529.5" y2="201" gradientUnits="userSpaceOnUse">
<stop stop-color="#3169FA" stop-opacity="0.37"/>
<stop offset="0.46875" stop-color="#5931FA" stop-opacity="0.665313"/>
<stop offset="1" stop-color="#3169FA"/>
</linearGradient>
<linearGradient id="paint34_linear_1_2" x1="544.5" y1="51" x2="544.5" y2="201" gradientUnits="userSpaceOnUse">
<stop stop-color="#3169FA" stop-opacity="0.37"/>
<stop offset="0.46875" stop-color="#5931FA" stop-opacity="0.665313"/>
<stop offset="1" stop-color="#3169FA"/>
</linearGradient>
<linearGradient id="paint35_linear_1_2" x1="559.5" y1="102" x2="559.5" y2="201" gradientUnits="userSpaceOnUse">
<stop stop-color="#3169FA" stop-opacity="0.37"/>
<stop offset="0.46875" stop-color="#5931FA" stop-opacity="0.665313"/>
<stop offset="1" stop-color="#3169FA"/>
</linearGradient>
<linearGradient id="paint36_linear_1_2" x1="574.5" y1="152" x2="574.5" y2="201" gradientUnits="userSpaceOnUse">
<stop stop-color="#3169FA" stop-opacity="0.37"/>
<stop offset="0.46875" stop-color="#5931FA" stop-opacity="0.665313"/>
<stop offset="1" stop-color="#3169FA"/>
</linearGradient>
<linearGradient id="paint37_linear_1_2" x1="588.5" y1="99" x2="588.5" y2="201" gradientUnits="userSpaceOnUse">
<stop stop-color="#3169FA" stop-opacity="0.37"/>
<stop offset="0.46875" stop-color="#5931FA" stop-opacity="0.665313"/>
<stop offset="1" stop-color="#3169FA"/>
</linearGradient>
<linearGradient id="paint38_linear_1_2" x1="603.5" y1="81" x2="603.5" y2="201" gradientUnits="userSpaceOnUse">
<stop stop-color="#3169FA" stop-opacity="0.37"/>
<stop offset="0.46875" stop-color="#5931FA" stop-opacity="0.665313"/>
<stop offset="1" stop-color="#3169FA"/>
</linearGradient>
<linearGradient id="paint39_linear_1_2" x1="618.5" y1="57" x2="618.5" y2="201" gradientUnits="userSpaceOnUse">
<stop stop-color="#3169FA" stop-opacity="0.37"/>
<stop offset="0.46875" stop-color="#5931FA" stop-opacity="0.665313"/>
<stop offset="1" stop-color="#3169FA"/>
</linearGradient>
<linearGradient id="paint40_linear_1_2" x1="633.5" y1="41" x2="633.5" y2="201" gradientUnits="userSpaceOnUse">
<stop stop-color="#3169FA" stop-opacity="0.37"/>
<stop offset="0.46875" stop-color="#5931FA" stop-opacity="0.665313"/>
<stop offset="1" stop-color="#3169FA"/>
</linearGradient>
<linearGradient id="paint41_linear_1_2" x1="648.5" y1="127" x2="648.5" y2="201" gradientUnits="userSpaceOnUse">
<stop stop-color="#3169FA" stop-opacity="0.37"/>
<stop offset="0.46875" stop-color="#5931FA" stop-opacity="0.665313"/>
<stop offset="1" stop-color="#3169FA"/>
</linearGradient>
<linearGradient id="paint42_linear_1_2" x1="662.5" y1="108" x2="662.5" y2="201" gradientUnits="userSpaceOnUse">
<stop stop-color="#3169FA" stop-opacity="0.37"/>
<stop offset="0.46875" stop-color="#5931FA" stop-opacity="0.665313"/>
<stop offset="1" stop-color="#3169FA"/>
</linearGradient>
<linearGradient id="paint43_linear_1_2" x1="677.5" y1="68" x2="677.5" y2="201" gradientUnits="userSpaceOnUse">
<stop stop-color="#3169FA" stop-opacity="0.37"/>
<stop offset="0.46875" stop-color="#5931FA" stop-opacity="0.665313"/>
<stop offset="1" stop-color="#3169FA"/>
</linearGradient>
<linearGradient id="paint44_linear_1_2" x1="692.5" y1="59" x2="692.5" y2="201" gradientUnits="userSpaceOnUse">
<stop stop-color="#3169FA" stop-opacity="0.37"/>
<stop offset="0.46875" stop-color="#5931FA" stop-opacity="0.665313"/>
<stop offset="1" stop-color="#3169FA"/>
</linearGradient>
<linearGradient id="paint45_linear_1_2" x1="707.5" y1="167" x2="707.5" y2="201" gradientUnits="userSpaceOnUse">
<stop stop-color="#3169FA" stop-opacity="0.37"/>
<stop offset="0.46875" stop-color="#5931FA" stop-opacity="0.665313"/>
<stop offset="1" stop-color="#3169FA"/>
</linearGradient>
<linearGradient id="paint46_linear_1_2" x1="722.5" y1="70" x2="722.5" y2="201" gradientUnits="userSpaceOnUse">
<stop stop-color="#3169FA" stop-opacity="0.37"/>
<stop offset="0.46875" stop-color="#5931FA" stop-opacity="0.665313"/>
<stop offset="1" stop-color="#3169FA"/>
</linearGradient>
<linearGradient id="paint47_linear_1_2" x1="736.5" y1="181" x2="736.5" y2="201" gradientUnits="userSpaceOnUse">
<stop stop-color="#3169FA" stop-opacity="0.37"/>
<stop offset="0.46875" stop-color="#5931FA" stop-opacity="0.665313"/>
<stop offset="1" stop-color="#3169FA"/>
</linearGradient>
<linearGradient id="paint48_linear_1_2" x1="751.5" y1="80" x2="751.5" y2="201" gradientUnits="userSpaceOnUse">
<stop stop-color="#3169FA" stop-opacity="0.37"/>
<stop offset="0.46875" stop-color="#5931FA" stop-opacity="0.665313"/>
<stop offset="1" stop-color="#3169FA"/>
</linearGradient>
<linearGradient id="paint49_linear_1_2" x1="766.5" y1="108" x2="766.5" y2="201" gradientUnits="userSpaceOnUse">
<stop stop-color="#3169FA" stop-opacity="0.37"/>
<stop offset="0.46875" stop-color="#5931FA" stop-opacity="0.665313"/>
<stop offset="1" stop-color="#3169FA"/>
</linearGradient>
<linearGradient id="paint50_linear_1_2" x1="781.5" y1="110" x2="781.5" y2="201" gradientUnits="userSpaceOnUse">
<stop stop-color="#3169FA" stop-opacity="0.37"/>
<stop offset="0.46875" stop-color="#5931FA" stop-opacity="0.665313"/>
<stop offset="1" stop-color="#3169FA"/>
</linearGradient>
<linearGradient id="paint51_linear_1_2" x1="796.5" y1="140" x2="796.5" y2="201" gradientUnits="userSpaceOnUse">
<stop stop-color="#3169FA" stop-opacity="0.37"/>
<stop offset="0.46875" stop-color="#5931FA" stop-opacity="0.665313"/>
<stop offset="1" stop-color="#3169FA"/>
</linearGradient>
<linearGradient id="paint52_linear_1_2" x1="811.5" y1="74" x2="811.5" y2="201" gradientUnits="userSpaceOnUse">
<stop stop-color="#3169FA" stop-opacity="0.37"/>
<stop offset="0.46875" stop-color="#5931FA" stop-opacity="0.665313"/>
<stop offset="1" stop-color="#3169FA"/>
</linearGradient>
<linearGradient id="paint53_linear_1_2" x1="825.5" y1="120" x2="825.5" y2="201" gradientUnits="userSpaceOnUse">
<stop stop-color="#3169FA" stop-opacity="0.37"/>
<stop offset="0.46875" stop-color="#5931FA" stop-opacity="0.665313"/>
<stop offset="1" stop-color="#3169FA"/>
</linearGradient>
<linearGradient id="paint54_linear_1_2" x1="840.5" y1="186" x2="840.5" y2="201" gradientUnits="userSpaceOnUse">
<stop stop-color="#3169FA" stop-opacity="0.37"/>
<stop offset="0.46875" stop-color="#5931FA" stop-opacity="0.665313"/>
<stop offset="1" stop-color="#3169FA"/>
</linearGradient>
<linearGradient id="paint55_linear_1_2" x1="855.5" y1="149" x2="855.5" y2="201" gradientUnits="userSpaceOnUse">
<stop stop-color="#3169FA" stop-opacity="0.37"/>
<stop offset="0.46875" stop-color="#5931FA" stop-opacity="0.665313"/>
<stop offset="1" stop-color="#3169FA"/>
</linearGradient>
<linearGradient id="paint56_linear_1_2" x1="870.5" y1="48" x2="870.5" y2="201" gradientUnits="userSpaceOnUse">
<stop stop-color="#3169FA" stop-opacity="0.37"/>
<stop offset="0.46875" stop-color="#5931FA" stop-opacity="0.665313"/>
<stop offset="1" stop-color="#3169FA"/>
</linearGradient>
<linearGradient id="paint57_linear_1_2" x1="885.5" y1="154" x2="885.5" y2="201" gradientUnits="userSpaceOnUse">
<stop stop-color="#3169FA" stop-opacity="0.37"/>
<stop offset="0.46875" stop-color="#5931FA" stop-opacity="0.665313"/>
<stop offset="1" stop-color="#3169FA"/>
</linearGradient>
<linearGradient id="paint58_linear_1_2" x1="899.5" y1="56" x2="899.5" y2="201" gradientUnits="userSpaceOnUse">
<stop stop-color="#3169FA" stop-opacity="0.37"/>
<stop offset="0.46875" stop-color="#5931FA" stop-opacity="0.665313"/>
<stop offset="1" stop-color="#3169FA"/>
</linearGradient>
<linearGradient id="paint59_linear_1_2" x1="914.5" y1="159" x2="914.5" y2="201" gradientUnits="userSpaceOnUse">
<stop stop-color="#3169FA" stop-opacity="0.37"/>
<stop offset="0.46875" stop-color="#5931FA" stop-opacity="0.665313"/>
<stop offset="1" stop-color="#3169FA"/>
</linearGradient>
<linearGradient id="paint60_linear_1_2" x1="929.5" y1="135" x2="929.5" y2="201" gradientUnits="userSpaceOnUse">
<stop stop-color="#3169FA" stop-opacity="0.37"/>
<stop offset="0.46875" stop-color="#5931FA" stop-opacity="0.665313"/>
<stop offset="1" stop-color="#3169FA"/>
</linearGradient>
<linearGradient id="paint61_linear_1_2" x1="944.5" y1="65" x2="944.5" y2="201" gradientUnits="userSpaceOnUse">
<stop stop-color="#3169FA" stop-opacity="0.37"/>
<stop offset="0.46875" stop-color="#5931FA" stop-opacity="0.665313"/>
<stop offset="1" stop-color="#3169FA"/>
</linearGradient>
<linearGradient id="paint62_linear_1_2" x1="959.5" y1="56" x2="959.5" y2="201" gradientUnits="userSpaceOnUse">
<stop stop-color="#3169FA" stop-opacity="0.37"/>
<stop offset="0.46875" stop-color="#5931FA" stop-opacity="0.665313"/>
<stop offset="1" stop-color="#3169FA"/>
</linearGradient>
<linearGradient id="paint63_linear_1_2" x1="973.5" y1="116" x2="973.5" y2="201" gradientUnits="userSpaceOnUse">
<stop stop-color="#3169FA" stop-opacity="0.37"/>
<stop offset="0.46875" stop-color="#5931FA" stop-opacity="0.665313"/>
<stop offset="1" stop-color="#3169FA"/>
</linearGradient>
<linearGradient id="paint64_linear_1_2" x1="988.5" y1="77" x2="988.5" y2="201" gradientUnits="userSpaceOnUse">
<stop stop-color="#3169FA" stop-opacity="0.37"/>
<stop offset="0.46875" stop-color="#5931FA" stop-opacity="0.665313"/>
<stop offset="1" stop-color="#3169FA"/>
</linearGradient>
<linearGradient id="paint65_linear_1_2" x1="1003.5" y1="175" x2="1003.5" y2="201" gradientUnits="userSpaceOnUse">
<stop stop-color="#3169FA" stop-opacity="0.37"/>
<stop offset="0.46875" stop-color="#5931FA" stop-opacity="0.665313"/>
<stop offset="1" stop-color="#3169FA"/>
</linearGradient>
<linearGradient id="paint66_linear_1_2" x1="1018.5" y1="50" x2="1018.5" y2="201" gradientUnits="userSpaceOnUse">
<stop stop-color="#3169FA" stop-opacity="0.37"/>
<stop offset="0.46875" stop-color="#5931FA" stop-opacity="0.665313"/>
<stop offset="1" stop-color="#3169FA"/>
</linearGradient>
<linearGradient id="paint67_linear_1_2" x1="1033.5" y1="194" x2="1033.5" y2="201" gradientUnits="userSpaceOnUse">
<stop stop-color="#3169FA" stop-opacity="0.37"/>
<stop offset="0.46875" stop-color="#5931FA" stop-opacity="0.665313"/>
<stop offset="1" stop-color="#3169FA"/>
</linearGradient>
<linearGradient id="paint68_linear_1_2" x1="1048.5" y1="181" x2="1048.5" y2="201" gradientUnits="userSpaceOnUse">
<stop stop-color="#3169FA" stop-opacity="0.37"/>
<stop offset="0.46875" stop-color="#5931FA" stop-opacity="0.665313"/>
<stop offset="1" stop-color="#3169FA"/>
</linearGradient>
<linearGradient id="paint69_linear_1_2" x1="1062.5" y1="95" x2="1062.5" y2="201" gradientUnits="userSpaceOnUse">
<stop stop-color="#3169FA" stop-opacity="0.37"/>
<stop offset="0.46875" stop-color="#5931FA" stop-opacity="0.665313"/>
<stop offset="1" stop-color="#3169FA"/>
</linearGradient>
<linearGradient id="paint70_linear_1_2" x1="1077.5" y1="52" x2="1077.5" y2="201" gradientUnits="userSpaceOnUse">
<stop stop-color="#3169FA" stop-opacity="0.37"/>
<stop offset="0.46875" stop-color="#5931FA" stop-opacity="0.665313"/>
<stop offset="1" stop-color="#3169FA"/>
</linearGradient>
<linearGradient id="paint71_linear_1_2" x1="1092.5" y1="59" x2="1092.5" y2="201" gradientUnits="userSpaceOnUse">
<stop stop-color="#3169FA" stop-opacity="0.37"/>
<stop offset="0.46875" stop-color="#5931FA" stop-opacity="0.665313"/>
<stop offset="1" stop-color="#3169FA"/>
</linearGradient>
<linearGradient id="paint72_linear_1_2" x1="1107.5" y1="102" x2="1107.5" y2="201" gradientUnits="userSpaceOnUse">
<stop stop-color="#3169FA" stop-opacity="0.37"/>
<stop offset="0.46875" stop-color="#5931FA" stop-opacity="0.665313"/>
<stop offset="1" stop-color="#3169FA"/>
</linearGradient>
<linearGradient id="paint73_linear_1_2" x1="1122.5" y1="120" x2="1122.5" y2="201" gradientUnits="userSpaceOnUse">
<stop stop-color="#3169FA" stop-opacity="0.37"/>
<stop offset="0.46875" stop-color="#5931FA" stop-opacity="0.665313"/>
<stop offset="1" stop-color="#3169FA"/>
</linearGradient>
<linearGradient id="paint74_linear_1_2" x1="1136.5" y1="145" x2="1136.5" y2="201" gradientUnits="userSpaceOnUse">
<stop stop-color="#3169FA" stop-opacity="0.37"/>
<stop offset="0.46875" stop-color="#5931FA" stop-opacity="0.665313"/>
<stop offset="1" stop-color="#3169FA"/>
</linearGradient>
<linearGradient id="paint75_linear_1_2" x1="1151.5" y1="80" x2="1151.5" y2="201" gradientUnits="userSpaceOnUse">
<stop stop-color="#3169FA" stop-opacity="0.37"/>
<stop offset="0.46875" stop-color="#5931FA" stop-opacity="0.665313"/>
<stop offset="1" stop-color="#3169FA"/>
</linearGradient>
<linearGradient id="paint76_linear_1_2" x1="1166.5" y1="42" x2="1166.5" y2="201" gradientUnits="userSpaceOnUse">
<stop stop-color="#3169FA" stop-opacity="0.37"/>
<stop offset="0.46875" stop-color="#5931FA" stop-opacity="0.665313"/>
<stop offset="1" stop-color="#3169FA"/>
</linearGradient>
<linearGradient id="paint77_linear_1_2" x1="1181.5" y1="49" x2="1181.5" y2="201" gradientUnits="userSpaceOnUse">
<stop stop-color="#3169FA" stop-opacity="0.37"/>
<stop offset="0.46875" stop-color="#5931FA" stop-opacity="0.665313"/>
<stop offset="1" stop-color="#3169FA"/>
</linearGradient>
<linearGradient id="paint78_linear_1_2" x1="1196.5" y1="59" x2="1196.5" y2="201" gradientUnits="userSpaceOnUse">
<stop stop-color="#3169FA" stop-opacity="0.37"/>
<stop offset="0.46875" stop-color="#5931FA" stop-opacity="0.665313"/>
<stop offset="1" stop-color="#3169FA"/>
</linearGradient>
<linearGradient id="paint79_linear_1_2" x1="1210.5" y1="148" x2="1210.5" y2="201" gradientUnits="userSpaceOnUse">
<stop stop-color="#3169FA" stop-opacity="0.37"/>
<stop offset="0.46875" stop-color="#5931FA" stop-opacity="0.665313"/>
<stop offset="1" stop-color="#3169FA"/>
</linearGradient>
<linearGradient id="paint80_linear_1_2" x1="1225.5" y1="87" x2="1225.5" y2="201" gradientUnits="userSpaceOnUse">
<stop stop-color="#3169FA" stop-opacity="0.37"/>
<stop offset="0.46875" stop-color="#5931FA" stop-opacity="0.665313"/>
<stop offset="1" stop-color="#3169FA"/>
</linearGradient>
<linearGradient id="paint81_linear_1_2" x1="1240.5" y1="56" x2="1240.5" y2="201" gradientUnits="userSpaceOnUse">
<stop stop-color="#3169FA" stop-opacity="0.37"/>
<stop offset="0.46875" stop-color="#5931FA" stop-opacity="0.665313"/>
<stop offset="1" stop-color="#3169FA"/>
</linearGradient>
<linearGradient id="paint82_linear_1_2" x1="1255.5" y1="150" x2="1255.5" y2="201" gradientUnits="userSpaceOnUse">
<stop stop-color="#3169FA" stop-opacity="0.37"/>
<stop offset="0.46875" stop-color="#5931FA" stop-opacity="0.665313"/>
<stop offset="1" stop-color="#3169FA"/>
</linearGradient>
<linearGradient id="paint83_linear_1_2" x1="1270.5" y1="148" x2="1270.5" y2="201" gradientUnits="userSpaceOnUse">
<stop stop-color="#3169FA" stop-opacity="0.37"/>
<stop offset="0.46875" stop-color="#5931FA" stop-opacity="0.665313"/>
<stop offset="1" stop-color="#3169FA"/>
</linearGradient>
<linearGradient id="paint84_linear_1_2" x1="1285.5" y1="108" x2="1285.5" y2="201" gradientUnits="userSpaceOnUse">
<stop stop-color="#3169FA" stop-opacity="0.37"/>
<stop offset="0.46875" stop-color="#5931FA" stop-opacity="0.665313"/>
<stop offset="1" stop-color="#3169FA"/>
</linearGradient>
<linearGradient id="paint85_linear_1_2" x1="1299.5" y1="123" x2="1299.5" y2="201" gradientUnits="userSpaceOnUse">
<stop stop-color="#3169FA" stop-opacity="0.37"/>
<stop offset="0.46875" stop-color="#5931FA" stop-opacity="0.665313"/>
<stop offset="1" stop-color="#3169FA"/>
</linearGradient>
<linearGradient id="paint86_linear_1_2" x1="1314.5" y1="168" x2="1314.5" y2="201" gradientUnits="userSpaceOnUse">
<stop stop-color="#3169FA" stop-opacity="0.37"/>
<stop offset="0.46875" stop-color="#5931FA" stop-opacity="0.665313"/>
<stop offset="1" stop-color="#3169FA"/>
</linearGradient>
<linearGradient id="paint87_linear_1_2" x1="1329.5" y1="90" x2="1329.5" y2="201" gradientUnits="userSpaceOnUse">
<stop stop-color="#3169FA" stop-opacity="0.37"/>
<stop offset="0.46875" stop-color="#5931FA" stop-opacity="0.665313"/>
<stop offset="1" stop-color="#3169FA"/>
</linearGradient>
<linearGradient id="paint88_linear_1_2" x1="1344.5" y1="59" x2="1344.5" y2="201" gradientUnits="userSpaceOnUse">
<stop stop-color="#3169FA" stop-opacity="0.37"/>
<stop offset="0.46875" stop-color="#5931FA" stop-opacity="0.665313"/>
<stop offset="1" stop-color="#3169FA"/>
</linearGradient>
<linearGradient id="paint89_linear_1_2" x1="1359.5" y1="68" x2="1359.5" y2="201" gradientUnits="userSpaceOnUse">
<stop stop-color="#3169FA" stop-opacity="0.37"/>
<stop offset="0.46875" stop-color="#5931FA" stop-opacity="0.665313"/>
<stop offset="1" stop-color="#3169FA"/>
</linearGradient>
<linearGradient id="paint90_linear_1_2" x1="37.0001" y1="-538" x2="1120.5" y2="596.5" gradientUnits="userSpaceOnUse">
<stop stop-color="#916BFD"/>
<stop offset="1" stop-color="#2857FD"/>
</linearGradient>
</defs>
</svg>
