<svg width="24" height="24" viewBox="0 0 24 24" fill="none" xmlns="http://www.w3.org/2000/svg">
<path d="M10.8696 2.77445C11.5509 2.3076 12.4492 2.3076 13.1305 2.77445L14.1714 3.48768C14.4888 3.70513 14.8621 3.82644 15.2467 3.83705L16.5081 3.87188C17.3337 3.89468 18.0604 4.42265 18.3372 5.20082L18.7601 6.38968C18.889 6.75213 19.1198 7.06972 19.4246 7.30435L20.4246 8.07393C21.0792 8.57766 21.3567 9.43194 21.1233 10.2242L20.7666 11.4346C20.6579 11.8036 20.6579 12.1962 20.7666 12.5652L21.1233 13.7756C21.3567 14.5678 21.0792 15.4221 20.4246 15.9258L19.4246 16.6954C19.1198 16.93 18.889 17.2476 18.7601 17.6101L18.3372 18.7989C18.0604 19.5771 17.3337 20.1051 16.5081 20.1279L15.2467 20.1627C14.8621 20.1733 14.4888 20.2946 14.1714 20.5121L13.1305 21.2253C12.4492 21.6921 11.5509 21.6921 10.8696 21.2253L9.82867 20.5121C9.51131 20.2946 9.13797 20.1733 8.7534 20.1627L7.49205 20.1279C6.66643 20.1051 5.93974 19.5771 5.66292 18.7989L5.24002 17.6101C5.11109 17.2476 4.88035 16.93 4.57547 16.6954L3.57549 15.9258C2.92094 15.4221 2.64337 14.5678 2.87683 13.7756L3.23348 12.5652C3.34222 12.1962 3.34222 11.8036 3.23348 11.4346L2.87683 10.2242C2.64337 9.43194 2.92095 8.57766 3.57549 8.07393L4.57547 7.30435C4.88035 7.06972 5.11109 6.75213 5.24002 6.38967L5.66292 5.20082C5.93974 4.42265 6.66643 3.89468 7.49205 3.87188L8.7534 3.83705C9.13797 3.82644 9.51131 3.70513 9.82867 3.48768L10.8696 2.77445Z" fill="#3169FA"/>
<path fill-rule="evenodd" clip-rule="evenodd" d="M8.4714 12.1853C8.21106 12.4457 8.21105 12.8678 8.4714 13.1281L9.88562 14.5424C9.88819 14.5449 9.89078 14.5475 9.89337 14.55L10.8284 15.4851L11.7646 14.5489C11.7668 14.5468 11.769 14.5446 11.7712 14.5424L11.7712 14.5423L16.0139 10.2997C16.2742 10.0393 16.2742 9.6172 16.0139 9.35685C15.7535 9.0965 15.3314 9.0965 15.0711 9.35685L10.8284 13.5995L9.41421 12.1853C9.15386 11.925 8.73175 11.925 8.4714 12.1853Z" fill="white"/>
</svg>
