<svg width="535" height="437" viewBox="0 0 535 437" fill="none" xmlns="http://www.w3.org/2000/svg">
<g filter="url(#filter0_b_190_1579)">
<rect x="0.599976" width="534.4" height="436.8" rx="25.6" fill="url(#paint0_linear_190_1579)"/>
<g filter="url(#filter1_d_190_1579)">
<rect x="195.8" y="164.8" width="136.938" height="42.4" rx="21.2" fill="white" shape-rendering="crispEdges"/>
<path fill-rule="evenodd" clip-rule="evenodd" d="M224.6 176C226.042 176 227.41 176.318 228.637 176.888L226.292 178.79C225.75 178.656 225.183 178.585 224.6 178.585C220.726 178.585 217.585 181.726 217.585 185.6C217.585 187.822 218.618 189.803 220.23 191.089L218.74 193.205C216.465 191.449 215 188.696 215 185.6C215 180.298 219.298 176 224.6 176ZM222.985 192.429L220.622 194.339C221.834 194.892 223.181 195.2 224.6 195.2C229.902 195.2 234.2 190.902 234.2 185.6C234.2 182.509 232.739 179.759 230.47 178.003L228.985 180.124C230.589 181.41 231.615 183.385 231.615 185.6C231.615 189.474 228.474 192.615 224.6 192.615C224.044 192.615 223.504 192.551 222.985 192.429Z" fill="#3169FA"/>
<path fill-rule="evenodd" clip-rule="evenodd" d="M230.569 176.741C230.647 176.629 230.503 176.495 230.397 176.581L219.049 185.789C218.974 185.849 219 185.969 219.093 185.994L223.75 187.262C223.829 187.284 223.864 187.377 223.817 187.444L218.53 194.952C218.452 195.064 218.595 195.198 218.701 195.113L230.064 185.926C230.139 185.866 230.113 185.746 230.02 185.721L225.363 184.453C225.284 184.431 225.25 184.338 225.296 184.271L230.569 176.741Z" fill="black"/>
<path d="M243.254 183.333C243.16 183.333 243.082 183.261 243.063 183.169C242.985 182.783 242.785 182.477 242.461 182.25C242.097 181.991 241.622 181.862 241.038 181.862C240.628 181.862 240.275 181.924 239.981 182.048C239.688 182.172 239.463 182.34 239.307 182.552C239.151 182.765 239.072 183.007 239.068 183.28C239.068 183.506 239.119 183.703 239.222 183.869C239.328 184.036 239.472 184.177 239.652 184.294C239.833 184.407 240.033 184.503 240.252 184.581C240.472 184.659 240.693 184.724 240.916 184.777L241.936 185.032C242.346 185.128 242.741 185.257 243.12 185.42C243.502 185.583 243.844 185.788 244.145 186.036C244.449 186.284 244.69 186.583 244.867 186.933C245.044 187.284 245.132 187.694 245.132 188.165C245.132 188.802 244.97 189.364 244.644 189.849C244.318 190.33 243.847 190.707 243.231 190.98C242.619 191.249 241.877 191.383 241.006 191.383C240.16 191.383 239.426 191.252 238.803 190.99C238.183 190.728 237.698 190.346 237.348 189.843C237.032 189.386 236.848 188.837 236.796 188.198C236.788 188.093 236.872 188.006 236.977 188.006H238.552C238.648 188.006 238.727 188.081 238.742 188.176C238.789 188.48 238.9 188.738 239.073 188.951C239.279 189.202 239.546 189.39 239.875 189.514C240.208 189.638 240.58 189.7 240.99 189.7C241.419 189.7 241.794 189.636 242.116 189.509C242.442 189.378 242.697 189.197 242.881 188.967C243.065 188.733 243.159 188.461 243.162 188.149C243.159 187.866 243.076 187.632 242.913 187.448C242.75 187.261 242.522 187.105 242.228 186.981C241.937 186.854 241.598 186.74 241.208 186.641L239.971 186.323C239.075 186.092 238.367 185.744 237.847 185.276C237.33 184.806 237.071 184.181 237.071 183.402C237.071 182.761 237.245 182.2 237.592 181.718C237.942 181.237 238.418 180.864 239.02 180.598C239.622 180.329 240.304 180.194 241.065 180.194C241.837 180.194 242.513 180.329 243.093 180.598C243.677 180.864 244.136 181.233 244.469 181.708C244.767 182.13 244.936 182.609 244.975 183.145C244.983 183.248 244.899 183.333 244.796 183.333H243.254Z" fill="black"/>
<path d="M248.467 180.343C248.569 180.343 248.651 180.426 248.651 180.528V191.034C248.651 191.136 248.569 191.219 248.467 191.219H246.914C246.812 191.219 246.729 191.136 246.729 191.034V180.528C246.729 180.426 246.812 180.343 246.914 180.343H248.467Z" fill="black"/>
<path d="M250.738 191.219C250.636 191.219 250.553 191.136 250.553 191.034V183.247C250.553 183.145 250.636 183.062 250.738 183.062H252.291C252.393 183.062 252.476 183.145 252.476 183.247V191.034C252.476 191.136 252.393 191.219 252.291 191.219H250.738ZM251.52 181.904C251.215 181.904 250.953 181.803 250.734 181.602C250.515 181.396 250.405 181.15 250.405 180.864C250.405 180.573 250.515 180.327 250.734 180.125C250.953 179.92 251.215 179.817 251.52 179.817C251.828 179.817 252.09 179.92 252.306 180.125C252.525 180.327 252.635 180.573 252.635 180.864C252.635 181.15 252.525 181.396 252.306 181.602C252.09 181.803 251.828 181.904 251.52 181.904Z" fill="black"/>
<path d="M257.936 191.378C257.121 191.378 256.422 191.199 255.838 190.842C255.258 190.484 254.81 189.99 254.495 189.36C254.183 188.726 254.027 187.997 254.027 187.172C254.027 186.344 254.187 185.613 254.505 184.979C254.824 184.342 255.273 183.846 255.854 183.492C256.438 183.135 257.129 182.956 257.925 182.956C258.587 182.956 259.173 183.078 259.683 183.322C260.196 183.563 260.605 183.905 260.909 184.347C261.179 184.736 261.346 185.184 261.41 185.69C261.424 185.796 261.339 185.887 261.231 185.887H259.745C259.657 185.887 259.582 185.824 259.559 185.738C259.471 185.411 259.305 185.133 259.061 184.905C258.785 184.639 258.415 184.506 257.952 184.506C257.559 184.506 257.213 184.613 256.916 184.825C256.619 185.034 256.387 185.335 256.22 185.728C256.058 186.121 255.976 186.592 255.976 187.14C255.976 187.696 256.058 188.174 256.22 188.574C256.383 188.971 256.612 189.277 256.905 189.493C257.203 189.705 257.552 189.811 257.952 189.811C258.235 189.811 258.488 189.758 258.711 189.652C258.938 189.542 259.127 189.385 259.279 189.179C259.405 189.01 259.498 188.81 259.559 188.579C259.581 188.494 259.656 188.431 259.745 188.431H261.23C261.338 188.431 261.423 188.523 261.409 188.63C261.343 189.126 261.18 189.571 260.92 189.965C260.626 190.408 260.226 190.755 259.72 191.006C259.214 191.254 258.619 191.378 257.936 191.378Z" fill="black"/>
<path d="M266.545 191.378C265.727 191.378 265.021 191.208 264.426 190.868C263.835 190.525 263.38 190.04 263.061 189.413C262.742 188.783 262.583 188.041 262.583 187.188C262.583 186.349 262.742 185.613 263.061 184.979C263.383 184.342 263.833 183.846 264.41 183.492C264.987 183.135 265.665 182.956 266.444 182.956C266.946 182.956 267.421 183.037 267.867 183.2C268.316 183.359 268.713 183.607 269.056 183.943C269.403 184.28 269.676 184.708 269.874 185.229C270.072 185.745 270.172 186.361 270.172 187.077V187.481C270.172 187.583 270.089 187.666 269.987 187.666H263.67C263.569 187.666 263.486 187.583 263.486 187.481V186.555C263.486 186.453 263.569 186.37 263.67 186.37H268.142C268.245 186.37 268.329 186.286 268.32 186.184C268.296 185.891 268.219 185.625 268.09 185.388C267.934 185.098 267.716 184.869 267.437 184.703C267.161 184.536 266.838 184.453 266.47 184.453C266.077 184.453 265.732 184.549 265.435 184.74C265.137 184.928 264.906 185.175 264.739 185.483C264.576 185.788 264.493 186.122 264.49 186.487V187.618C264.49 188.093 264.576 188.5 264.75 188.84C264.923 189.176 265.166 189.434 265.477 189.615C265.789 189.792 266.153 189.88 266.571 189.88C266.851 189.88 267.104 189.841 267.331 189.764C267.557 189.682 267.754 189.564 267.92 189.408C268.053 189.283 268.16 189.135 268.241 188.962C268.277 188.886 268.356 188.836 268.441 188.845L269.884 189.007C269.995 189.02 270.07 189.126 270.037 189.232C269.914 189.623 269.717 189.97 269.444 190.273C269.129 190.624 268.725 190.896 268.233 191.091C267.741 191.282 267.178 191.378 266.545 191.378Z" fill="black"/>
<path d="M274.75 191.362C274.109 191.362 273.536 191.197 273.029 190.868C272.523 190.539 272.123 190.061 271.829 189.434C271.535 188.808 271.389 188.047 271.389 187.151C271.389 186.245 271.537 185.48 271.835 184.857C272.136 184.23 272.541 183.758 273.051 183.439C273.56 183.117 274.129 182.956 274.755 182.956C275.233 182.956 275.626 183.037 275.934 183.2C276.242 183.359 276.486 183.552 276.667 183.779C276.839 183.992 276.975 184.193 277.073 184.384C277.081 184.4 277.098 184.411 277.117 184.411V184.411C277.144 184.411 277.166 184.389 277.166 184.362V180.528C277.166 180.426 277.249 180.343 277.351 180.343H278.909C279.011 180.343 279.094 180.426 279.094 180.528V191.034C279.094 191.136 279.011 191.219 278.909 191.219H277.388C277.286 191.219 277.203 191.136 277.203 191.034V190.006C277.203 189.966 277.171 189.934 277.131 189.934V189.934C277.104 189.934 277.079 189.949 277.066 189.973C276.968 190.16 276.832 190.357 276.656 190.565C276.469 190.785 276.221 190.973 275.913 191.128C275.605 191.284 275.217 191.362 274.75 191.362ZM275.286 189.785C275.693 189.785 276.04 189.675 276.327 189.456C276.614 189.233 276.832 188.923 276.98 188.526C277.129 188.13 277.203 187.668 277.203 187.14C277.203 186.613 277.129 186.154 276.98 185.765C276.835 185.376 276.619 185.073 276.332 184.857C276.049 184.641 275.701 184.533 275.286 184.533C274.858 184.533 274.5 184.644 274.214 184.867C273.927 185.091 273.711 185.399 273.566 185.791C273.421 186.184 273.348 186.634 273.348 187.14C273.348 187.65 273.421 188.105 273.566 188.505C273.714 188.902 273.932 189.215 274.219 189.445C274.509 189.672 274.865 189.785 275.286 189.785Z" fill="black"/>
<path d="M281.139 180.246V177.88H281.673V180.246H281.139ZM280.386 178.311V177.846H282.426V178.311H280.386Z" fill="black"/>
<path d="M282.724 180.246V177.846H283.106L284.052 179.318H283.858L284.801 177.846H285.186V180.246H284.652V178.747L284.747 178.77L284.131 179.729H283.776L283.164 178.77L283.255 178.747V180.246H282.724Z" fill="black"/>
<path d="M291.571 191.15C291.101 191.15 290.678 191.066 290.301 190.899C289.928 190.728 289.632 190.477 289.413 190.145C289.197 189.814 289.089 189.405 289.089 188.918C289.089 188.5 289.166 188.154 289.321 187.88C289.475 187.606 289.686 187.387 289.954 187.223C290.221 187.059 290.522 186.935 290.857 186.851C291.195 186.764 291.544 186.702 291.905 186.663C292.339 186.618 292.692 186.578 292.962 186.542C293.233 186.504 293.429 186.446 293.552 186.368C293.677 186.288 293.74 186.164 293.74 185.997V185.968C293.74 185.604 293.632 185.322 293.416 185.122C293.201 184.923 292.89 184.823 292.484 184.823C292.056 184.823 291.716 184.916 291.465 185.103C291.217 185.29 291.05 185.51 290.963 185.765L289.33 185.533C289.459 185.082 289.672 184.705 289.968 184.403C290.264 184.097 290.626 183.868 291.055 183.717C291.483 183.562 291.956 183.485 292.475 183.485C292.832 183.485 293.188 183.527 293.542 183.611C293.896 183.695 294.22 183.833 294.513 184.026C294.806 184.216 295.041 184.475 295.218 184.804C295.398 185.132 295.488 185.543 295.488 186.035V191H293.807V189.981H293.75C293.643 190.187 293.494 190.38 293.3 190.561C293.11 190.738 292.871 190.881 292.581 190.99C292.294 191.097 291.958 191.15 291.571 191.15ZM292.025 189.865C292.376 189.865 292.681 189.796 292.938 189.657C293.196 189.516 293.394 189.329 293.532 189.097C293.674 188.865 293.745 188.613 293.745 188.339V187.465C293.69 187.51 293.597 187.552 293.465 187.59C293.336 187.629 293.191 187.663 293.03 187.692C292.869 187.721 292.71 187.746 292.552 187.769C292.394 187.792 292.257 187.811 292.141 187.827C291.88 187.862 291.647 187.92 291.441 188.001C291.235 188.081 291.072 188.194 290.953 188.339C290.834 188.481 290.775 188.664 290.775 188.889C290.775 189.211 290.892 189.455 291.127 189.619C291.362 189.783 291.662 189.865 292.025 189.865ZM297.097 193.782V183.582H298.816V184.809H298.917C299.007 184.628 299.135 184.437 299.299 184.234C299.463 184.028 299.685 183.852 299.965 183.707C300.245 183.559 300.603 183.485 301.037 183.485C301.611 183.485 302.127 183.632 302.588 183.925C303.051 184.214 303.418 184.644 303.689 185.214C303.963 185.781 304.099 186.476 304.099 187.301C304.099 188.115 303.966 188.807 303.699 189.377C303.431 189.947 303.067 190.382 302.607 190.681C302.147 190.981 301.625 191.13 301.042 191.13C300.617 191.13 300.265 191.06 299.985 190.918C299.704 190.776 299.479 190.606 299.308 190.406C299.141 190.203 299.011 190.012 298.917 189.831H298.845V193.782H297.097ZM298.811 187.291C298.811 187.771 298.879 188.191 299.014 188.551C299.152 188.912 299.35 189.194 299.608 189.397C299.869 189.596 300.184 189.696 300.554 189.696C300.941 189.696 301.264 189.593 301.525 189.387C301.786 189.178 301.982 188.893 302.114 188.532C302.25 188.168 302.317 187.755 302.317 187.291C302.317 186.83 302.251 186.422 302.119 186.064C301.987 185.707 301.791 185.427 301.53 185.224C301.269 185.021 300.944 184.92 300.554 184.92C300.181 184.92 299.864 185.018 299.603 185.214C299.342 185.411 299.144 185.686 299.009 186.04C298.877 186.394 298.811 186.811 298.811 187.291ZM305.447 193.782V183.582H307.166V184.809H307.268C307.358 184.628 307.485 184.437 307.649 184.234C307.813 184.028 308.036 183.852 308.316 183.707C308.596 183.559 308.953 183.485 309.388 183.485C309.961 183.485 310.478 183.632 310.938 183.925C311.402 184.214 311.769 184.644 312.039 185.214C312.313 185.781 312.45 186.476 312.45 187.301C312.45 188.115 312.316 188.807 312.049 189.377C311.782 189.947 311.418 190.382 310.957 190.681C310.497 190.981 309.975 191.13 309.393 191.13C308.968 191.13 308.615 191.06 308.335 190.918C308.055 190.776 307.829 190.606 307.659 190.406C307.491 190.203 307.361 190.012 307.268 189.831H307.195V193.782H305.447ZM307.161 187.291C307.161 187.771 307.229 188.191 307.364 188.551C307.503 188.912 307.701 189.194 307.958 189.397C308.219 189.596 308.535 189.696 308.905 189.696C309.291 189.696 309.615 189.593 309.876 189.387C310.136 189.178 310.333 188.893 310.465 188.532C310.6 188.168 310.668 187.755 310.668 187.291C310.668 186.83 310.602 186.422 310.47 186.064C310.338 185.707 310.141 185.427 309.88 185.224C309.62 185.021 309.294 184.92 308.905 184.92C308.531 184.92 308.214 185.018 307.953 185.214C307.693 185.411 307.495 185.686 307.359 186.04C307.227 186.394 307.161 186.811 307.161 187.291Z" fill="black"/>
</g>
<g filter="url(#filter2_d_190_1579)">
<rect x="316.2" y="311.6" width="178.6" height="41.6" rx="20.8" fill="#EBF0FF"/>
<path d="M339.535 337.589C338.74 337.589 338.057 337.388 337.487 336.985C336.921 336.579 336.484 335.995 336.178 335.232C335.876 334.466 335.724 333.543 335.724 332.465C335.728 331.386 335.881 330.468 336.183 329.712C336.489 328.952 336.925 328.372 337.492 327.973C338.062 327.574 338.743 327.374 339.535 327.374C340.327 327.374 341.008 327.574 341.578 327.973C342.148 328.372 342.584 328.952 342.887 329.712C343.193 330.472 343.345 331.389 343.345 332.465C343.345 333.546 343.193 334.47 342.887 335.237C342.584 336 342.148 336.583 341.578 336.985C341.011 337.388 340.33 337.589 339.535 337.589ZM339.535 336.077C340.153 336.077 340.641 335.773 340.998 335.164C341.359 334.553 341.539 333.653 341.539 332.465C341.539 331.679 341.457 331.019 341.293 330.484C341.129 329.95 340.897 329.548 340.597 329.277C340.298 329.003 339.944 328.867 339.535 328.867C338.92 328.867 338.434 329.172 338.076 329.784C337.719 330.393 337.539 331.286 337.536 332.465C337.532 333.253 337.611 333.917 337.772 334.454C337.936 334.992 338.168 335.398 338.468 335.671C338.767 335.942 339.123 336.077 339.535 336.077ZM345.512 337.507C345.219 337.507 344.967 337.404 344.758 337.198C344.549 336.991 344.446 336.74 344.449 336.444C344.446 336.154 344.549 335.906 344.758 335.7C344.967 335.494 345.219 335.391 345.512 335.391C345.795 335.391 346.041 335.494 346.251 335.7C346.463 335.906 346.571 336.154 346.574 336.444C346.571 336.641 346.519 336.819 346.42 336.98C346.323 337.141 346.194 337.27 346.033 337.367C345.875 337.46 345.702 337.507 345.512 337.507ZM348.032 335.565V334.14L352.228 327.509H353.416V329.538H352.692L349.867 334.015V334.092H355.725V335.565H348.032ZM352.75 337.4V335.131L352.769 334.493V327.509H354.46V337.4H352.75ZM362.407 335.546V335.024C362.407 334.641 362.487 334.289 362.648 333.967C362.812 333.645 363.051 333.385 363.363 333.189C363.675 332.993 364.054 332.894 364.498 332.894C364.955 332.894 365.338 332.993 365.647 333.189C365.957 333.382 366.19 333.64 366.348 333.962C366.509 334.284 366.589 334.638 366.589 335.024V335.546C366.589 335.929 366.509 336.282 366.348 336.604C366.187 336.925 365.95 337.185 365.638 337.381C365.329 337.577 364.949 337.676 364.498 337.676C364.047 337.676 363.666 337.577 363.353 337.381C363.041 337.185 362.804 336.925 362.643 336.604C362.486 336.282 362.407 335.929 362.407 335.546ZM363.667 335.024V335.546C363.667 335.8 363.728 336.034 363.851 336.246C363.973 336.459 364.189 336.565 364.498 336.565C364.81 336.565 365.024 336.46 365.14 336.251C365.259 336.038 365.319 335.803 365.319 335.546V335.024C365.319 334.767 365.263 334.532 365.15 334.319C365.037 334.103 364.82 333.996 364.498 333.996C364.195 333.996 363.981 334.103 363.856 334.319C363.73 334.532 363.667 334.767 363.667 335.024ZM357.379 329.886V329.364C357.379 328.978 357.461 328.623 357.626 328.302C357.79 327.98 358.028 327.722 358.34 327.529C358.653 327.332 359.031 327.234 359.475 327.234C359.929 327.234 360.311 327.332 360.62 327.529C360.932 327.722 361.167 327.98 361.325 328.302C361.483 328.623 361.562 328.978 361.562 329.364V329.886C361.562 330.272 361.481 330.626 361.32 330.948C361.162 331.267 360.927 331.523 360.615 331.716C360.303 331.909 359.923 332.006 359.475 332.006C359.021 332.006 358.638 331.909 358.326 331.716C358.017 331.523 357.782 331.265 357.621 330.943C357.46 330.621 357.379 330.269 357.379 329.886ZM358.649 329.364V329.886C358.649 330.143 358.709 330.378 358.828 330.591C358.95 330.8 359.166 330.905 359.475 330.905C359.784 330.905 359.997 330.8 360.113 330.591C360.232 330.378 360.291 330.143 360.291 329.886V329.364C360.291 329.106 360.235 328.871 360.122 328.659C360.01 328.443 359.794 328.335 359.475 328.335C359.169 328.335 358.955 328.443 358.833 328.659C358.711 328.875 358.649 329.11 358.649 329.364ZM357.93 337.4L364.73 327.509H365.937L359.137 337.4H357.93ZM375.391 329.982V331.334H371.127V329.982H375.391ZM372.18 328.205H373.928V335.169C373.928 335.404 373.963 335.584 374.034 335.71C374.108 335.832 374.205 335.916 374.324 335.961C374.443 336.006 374.575 336.029 374.72 336.029C374.829 336.029 374.929 336.021 375.019 336.005C375.113 335.989 375.184 335.974 375.232 335.961L375.527 337.328C375.433 337.36 375.3 337.396 375.126 337.434C374.955 337.473 374.746 337.495 374.498 337.502C374.06 337.515 373.666 337.449 373.315 337.304C372.964 337.156 372.685 336.927 372.479 336.618C372.276 336.309 372.176 335.923 372.18 335.459V328.205ZM376.704 337.4V329.982H378.399V331.219H378.476C378.611 330.79 378.843 330.46 379.172 330.229C379.503 329.993 379.882 329.876 380.307 329.876C380.403 329.876 380.511 329.881 380.63 329.89C380.753 329.897 380.854 329.908 380.935 329.924V331.532C380.86 331.507 380.743 331.484 380.582 331.465C380.424 331.442 380.271 331.431 380.123 331.431C379.804 331.431 379.518 331.5 379.263 331.639C379.012 331.774 378.814 331.962 378.669 332.204C378.525 332.445 378.452 332.724 378.452 333.039V337.4H376.704ZM383.948 337.55C383.478 337.55 383.055 337.466 382.678 337.299C382.305 337.128 382.008 336.877 381.789 336.546C381.574 336.214 381.466 335.805 381.466 335.319C381.466 334.9 381.543 334.554 381.698 334.281C381.852 334.007 382.063 333.788 382.33 333.624C382.598 333.459 382.899 333.336 383.233 333.252C383.572 333.165 383.921 333.102 384.281 333.063C384.716 333.018 385.069 332.978 385.339 332.943C385.61 332.904 385.806 332.846 385.928 332.769C386.054 332.688 386.117 332.564 386.117 332.397V332.368C386.117 332.004 386.009 331.722 385.793 331.523C385.577 331.323 385.267 331.223 384.861 331.223C384.433 331.223 384.093 331.317 383.842 331.504C383.594 331.69 383.427 331.911 383.34 332.165L381.707 331.933C381.836 331.483 382.049 331.106 382.345 330.803C382.641 330.497 383.003 330.269 383.431 330.117C383.86 329.963 384.333 329.886 384.851 329.886C385.209 329.886 385.565 329.927 385.919 330.011C386.273 330.095 386.596 330.233 386.889 330.427C387.182 330.616 387.417 330.876 387.595 331.204C387.775 331.532 387.865 331.943 387.865 332.436V337.4H386.184V336.381H386.126C386.02 336.587 385.87 336.781 385.677 336.961C385.487 337.138 385.247 337.281 384.958 337.391C384.671 337.497 384.335 337.55 383.948 337.55ZM384.402 336.265C384.753 336.265 385.057 336.196 385.315 336.058C385.573 335.916 385.771 335.729 385.909 335.498C386.051 335.266 386.122 335.013 386.122 334.739V333.865C386.067 333.91 385.973 333.952 385.841 333.991C385.713 334.029 385.568 334.063 385.407 334.092C385.246 334.121 385.086 334.147 384.929 334.169C384.771 334.192 384.634 334.211 384.518 334.227C384.257 334.263 384.024 334.321 383.818 334.401C383.612 334.482 383.449 334.594 383.33 334.739C383.211 334.881 383.151 335.065 383.151 335.29C383.151 335.612 383.269 335.855 383.504 336.019C383.739 336.183 384.038 336.265 384.402 336.265ZM391.222 333.054V337.4H389.473V329.982H391.144V331.243H391.231C391.402 330.827 391.674 330.497 392.048 330.253C392.424 330.008 392.889 329.886 393.443 329.886C393.955 329.886 394.401 329.995 394.781 330.214C395.164 330.433 395.46 330.75 395.67 331.165C395.882 331.581 395.987 332.085 395.984 332.677V337.4H394.235V332.948C394.235 332.452 394.107 332.064 393.849 331.784C393.595 331.504 393.242 331.363 392.791 331.363C392.485 331.363 392.213 331.431 391.975 331.566C391.74 331.698 391.555 331.89 391.42 332.141C391.288 332.392 391.222 332.696 391.222 333.054ZM403.474 331.943L401.881 332.117C401.836 331.956 401.757 331.805 401.644 331.663C401.534 331.521 401.386 331.407 401.2 331.32C401.013 331.233 400.784 331.19 400.514 331.19C400.15 331.19 399.844 331.268 399.596 331.426C399.352 331.584 399.231 331.788 399.234 332.04C399.231 332.255 399.31 332.431 399.471 332.566C399.635 332.701 399.905 332.812 400.282 332.899L401.547 333.17C402.249 333.321 402.771 333.561 403.112 333.889C403.457 334.218 403.63 334.648 403.634 335.179C403.63 335.646 403.494 336.058 403.223 336.415C402.956 336.769 402.584 337.046 402.108 337.246C401.631 337.445 401.084 337.545 400.466 337.545C399.558 337.545 398.827 337.355 398.273 336.975C397.719 336.592 397.389 336.059 397.283 335.377L398.988 335.213C399.065 335.547 399.229 335.8 399.48 335.971C399.731 336.141 400.058 336.227 400.461 336.227C400.876 336.227 401.209 336.141 401.46 335.971C401.715 335.8 401.842 335.589 401.842 335.338C401.842 335.126 401.76 334.95 401.596 334.812C401.435 334.673 401.184 334.567 400.842 334.493L399.577 334.227C398.865 334.079 398.339 333.83 397.998 333.479C397.656 333.125 397.487 332.677 397.491 332.136C397.487 331.679 397.611 331.283 397.862 330.948C398.117 330.61 398.469 330.349 398.92 330.166C399.374 329.979 399.897 329.886 400.49 329.886C401.359 329.886 402.043 330.071 402.542 330.441C403.045 330.811 403.355 331.312 403.474 331.943ZM407.06 337.55C406.59 337.55 406.167 337.466 405.79 337.299C405.417 337.128 405.121 336.877 404.902 336.546C404.686 336.214 404.578 335.805 404.578 335.319C404.578 334.9 404.655 334.554 404.81 334.281C404.964 334.007 405.175 333.788 405.442 333.624C405.71 333.459 406.011 333.336 406.346 333.252C406.684 333.165 407.033 333.102 407.394 333.063C407.828 333.018 408.181 332.978 408.451 332.943C408.722 332.904 408.918 332.846 409.041 332.769C409.166 332.688 409.229 332.564 409.229 332.397V332.368C409.229 332.004 409.121 331.722 408.905 331.523C408.69 331.323 408.379 331.223 407.973 331.223C407.545 331.223 407.205 331.317 406.954 331.504C406.706 331.69 406.539 331.911 406.452 332.165L404.819 331.933C404.948 331.483 405.161 331.106 405.457 330.803C405.753 330.497 406.115 330.269 406.544 330.117C406.972 329.963 407.445 329.886 407.964 329.886C408.321 329.886 408.677 329.927 409.031 330.011C409.385 330.095 409.709 330.233 410.002 330.427C410.295 330.616 410.53 330.876 410.707 331.204C410.887 331.532 410.977 331.943 410.977 332.436V337.4H409.296V336.381H409.239C409.132 336.587 408.983 336.781 408.789 336.961C408.599 337.138 408.36 337.281 408.07 337.391C407.783 337.497 407.447 337.55 407.06 337.55ZM407.514 336.265C407.865 336.265 408.17 336.196 408.427 336.058C408.685 335.916 408.883 335.729 409.021 335.498C409.163 335.266 409.234 335.013 409.234 334.739V333.865C409.179 333.91 409.086 333.952 408.954 333.991C408.825 334.029 408.68 334.063 408.519 334.092C408.358 334.121 408.199 334.147 408.041 334.169C407.883 334.192 407.746 334.211 407.63 334.227C407.369 334.263 407.136 334.321 406.93 334.401C406.724 334.482 406.561 334.594 406.442 334.739C406.323 334.881 406.264 335.065 406.264 335.29C406.264 335.612 406.381 335.855 406.616 336.019C406.851 336.183 407.151 336.265 407.514 336.265ZM415.821 337.545C415.081 337.545 414.445 337.383 413.914 337.057C413.386 336.732 412.978 336.283 412.692 335.71C412.408 335.134 412.267 334.47 412.267 333.72C412.267 332.967 412.412 332.302 412.701 331.726C412.991 331.146 413.4 330.695 413.928 330.373C414.459 330.048 415.087 329.886 415.812 329.886C416.414 329.886 416.947 329.997 417.41 330.219C417.877 330.438 418.249 330.748 418.526 331.151C418.803 331.55 418.961 332.017 418.999 332.552H417.328C417.261 332.194 417.1 331.896 416.845 331.658C416.594 331.417 416.258 331.296 415.836 331.296C415.478 331.296 415.164 331.392 414.894 331.586C414.624 331.776 414.413 332.049 414.261 332.407C414.113 332.764 414.039 333.192 414.039 333.691C414.039 334.197 414.113 334.631 414.261 334.995C414.409 335.356 414.617 335.634 414.884 335.831C415.155 336.024 415.472 336.121 415.836 336.121C416.093 336.121 416.324 336.072 416.526 335.976C416.732 335.876 416.905 335.733 417.043 335.546C417.182 335.359 417.277 335.132 417.328 334.865H418.999C418.957 335.39 418.803 335.855 418.536 336.261C418.268 336.663 417.904 336.979 417.444 337.207C416.984 337.433 416.443 337.545 415.821 337.545ZM423.989 329.982V331.334H419.725V329.982H423.989ZM420.778 328.205H422.526V335.169C422.526 335.404 422.561 335.584 422.632 335.71C422.706 335.832 422.803 335.916 422.922 335.961C423.041 336.006 423.173 336.029 423.318 336.029C423.428 336.029 423.527 336.021 423.618 336.005C423.711 335.989 423.782 335.974 423.83 335.961L424.125 337.328C424.031 337.36 423.898 337.396 423.724 337.434C423.553 337.473 423.344 337.495 423.096 337.502C422.658 337.515 422.264 337.449 421.913 337.304C421.562 337.156 421.283 336.927 421.077 336.618C420.874 336.309 420.775 335.923 420.778 335.459V328.205ZM425.302 337.4V329.982H427.05V337.4H425.302ZM426.181 328.929C425.904 328.929 425.666 328.838 425.466 328.654C425.267 328.467 425.167 328.244 425.167 327.983C425.167 327.719 425.267 327.495 425.466 327.311C425.666 327.125 425.904 327.031 426.181 327.031C426.461 327.031 426.699 327.125 426.896 327.311C427.095 327.495 427.195 327.719 427.195 327.983C427.195 328.244 427.095 328.467 426.896 328.654C426.699 328.838 426.461 328.929 426.181 328.929ZM431.934 337.545C431.21 337.545 430.582 337.386 430.051 337.067C429.519 336.748 429.107 336.302 428.814 335.729C428.525 335.156 428.38 334.487 428.38 333.72C428.38 332.954 428.525 332.283 428.814 331.706C429.107 331.13 429.519 330.682 430.051 330.364C430.582 330.045 431.21 329.886 431.934 329.886C432.659 329.886 433.286 330.045 433.818 330.364C434.349 330.682 434.76 331.13 435.049 331.706C435.342 332.283 435.489 332.954 435.489 333.72C435.489 334.487 435.342 335.156 435.049 335.729C434.76 336.302 434.349 336.748 433.818 337.067C433.286 337.386 432.659 337.545 431.934 337.545ZM431.944 336.145C432.337 336.145 432.665 336.037 432.929 335.821C433.193 335.602 433.39 335.309 433.518 334.942C433.65 334.575 433.716 334.166 433.716 333.715C433.716 333.261 433.65 332.851 433.518 332.484C433.39 332.114 433.193 331.819 432.929 331.6C432.665 331.381 432.337 331.272 431.944 331.272C431.541 331.272 431.207 331.381 430.939 331.6C430.675 331.819 430.477 332.114 430.345 332.484C430.217 332.851 430.152 333.261 430.152 333.715C430.152 334.166 430.217 334.575 430.345 334.942C430.477 335.309 430.675 335.602 430.939 335.821C431.207 336.037 431.541 336.145 431.944 336.145ZM438.571 333.054V337.4H436.823V329.982H438.494V331.243H438.581C438.752 330.827 439.024 330.497 439.397 330.253C439.774 330.008 440.239 329.886 440.793 329.886C441.305 329.886 441.751 329.995 442.131 330.214C442.514 330.433 442.81 330.75 443.019 331.165C443.232 331.581 443.336 332.085 443.333 332.677V337.4H441.585V332.948C441.585 332.452 441.456 332.064 441.199 331.784C440.944 331.504 440.592 331.363 440.141 331.363C439.835 331.363 439.563 331.431 439.325 331.566C439.09 331.698 438.905 331.89 438.769 332.141C438.637 332.392 438.571 332.696 438.571 333.054ZM451.942 329.982V331.334H447.557V329.982H451.942ZM448.653 337.4V329.282C448.653 328.783 448.756 328.368 448.962 328.036C449.172 327.704 449.452 327.456 449.803 327.292C450.154 327.128 450.543 327.046 450.971 327.046C451.274 327.046 451.543 327.07 451.778 327.118C452.013 327.167 452.187 327.21 452.3 327.249L451.952 328.601C451.878 328.578 451.784 328.556 451.672 328.533C451.559 328.508 451.433 328.495 451.295 328.495C450.97 328.495 450.74 328.574 450.604 328.731C450.472 328.886 450.406 329.108 450.406 329.398V337.4H448.653ZM456.167 337.545C455.423 337.545 454.781 337.391 454.24 337.082C453.702 336.769 453.289 336.328 452.999 335.758C452.709 335.185 452.564 334.511 452.564 333.735C452.564 332.972 452.709 332.302 452.999 331.726C453.292 331.146 453.701 330.695 454.225 330.373C454.75 330.048 455.367 329.886 456.075 329.886C456.532 329.886 456.964 329.96 457.369 330.108C457.778 330.253 458.139 330.478 458.451 330.784C458.767 331.09 459.015 331.479 459.195 331.953C459.375 332.423 459.466 332.983 459.466 333.633V334.169H453.385V332.991H457.79C457.786 332.656 457.714 332.358 457.572 332.098C457.431 331.834 457.233 331.626 456.978 331.475C456.727 331.323 456.434 331.248 456.099 331.248C455.742 331.248 455.428 331.334 455.158 331.508C454.887 331.679 454.676 331.904 454.525 332.184C454.377 332.461 454.301 332.766 454.298 333.097V334.126C454.298 334.557 454.377 334.928 454.535 335.237C454.692 335.543 454.913 335.778 455.196 335.942C455.48 336.103 455.811 336.183 456.191 336.183C456.445 336.183 456.676 336.148 456.882 336.077C457.088 336.003 457.266 335.895 457.418 335.754C457.569 335.612 457.683 335.436 457.761 335.227L459.393 335.411C459.29 335.842 459.094 336.219 458.804 336.541C458.517 336.859 458.15 337.107 457.703 337.284C457.255 337.458 456.743 337.545 456.167 337.545ZM464.079 337.545C463.335 337.545 462.693 337.391 462.152 337.082C461.614 336.769 461.201 336.328 460.911 335.758C460.621 335.185 460.476 334.511 460.476 333.735C460.476 332.972 460.621 332.302 460.911 331.726C461.204 331.146 461.613 330.695 462.138 330.373C462.662 330.048 463.279 329.886 463.987 329.886C464.444 329.886 464.876 329.96 465.282 330.108C465.691 330.253 466.051 330.478 466.363 330.784C466.679 331.09 466.927 331.479 467.107 331.953C467.287 332.423 467.378 332.983 467.378 333.633V334.169H461.297V332.991H465.702C465.699 332.656 465.626 332.358 465.484 332.098C465.343 331.834 465.145 331.626 464.89 331.475C464.639 331.323 464.346 331.248 464.011 331.248C463.654 331.248 463.34 331.334 463.07 331.508C462.799 331.679 462.588 331.904 462.437 332.184C462.289 332.461 462.213 332.766 462.21 333.097V334.126C462.21 334.557 462.289 334.928 462.447 335.237C462.604 335.543 462.825 335.778 463.108 335.942C463.392 336.103 463.723 336.183 464.103 336.183C464.358 336.183 464.588 336.148 464.794 336.077C465 336.003 465.179 335.895 465.33 335.754C465.481 335.612 465.596 335.436 465.673 335.227L467.305 335.411C467.202 335.842 467.006 336.219 466.716 336.541C466.429 336.859 466.062 337.107 465.615 337.284C465.167 337.458 464.655 337.545 464.079 337.545ZM474.57 331.943L472.976 332.117C472.931 331.956 472.852 331.805 472.74 331.663C472.63 331.521 472.482 331.407 472.295 331.32C472.109 331.233 471.88 331.19 471.61 331.19C471.246 331.19 470.94 331.268 470.692 331.426C470.447 331.584 470.327 331.788 470.33 332.04C470.327 332.255 470.405 332.431 470.566 332.566C470.731 332.701 471.001 332.812 471.378 332.899L472.643 333.17C473.345 333.321 473.867 333.561 474.208 333.889C474.552 334.218 474.726 334.648 474.73 335.179C474.726 335.646 474.589 336.058 474.319 336.415C474.052 336.769 473.68 337.046 473.203 337.246C472.727 337.445 472.18 337.545 471.561 337.545C470.653 337.545 469.923 337.355 469.369 336.975C468.815 336.592 468.485 336.059 468.379 335.377L470.084 335.213C470.161 335.547 470.325 335.8 470.576 335.971C470.827 336.141 471.154 336.227 471.557 336.227C471.972 336.227 472.305 336.141 472.556 335.971C472.811 335.8 472.938 335.589 472.938 335.338C472.938 335.126 472.856 334.95 472.691 334.812C472.53 334.673 472.279 334.567 471.938 334.493L470.673 334.227C469.961 334.079 469.435 333.83 469.093 333.479C468.752 333.125 468.583 332.677 468.586 332.136C468.583 331.679 468.707 331.283 468.958 330.948C469.213 330.61 469.565 330.349 470.016 330.166C470.47 329.979 470.993 329.886 471.585 329.886C472.455 329.886 473.139 330.071 473.638 330.441C474.14 330.811 474.451 331.312 474.57 331.943Z" fill="#3169FA"/>
<rect x="316.2" y="311.6" width="178.6" height="41.6" rx="20.8" stroke="#3169FA" stroke-width="0.8" stroke-dasharray="2.4 2.4"/>
<rect x="315.8" y="361.601" width="181" height="42.4" rx="21.2" fill="#232323"/>
<path fill-rule="evenodd" clip-rule="evenodd" d="M344.6 372.801C346.042 372.801 347.41 373.119 348.637 373.688L346.292 375.591C345.75 375.457 345.183 375.385 344.6 375.385C340.726 375.385 337.585 378.526 337.585 382.401C337.585 384.623 338.618 386.604 340.23 387.89L338.74 390.006C336.465 388.25 335 385.497 335 382.401C335 377.099 339.298 372.801 344.6 372.801ZM342.985 389.229L340.622 391.14C341.834 391.693 343.181 392.001 344.6 392.001C349.902 392.001 354.2 387.703 354.2 382.401C354.2 379.31 352.739 376.56 350.47 374.804L348.985 376.925C350.589 378.21 351.615 380.186 351.615 382.401C351.615 386.275 348.474 389.416 344.6 389.416C344.044 389.416 343.504 389.352 342.985 389.229Z" fill="white"/>
<path fill-rule="evenodd" clip-rule="evenodd" d="M350.569 373.542C350.647 373.43 350.503 373.296 350.397 373.382L339.049 382.59C338.974 382.65 339 382.77 339.093 382.795L343.75 384.063C343.829 384.084 343.864 384.178 343.817 384.245L338.53 391.753C338.452 391.865 338.595 391.999 338.701 391.913L350.064 382.727C350.139 382.667 350.113 382.547 350.02 382.521L345.363 381.254C345.284 381.232 345.25 381.139 345.296 381.072L350.569 373.542Z" fill="white"/>
<path d="M361.933 382.855C361.933 381.648 362.092 380.539 362.411 379.528C362.733 378.514 363.211 377.577 363.845 376.717H365.492C365.248 377.036 365.019 377.427 364.807 377.891C364.594 378.351 364.409 378.856 364.251 379.407C364.097 379.954 363.974 380.523 363.884 381.112C363.797 381.701 363.754 382.282 363.754 382.855C363.754 383.618 363.829 384.391 363.981 385.174C364.135 385.956 364.343 386.682 364.604 387.352C364.868 388.018 365.164 388.564 365.492 388.989H363.845C363.211 388.129 362.733 387.194 362.411 386.183C362.092 385.169 361.933 384.059 361.933 382.855ZM372.154 380.629C372.108 380.207 371.919 379.879 371.584 379.644C371.252 379.409 370.821 379.291 370.289 379.291C369.916 379.291 369.596 379.347 369.328 379.46C369.061 379.573 368.857 379.726 368.715 379.919C368.573 380.112 368.501 380.333 368.498 380.581C368.498 380.787 368.544 380.965 368.638 381.117C368.734 381.268 368.865 381.397 369.029 381.503C369.193 381.606 369.375 381.693 369.575 381.764C369.774 381.835 369.975 381.894 370.178 381.943L371.106 382.174C371.479 382.261 371.838 382.379 372.183 382.527C372.53 382.675 372.841 382.862 373.115 383.087C373.392 383.313 373.61 383.585 373.771 383.903C373.932 384.222 374.013 384.596 374.013 385.024C374.013 385.603 373.865 386.114 373.569 386.555C373.272 386.993 372.844 387.336 372.284 387.583C371.727 387.828 371.052 387.95 370.26 387.95C369.491 387.95 368.823 387.831 368.256 387.593C367.693 387.355 367.252 387.007 366.933 386.55C366.617 386.093 366.447 385.536 366.421 384.879H368.184C368.209 385.223 368.316 385.51 368.502 385.739C368.689 385.967 368.932 386.138 369.232 386.25C369.534 386.363 369.872 386.42 370.246 386.42C370.635 386.42 370.977 386.362 371.27 386.246C371.566 386.127 371.798 385.962 371.965 385.753C372.133 385.541 372.218 385.293 372.221 385.009C372.218 384.752 372.142 384.539 371.994 384.372C371.846 384.201 371.638 384.059 371.371 383.947C371.107 383.831 370.798 383.728 370.444 383.638L369.319 383.348C368.504 383.139 367.86 382.822 367.387 382.397C366.917 381.968 366.682 381.4 366.682 380.692C366.682 380.109 366.839 379.599 367.155 379.161C367.474 378.723 367.907 378.383 368.454 378.142C369.001 377.897 369.621 377.775 370.314 377.775C371.015 377.775 371.63 377.897 372.158 378.142C372.69 378.383 373.107 378.72 373.409 379.151C373.712 379.579 373.868 380.072 373.878 380.629H372.154ZM377.132 377.91V387.801H375.383V377.91H377.132ZM378.78 387.801V380.383H380.528V387.801H378.78ZM379.659 379.33C379.382 379.33 379.144 379.238 378.944 379.054C378.745 378.868 378.645 378.644 378.645 378.383C378.645 378.119 378.745 377.895 378.944 377.712C379.144 377.525 379.382 377.432 379.659 377.432C379.939 377.432 380.177 377.525 380.374 377.712C380.573 377.895 380.673 378.119 380.673 378.383C380.673 378.644 380.573 378.868 380.374 379.054C380.177 379.238 379.939 379.33 379.659 379.33ZM385.412 387.946C384.672 387.946 384.036 387.783 383.505 387.458C382.977 387.133 382.569 386.684 382.283 386.11C381.999 385.534 381.858 384.871 381.858 384.121C381.858 383.367 382.003 382.702 382.292 382.126C382.582 381.547 382.991 381.096 383.519 380.774C384.05 380.449 384.678 380.286 385.403 380.286C386.005 380.286 386.538 380.397 387.001 380.619C387.468 380.838 387.84 381.149 388.117 381.551C388.394 381.951 388.551 382.417 388.59 382.952H386.919C386.851 382.595 386.69 382.297 386.436 382.058C386.185 381.817 385.848 381.696 385.427 381.696C385.069 381.696 384.755 381.793 384.485 381.986C384.215 382.176 384.004 382.45 383.852 382.807C383.704 383.164 383.63 383.593 383.63 384.092C383.63 384.597 383.704 385.032 383.852 385.396C384 385.756 384.208 386.035 384.475 386.231C384.746 386.424 385.063 386.521 385.427 386.521C385.684 386.521 385.915 386.473 386.117 386.376C386.323 386.276 386.496 386.133 386.634 385.946C386.773 385.759 386.868 385.533 386.919 385.265H388.59C388.548 385.79 388.394 386.255 388.126 386.661C387.859 387.063 387.495 387.379 387.035 387.608C386.575 387.833 386.034 387.946 385.412 387.946ZM393.16 387.946C392.416 387.946 391.774 387.791 391.233 387.482C390.695 387.17 390.282 386.729 389.992 386.159C389.702 385.586 389.557 384.911 389.557 384.135C389.557 383.372 389.702 382.702 389.992 382.126C390.285 381.547 390.694 381.096 391.219 380.774C391.743 380.449 392.36 380.286 393.068 380.286C393.526 380.286 393.957 380.36 394.363 380.508C394.772 380.653 395.132 380.878 395.445 381.184C395.76 381.49 396.008 381.88 396.188 382.353C396.369 382.823 396.459 383.383 396.459 384.034V384.57H390.378V383.391H394.783C394.78 383.057 394.707 382.759 394.566 382.498C394.424 382.234 394.226 382.026 393.972 381.875C393.72 381.724 393.427 381.648 393.093 381.648C392.735 381.648 392.421 381.735 392.151 381.909C391.88 382.079 391.669 382.305 391.518 382.585C391.37 382.862 391.294 383.166 391.291 383.498V384.526C391.291 384.958 391.37 385.328 391.528 385.637C391.686 385.943 391.906 386.178 392.189 386.342C392.473 386.503 392.804 386.584 393.184 386.584C393.439 386.584 393.669 386.548 393.875 386.477C394.081 386.403 394.26 386.296 394.411 386.154C394.562 386.012 394.677 385.837 394.754 385.627L396.386 385.811C396.283 386.242 396.087 386.619 395.797 386.941C395.511 387.26 395.143 387.508 394.696 387.685C394.248 387.859 393.736 387.946 393.16 387.946ZM400.541 387.931C399.958 387.931 399.437 387.781 398.976 387.482C398.516 387.183 398.152 386.748 397.885 386.178C397.618 385.608 397.484 384.916 397.484 384.101C397.484 383.277 397.619 382.582 397.89 382.015C398.163 381.445 398.532 381.015 398.996 380.725C399.459 380.433 399.976 380.286 400.546 380.286C400.981 380.286 401.338 380.36 401.618 380.508C401.898 380.653 402.12 380.829 402.284 381.035C402.449 381.237 402.576 381.429 402.666 381.609H402.738V377.91H404.492V387.801H402.772V386.632H402.666C402.576 386.812 402.445 387.004 402.275 387.207C402.104 387.406 401.879 387.577 401.599 387.719C401.319 387.86 400.966 387.931 400.541 387.931ZM401.029 386.497C401.399 386.497 401.715 386.397 401.975 386.197C402.236 385.995 402.434 385.713 402.569 385.352C402.705 384.992 402.772 384.571 402.772 384.092C402.772 383.612 402.705 383.195 402.569 382.841C402.437 382.487 402.241 382.211 401.98 382.015C401.723 381.819 401.406 381.72 401.029 381.72C400.639 381.72 400.314 381.822 400.053 382.025C399.792 382.227 399.596 382.508 399.464 382.865C399.332 383.222 399.266 383.631 399.266 384.092C399.266 384.555 399.332 384.969 399.464 385.333C399.599 385.693 399.797 385.978 400.058 386.188C400.322 386.394 400.646 386.497 401.029 386.497ZM409.325 383.768C409.325 384.972 409.164 386.081 408.842 387.096C408.523 388.107 408.047 389.042 407.412 389.902H405.765C406.013 389.583 406.242 389.193 406.451 388.733C406.664 388.272 406.847 387.767 407.002 387.216C407.16 386.666 407.282 386.096 407.369 385.507C407.459 384.918 407.504 384.338 407.504 383.768C407.504 383.005 407.427 382.232 407.272 381.45C407.121 380.668 406.913 379.942 406.649 379.272C406.389 378.602 406.094 378.055 405.765 377.63H407.412C408.047 378.489 408.523 379.426 408.842 380.441C409.164 381.452 409.325 382.561 409.325 383.768ZM414.709 387.801V377.91H416.501V386.299H420.857V387.801H414.709ZM422.262 387.801V377.91H425.971C426.731 377.91 427.369 378.052 427.884 378.335C428.402 378.618 428.794 379.008 429.058 379.504C429.325 379.996 429.458 380.556 429.458 381.184C429.458 381.819 429.325 382.382 429.058 382.875C428.79 383.367 428.396 383.755 427.874 384.039C427.353 384.319 426.71 384.459 425.947 384.459H423.489V382.986H425.706C426.15 382.986 426.514 382.908 426.797 382.754C427.081 382.599 427.29 382.387 427.425 382.116C427.564 381.846 427.633 381.535 427.633 381.184C427.633 380.833 427.564 380.524 427.425 380.257C427.29 379.99 427.079 379.782 426.792 379.634C426.509 379.483 426.144 379.407 425.696 379.407H424.054V387.801H422.262ZM437.716 380.383V381.735H433.451V380.383H437.716ZM434.504 378.605H436.253V385.57C436.253 385.805 436.288 385.985 436.359 386.11C436.433 386.233 436.529 386.317 436.649 386.362C436.768 386.407 436.9 386.429 437.045 386.429C437.154 386.429 437.254 386.421 437.344 386.405C437.437 386.389 437.508 386.374 437.557 386.362L437.851 387.728C437.758 387.761 437.624 387.796 437.45 387.835C437.28 387.873 437.07 387.896 436.822 387.902C436.385 387.915 435.99 387.849 435.639 387.704C435.288 387.556 435.01 387.327 434.804 387.018C434.601 386.709 434.501 386.323 434.504 385.859V378.605ZM442.185 387.946C441.46 387.946 440.832 387.786 440.301 387.468C439.77 387.149 439.358 386.703 439.065 386.13C438.775 385.557 438.63 384.887 438.63 384.121C438.63 383.354 438.775 382.683 439.065 382.107C439.358 381.53 439.77 381.083 440.301 380.764C440.832 380.445 441.46 380.286 442.185 380.286C442.909 380.286 443.537 380.445 444.068 380.764C444.599 381.083 445.01 381.53 445.3 382.107C445.593 382.683 445.739 383.354 445.739 384.121C445.739 384.887 445.593 385.557 445.3 386.13C445.01 386.703 444.599 387.149 444.068 387.468C443.537 387.786 442.909 387.946 442.185 387.946ZM442.194 386.545C442.587 386.545 442.915 386.437 443.179 386.222C443.443 386.003 443.64 385.71 443.769 385.343C443.901 384.975 443.967 384.567 443.967 384.116C443.967 383.662 443.901 383.251 443.769 382.884C443.64 382.514 443.443 382.219 443.179 382C442.915 381.782 442.587 381.672 442.194 381.672C441.792 381.672 441.457 381.782 441.19 382C440.926 382.219 440.728 382.514 440.596 382.884C440.467 383.251 440.402 383.662 440.402 384.116C440.402 384.567 440.467 384.975 440.596 385.343C440.728 385.71 440.926 386.003 441.19 386.222C441.457 386.437 441.792 386.545 442.194 386.545ZM448.667 385.473L448.662 383.362H448.942L451.608 380.383H453.651L450.372 384.034H450.01L448.667 385.473ZM447.073 387.801V377.91H448.822V387.801H447.073ZM451.729 387.801L449.314 384.425L450.493 383.193L453.82 387.801H451.729ZM457.645 387.946C456.902 387.946 456.259 387.791 455.718 387.482C455.181 387.17 454.767 386.729 454.477 386.159C454.187 385.586 454.043 384.911 454.043 384.135C454.043 383.372 454.187 382.702 454.477 382.126C454.77 381.547 455.179 381.096 455.704 380.774C456.229 380.449 456.845 380.286 457.554 380.286C458.011 380.286 458.442 380.36 458.848 380.508C459.257 380.653 459.617 380.878 459.93 381.184C460.245 381.49 460.493 381.88 460.674 382.353C460.854 382.823 460.944 383.383 460.944 384.034V384.57H454.864V383.391H459.268C459.265 383.057 459.192 382.759 459.051 382.498C458.909 382.234 458.711 382.026 458.457 381.875C458.206 381.724 457.913 381.648 457.578 381.648C457.22 381.648 456.906 381.735 456.636 381.909C456.366 382.079 456.155 382.305 456.003 382.585C455.855 382.862 455.78 383.166 455.776 383.498V384.526C455.776 384.958 455.855 385.328 456.013 385.637C456.171 385.943 456.391 386.178 456.675 386.342C456.958 386.503 457.29 386.584 457.67 386.584C457.924 386.584 458.154 386.548 458.36 386.477C458.566 386.403 458.745 386.296 458.896 386.154C459.048 386.012 459.162 385.837 459.239 385.627L460.872 385.811C460.768 386.242 460.572 386.619 460.282 386.941C459.996 387.26 459.629 387.508 459.181 387.685C458.734 387.859 458.222 387.946 457.645 387.946ZM464.022 383.454V387.801H462.273V380.383H463.944V381.643H464.031C464.202 381.228 464.474 380.898 464.848 380.653C465.224 380.408 465.69 380.286 466.243 380.286C466.755 380.286 467.201 380.395 467.581 380.614C467.964 380.833 468.26 381.15 468.47 381.566C468.682 381.981 468.787 382.485 468.784 383.077V387.801H467.035V383.348C467.035 382.852 466.907 382.464 466.649 382.184C466.395 381.904 466.042 381.764 465.591 381.764C465.285 381.764 465.013 381.831 464.775 381.967C464.54 382.099 464.355 382.29 464.22 382.541C464.088 382.793 464.022 383.097 464.022 383.454ZM476.274 382.343L474.681 382.517C474.636 382.356 474.557 382.205 474.444 382.063C474.335 381.922 474.186 381.807 474 381.72C473.813 381.633 473.584 381.59 473.314 381.59C472.95 381.59 472.644 381.669 472.396 381.827C472.152 381.984 472.031 382.189 472.034 382.44C472.031 382.656 472.11 382.831 472.271 382.966C472.435 383.102 472.705 383.213 473.082 383.3L474.347 383.57C475.049 383.721 475.571 383.961 475.912 384.29C476.257 384.618 476.431 385.048 476.434 385.579C476.431 386.046 476.294 386.458 476.023 386.816C475.756 387.17 475.384 387.447 474.908 387.646C474.431 387.846 473.884 387.946 473.266 387.946C472.358 387.946 471.627 387.756 471.073 387.376C470.519 386.993 470.189 386.46 470.083 385.777L471.788 385.613C471.865 385.948 472.029 386.201 472.28 386.371C472.531 386.542 472.858 386.627 473.261 386.627C473.676 386.627 474.009 386.542 474.26 386.371C474.515 386.201 474.642 385.99 474.642 385.739C474.642 385.526 474.56 385.351 474.396 385.212C474.235 385.074 473.984 384.967 473.642 384.893L472.377 384.628C471.665 384.48 471.139 384.23 470.798 383.879C470.456 383.525 470.287 383.077 470.291 382.537C470.287 382.079 470.411 381.683 470.662 381.349C470.917 381.01 471.269 380.75 471.72 380.566C472.174 380.379 472.697 380.286 473.29 380.286C474.159 380.286 474.843 380.471 475.342 380.841C475.845 381.212 476.155 381.712 476.274 382.343Z" fill="#F3F3F3"/>
</g>
<g filter="url(#filter3_d_190_1579)">
<rect x="207.8" y="33.5996" width="112.4" height="42.4" rx="21.2" fill="white" shape-rendering="crispEdges"/>
<path d="M227.976 59.7998V49.9089H229.767V58.2978H234.124V59.7998H227.976ZM238.688 59.9447C237.963 59.9447 237.335 59.7853 236.804 59.4666C236.273 59.1478 235.861 58.7019 235.568 58.1288C235.278 57.5557 235.133 56.886 235.133 56.1197C235.133 55.3534 235.278 54.6821 235.568 54.1058C235.861 53.5294 236.273 53.0819 236.804 52.7632C237.335 52.4444 237.963 52.285 238.688 52.285C239.412 52.285 240.04 52.4444 240.571 52.7632C241.102 53.0819 241.513 53.5294 241.803 54.1058C242.096 54.6821 242.242 55.3534 242.242 56.1197C242.242 56.886 242.096 57.5557 241.803 58.1288C241.513 58.7019 241.102 59.1478 240.571 59.4666C240.04 59.7853 239.412 59.9447 238.688 59.9447ZM238.697 58.5441C239.09 58.5441 239.418 58.4363 239.682 58.2205C239.946 58.0016 240.143 57.7086 240.272 57.3416C240.404 56.9745 240.47 56.5656 240.47 56.1149C240.47 55.6609 240.404 55.2504 240.272 54.8833C240.143 54.5131 239.946 54.2185 239.682 53.9995C239.418 53.7806 239.09 53.6711 238.697 53.6711C238.295 53.6711 237.96 53.7806 237.693 53.9995C237.429 54.2185 237.231 54.5131 237.099 54.8833C236.97 55.2504 236.905 55.6609 236.905 56.1149C236.905 56.5656 236.97 56.9745 237.099 57.3416C237.231 57.7086 237.429 58.0016 237.693 58.2205C237.96 58.4363 238.295 58.5441 238.697 58.5441ZM246.812 59.9447C246.072 59.9447 245.436 59.7821 244.905 59.4569C244.376 59.1317 243.969 58.6826 243.683 58.1095C243.399 57.5331 243.258 56.8699 243.258 56.1197C243.258 55.3663 243.403 54.7014 243.692 54.1251C243.982 53.5455 244.391 53.0948 244.919 52.7728C245.45 52.4476 246.078 52.285 246.803 52.285C247.405 52.285 247.937 52.3961 248.401 52.6183C248.868 52.8372 249.24 53.1479 249.517 53.5504C249.794 53.9496 249.951 54.4165 249.99 54.9509H248.319C248.251 54.5936 248.09 54.2957 247.836 54.0575C247.585 53.816 247.248 53.6953 246.827 53.6953C246.469 53.6953 246.155 53.7918 245.885 53.985C245.614 54.175 245.404 54.4487 245.252 54.8061C245.104 55.1634 245.03 55.5917 245.03 56.0907C245.03 56.5962 245.104 57.0309 245.252 57.3947C245.4 57.7553 245.608 58.0338 245.875 58.2302C246.146 58.4234 246.463 58.52 246.827 58.52C247.084 58.52 247.314 58.4717 247.517 58.3751C247.723 58.2753 247.896 58.132 248.034 57.9453C248.172 57.7585 248.267 57.5315 248.319 57.2643H249.99C249.948 57.7891 249.794 58.2544 249.526 58.66C249.259 59.0625 248.895 59.378 248.435 59.6066C247.974 59.832 247.434 59.9447 246.812 59.9447ZM252.87 57.472L252.865 55.3615H253.145L255.811 52.3816H257.854L254.575 56.0328H254.212L252.87 57.472ZM251.276 59.7998V49.9089H253.024V59.7998H251.276ZM255.932 59.7998L253.517 56.424L254.695 55.1924L258.023 59.7998H255.932ZM261.736 51.4109V49.9089H269.627V51.4109H266.57V59.7998H264.793V51.4109H261.736ZM273.082 59.9447C272.357 59.9447 271.729 59.7853 271.198 59.4666C270.667 59.1478 270.255 58.7019 269.962 58.1288C269.672 57.5557 269.527 56.886 269.527 56.1197C269.527 55.3534 269.672 54.6821 269.962 54.1058C270.255 53.5294 270.667 53.0819 271.198 52.7632C271.729 52.4444 272.357 52.285 273.082 52.285C273.806 52.285 274.434 52.4444 274.965 52.7632C275.497 53.0819 275.907 53.5294 276.197 54.1058C276.49 54.6821 276.636 55.3534 276.636 56.1197C276.636 56.886 276.49 57.5557 276.197 58.1288C275.907 58.7019 275.497 59.1478 274.965 59.4666C274.434 59.7853 273.806 59.9447 273.082 59.9447ZM273.091 58.5441C273.484 58.5441 273.813 58.4363 274.077 58.2205C274.341 58.0016 274.537 57.7086 274.666 57.3416C274.798 56.9745 274.864 56.5656 274.864 56.1149C274.864 55.6609 274.798 55.2504 274.666 54.8833C274.537 54.5131 274.341 54.2185 274.077 53.9995C273.813 53.7806 273.484 53.6711 273.091 53.6711C272.689 53.6711 272.354 53.7806 272.087 53.9995C271.823 54.2185 271.625 54.5131 271.493 54.8833C271.364 55.2504 271.3 55.6609 271.3 56.1149C271.3 56.5656 271.364 56.9745 271.493 57.3416C271.625 57.7086 271.823 58.0016 272.087 58.2205C272.354 58.4363 272.689 58.5441 273.091 58.5441ZM279.564 57.472L279.559 55.3615H279.84L282.506 52.3816H284.548L281.269 56.0328H280.907L279.564 57.472ZM277.971 59.7998V49.9089H279.719V59.7998H277.971ZM282.626 59.7998L280.211 56.424L281.39 55.1924L284.717 59.7998H282.626ZM288.543 59.9447C287.799 59.9447 287.156 59.7901 286.616 59.4811C286.078 59.1687 285.664 58.7276 285.374 58.1578C285.085 57.5847 284.94 56.9101 284.94 56.1342C284.94 55.3711 285.085 54.7014 285.374 54.1251C285.667 53.5455 286.076 53.0948 286.601 52.7728C287.126 52.4476 287.742 52.285 288.451 52.285C288.908 52.285 289.339 52.3591 289.745 52.5072C290.154 52.6521 290.515 52.8775 290.827 53.1833C291.142 53.4892 291.39 53.8788 291.571 54.3521C291.751 54.8222 291.841 55.3824 291.841 56.0328V56.5688H285.761V55.3904H290.165C290.162 55.0556 290.09 54.7578 289.948 54.497C289.806 54.2329 289.608 54.0253 289.354 53.874C289.103 53.7226 288.81 53.647 288.475 53.647C288.118 53.647 287.804 53.7339 287.533 53.9078C287.263 54.0784 287.052 54.3038 286.901 54.5839C286.752 54.8608 286.677 55.1651 286.674 55.4967V56.5254C286.674 56.9568 286.752 57.3271 286.91 57.6362C287.068 57.942 287.288 58.1771 287.572 58.3413C287.855 58.5023 288.187 58.5828 288.567 58.5828C288.821 58.5828 289.051 58.5473 289.257 58.4765C289.463 58.4025 289.642 58.2946 289.793 58.1529C289.945 58.0113 290.059 57.8358 290.136 57.6265L291.769 57.81C291.666 58.2415 291.469 58.6182 291.179 58.9401C290.893 59.2589 290.526 59.5068 290.078 59.6839C289.631 59.8578 289.119 59.9447 288.543 59.9447ZM294.919 55.4532V59.7998H293.171V52.3816H294.842V53.6421H294.929C295.099 53.2268 295.371 52.8968 295.745 52.6521C296.121 52.4074 296.587 52.285 297.14 52.285C297.652 52.285 298.098 52.3945 298.478 52.6134C298.861 52.8324 299.158 53.1495 299.367 53.5649C299.579 53.9802 299.684 54.4841 299.681 55.0765V59.7998H297.933V55.347C297.933 54.8511 297.804 54.4632 297.546 54.183C297.292 53.9029 296.939 53.7629 296.488 53.7629C296.183 53.7629 295.911 53.8305 295.672 53.9657C295.437 54.0977 295.252 54.2893 295.117 54.5404C294.985 54.7916 294.919 55.0958 294.919 55.4532Z" fill="#232323"/>
</g>
<g filter="url(#filter4_d_190_1579)">
<rect x="33.7999" y="311.6" width="177.6" height="41.6" rx="20.8" fill="#EBF0FF"/>
<path d="M57.1348 337.589C56.3395 337.589 55.657 337.388 55.0871 336.985C54.5204 336.579 54.0841 335.995 53.7783 335.232C53.4756 334.466 53.3243 333.543 53.3243 332.465C53.3275 331.386 53.4804 330.468 53.7831 329.712C54.089 328.952 54.5252 328.372 55.0919 327.973C55.6618 327.574 56.3428 327.374 57.1348 327.374C57.9268 327.374 58.6078 327.574 59.1777 327.973C59.7476 328.372 60.1838 328.952 60.4865 329.712C60.7924 330.472 60.9453 331.389 60.9453 332.465C60.9453 333.546 60.7924 334.47 60.4865 335.237C60.1838 336 59.7476 336.583 59.1777 336.985C58.611 337.388 57.9301 337.589 57.1348 337.589ZM57.1348 336.077C57.753 336.077 58.2408 335.773 58.5981 335.164C58.9588 334.553 59.1391 333.653 59.1391 332.465C59.1391 331.679 59.057 331.019 58.8928 330.484C58.7285 329.95 58.4967 329.548 58.1973 329.277C57.8979 329.003 57.5437 328.867 57.1348 328.867C56.5198 328.867 56.0337 329.172 55.6763 329.784C55.3189 330.393 55.1386 331.286 55.1354 332.465C55.1321 333.253 55.211 333.917 55.372 334.454C55.5362 334.992 55.768 335.398 56.0675 335.671C56.3669 335.942 56.7227 336.077 57.1348 336.077ZM63.1115 337.507C62.8185 337.507 62.5673 337.404 62.3581 337.198C62.1488 336.991 62.0458 336.74 62.049 336.444C62.0458 336.154 62.1488 335.906 62.3581 335.7C62.5673 335.494 62.8185 335.391 63.1115 335.391C63.3948 335.391 63.6411 335.494 63.8504 335.7C64.0629 335.906 64.1708 336.154 64.174 336.444C64.1708 336.641 64.1192 336.819 64.0194 336.98C63.9228 337.141 63.7941 337.27 63.6331 337.367C63.4753 337.46 63.3014 337.507 63.1115 337.507ZM65.8101 337.4V336.106L69.2439 332.74C69.5723 332.408 69.846 332.114 70.0649 331.856C70.2839 331.598 70.4481 331.349 70.5575 331.107C70.667 330.866 70.7217 330.608 70.7217 330.335C70.7217 330.022 70.6509 329.755 70.5092 329.533C70.3676 329.308 70.1728 329.134 69.9249 329.011C69.677 328.889 69.3952 328.828 69.0797 328.828C68.7545 328.828 68.4696 328.896 68.2249 329.031C67.9802 329.163 67.7902 329.351 67.655 329.596C67.523 329.841 67.457 330.132 67.457 330.47H65.7521C65.7521 329.842 65.8954 329.296 66.182 328.833C66.4685 328.369 66.8629 328.01 67.3652 327.756C67.8707 327.501 68.4503 327.374 69.1039 327.374C69.7671 327.374 70.3499 327.498 70.8521 327.746C71.3544 327.994 71.744 328.334 72.0209 328.765C72.301 329.197 72.4411 329.689 72.4411 330.243C72.4411 330.613 72.3702 330.977 72.2286 331.334C72.0869 331.692 71.8374 332.088 71.48 332.523C71.1258 332.957 70.6284 333.484 69.9877 334.102L68.2828 335.836V335.903H72.5908V337.4H65.8101ZM79.3957 335.546V335.024C79.3957 334.641 79.4762 334.289 79.6372 333.967C79.8014 333.645 80.0397 333.385 80.352 333.189C80.6643 332.993 81.0426 332.894 81.4869 332.894C81.9441 332.894 82.3273 332.993 82.6364 333.189C82.9454 333.382 83.1789 333.64 83.3366 333.962C83.4976 334.284 83.5781 334.638 83.5781 335.024V335.546C83.5781 335.929 83.4976 336.282 83.3366 336.604C83.1757 336.925 82.939 337.185 82.6267 337.381C82.3176 337.577 81.9377 337.676 81.4869 337.676C81.0362 337.676 80.6546 337.577 80.3423 337.381C80.03 337.185 79.7934 336.925 79.6324 336.604C79.4746 336.282 79.3957 335.929 79.3957 335.546ZM80.6562 335.024V335.546C80.6562 335.8 80.7174 336.034 80.8398 336.246C80.9621 336.459 81.1778 336.565 81.4869 336.565C81.7992 336.565 82.0133 336.46 82.1293 336.251C82.2484 336.038 82.3079 335.803 82.3079 335.546V335.024C82.3079 334.767 82.2516 334.532 82.1389 334.319C82.0262 334.103 81.8089 333.996 81.4869 333.996C81.1843 333.996 80.9702 334.103 80.8446 334.319C80.719 334.532 80.6562 334.767 80.6562 335.024ZM74.3682 329.886V329.364C74.3682 328.978 74.4503 328.623 74.6145 328.302C74.7787 327.98 75.0169 327.722 75.3293 327.529C75.6416 327.332 76.0199 327.234 76.4642 327.234C76.9182 327.234 77.2997 327.332 77.6088 327.529C77.9211 327.722 78.1561 327.98 78.3139 328.302C78.4717 328.623 78.5506 328.978 78.5506 329.364V329.886C78.5506 330.272 78.4701 330.626 78.3091 330.948C78.1513 331.267 77.9163 331.523 77.604 331.716C77.2917 331.909 76.9117 332.006 76.4642 332.006C76.0102 332.006 75.6271 331.909 75.3148 331.716C75.0057 331.523 74.7706 331.265 74.6096 330.943C74.4487 330.621 74.3682 330.269 74.3682 329.886ZM75.6383 329.364V329.886C75.6383 330.143 75.6979 330.378 75.817 330.591C75.9394 330.8 76.1551 330.905 76.4642 330.905C76.7733 330.905 76.9858 330.8 77.1017 330.591C77.2208 330.378 77.2804 330.143 77.2804 329.886V329.364C77.2804 329.106 77.224 328.871 77.1114 328.659C76.9987 328.443 76.7829 328.335 76.4642 328.335C76.1583 328.335 75.9442 328.443 75.8219 328.659C75.6995 328.875 75.6383 329.11 75.6383 329.364ZM74.9187 337.4L81.7187 327.509H82.9261L76.1261 337.4H74.9187ZM92.3802 329.982V331.334H88.1157V329.982H92.3802ZM89.1685 328.205H90.9168V335.169C90.9168 335.404 90.9523 335.584 91.0231 335.71C91.0971 335.832 91.1937 335.916 91.3129 335.961C91.432 336.006 91.564 336.029 91.7089 336.029C91.8184 336.029 91.9182 336.021 92.0083 336.005C92.1017 335.989 92.1725 335.974 92.2208 335.961L92.5154 337.328C92.4221 337.36 92.2884 337.396 92.1146 337.434C91.9439 337.473 91.7346 337.495 91.4867 337.502C91.0488 337.515 90.6544 337.449 90.3035 337.304C89.9525 337.156 89.674 336.927 89.468 336.618C89.2651 336.309 89.1653 335.923 89.1685 335.459V328.205ZM93.6927 337.4V329.982H95.3879V331.219H95.4652C95.6004 330.79 95.8322 330.46 96.1606 330.229C96.4923 329.993 96.8706 329.876 97.2956 329.876C97.3922 329.876 97.5 329.881 97.6192 329.89C97.7415 329.897 97.8429 329.908 97.9234 329.924V331.532C97.8494 331.507 97.7318 331.484 97.5709 331.465C97.4131 331.442 97.2602 331.431 97.1121 331.431C96.7933 331.431 96.5068 331.5 96.2524 331.639C96.0013 331.774 95.8032 331.962 95.6584 332.204C95.5135 332.445 95.441 332.724 95.441 333.039V337.4H93.6927ZM100.937 337.55C100.467 337.55 100.044 337.466 99.667 337.299C99.2935 337.128 98.9973 336.877 98.7784 336.546C98.5626 336.214 98.4548 335.805 98.4548 335.319C98.4548 334.9 98.5321 334.554 98.6866 334.281C98.8411 334.007 99.052 333.788 99.3193 333.624C99.5865 333.459 99.8876 333.336 100.222 333.252C100.56 333.165 100.91 333.102 101.27 333.063C101.705 333.018 102.058 332.978 102.328 332.943C102.599 332.904 102.795 332.846 102.917 332.769C103.043 332.688 103.106 332.564 103.106 332.397V332.368C103.106 332.004 102.998 331.722 102.782 331.523C102.566 331.323 102.256 331.223 101.85 331.223C101.422 331.223 101.082 331.317 100.831 331.504C100.583 331.69 100.416 331.911 100.329 332.165L98.6963 331.933C98.8251 331.483 99.0376 331.106 99.3338 330.803C99.63 330.497 99.9922 330.269 100.42 330.117C100.849 329.963 101.322 329.886 101.84 329.886C102.198 329.886 102.553 329.927 102.908 330.011C103.262 330.095 103.585 330.233 103.878 330.427C104.171 330.616 104.406 330.876 104.583 331.204C104.764 331.532 104.854 331.943 104.854 332.436V337.4H103.173V336.381H103.115C103.009 336.587 102.859 336.781 102.666 336.961C102.476 337.138 102.236 337.281 101.947 337.391C101.66 337.497 101.324 337.55 100.937 337.55ZM101.391 336.265C101.742 336.265 102.046 336.196 102.304 336.058C102.562 335.916 102.76 335.729 102.898 335.498C103.04 335.266 103.11 335.013 103.11 334.739V333.865C103.056 333.91 102.962 333.952 102.83 333.991C102.702 334.029 102.557 334.063 102.396 334.092C102.235 334.121 102.075 334.147 101.918 334.169C101.76 334.192 101.623 334.211 101.507 334.227C101.246 334.263 101.013 334.321 100.807 334.401C100.601 334.482 100.438 334.594 100.319 334.739C100.2 334.881 100.14 335.065 100.14 335.29C100.14 335.612 100.258 335.855 100.493 336.019C100.728 336.183 101.027 336.265 101.391 336.265ZM108.211 333.054V337.4H106.462V329.982H108.133V331.243H108.22C108.391 330.827 108.663 330.497 109.036 330.253C109.413 330.008 109.878 329.886 110.432 329.886C110.944 329.886 111.39 329.995 111.77 330.214C112.153 330.433 112.449 330.75 112.659 331.165C112.871 331.581 112.976 332.085 112.973 332.677V337.4H111.224V332.948C111.224 332.452 111.095 332.064 110.838 331.784C110.583 331.504 110.231 331.363 109.78 331.363C109.474 331.363 109.202 331.431 108.964 331.566C108.729 331.698 108.544 331.89 108.409 332.141C108.277 332.392 108.211 332.696 108.211 333.054ZM120.463 331.943L118.87 332.117C118.824 331.956 118.746 331.805 118.633 331.663C118.523 331.521 118.375 331.407 118.189 331.32C118.002 331.233 117.773 331.19 117.503 331.19C117.139 331.19 116.833 331.268 116.585 331.426C116.34 331.584 116.22 331.788 116.223 332.04C116.22 332.255 116.299 332.431 116.46 332.566C116.624 332.701 116.894 332.812 117.271 332.899L118.536 333.17C119.238 333.321 119.76 333.561 120.101 333.889C120.446 334.218 120.619 334.648 120.623 335.179C120.619 335.646 120.483 336.058 120.212 336.415C119.945 336.769 119.573 337.046 119.096 337.246C118.62 337.445 118.073 337.545 117.454 337.545C116.546 337.545 115.816 337.355 115.262 336.975C114.708 336.592 114.378 336.059 114.272 335.377L115.977 335.213C116.054 335.547 116.218 335.8 116.469 335.971C116.72 336.141 117.047 336.227 117.45 336.227C117.865 336.227 118.198 336.141 118.449 335.971C118.704 335.8 118.831 335.589 118.831 335.338C118.831 335.126 118.749 334.95 118.585 334.812C118.424 334.673 118.172 334.567 117.831 334.493L116.566 334.227C115.854 334.079 115.328 333.83 114.987 333.479C114.645 333.125 114.476 332.677 114.479 332.136C114.476 331.679 114.6 331.283 114.851 330.948C115.106 330.61 115.458 330.349 115.909 330.166C116.363 329.979 116.886 329.886 117.479 329.886C118.348 329.886 119.032 330.071 119.531 330.441C120.033 330.811 120.344 331.312 120.463 331.943ZM124.049 337.55C123.579 337.55 123.156 337.466 122.779 337.299C122.406 337.128 122.109 336.877 121.891 336.546C121.675 336.214 121.567 335.805 121.567 335.319C121.567 334.9 121.644 334.554 121.799 334.281C121.953 334.007 122.164 333.788 122.431 333.624C122.699 333.459 123 333.336 123.335 333.252C123.673 333.165 124.022 333.102 124.383 333.063C124.817 333.018 125.17 332.978 125.44 332.943C125.711 332.904 125.907 332.846 126.029 332.769C126.155 332.688 126.218 332.564 126.218 332.397V332.368C126.218 332.004 126.11 331.722 125.894 331.523C125.678 331.323 125.368 331.223 124.962 331.223C124.534 331.223 124.194 331.317 123.943 331.504C123.695 331.69 123.528 331.911 123.441 332.165L121.808 331.933C121.937 331.483 122.15 331.106 122.446 330.803C122.742 330.497 123.104 330.269 123.533 330.117C123.961 329.963 124.434 329.886 124.952 329.886C125.31 329.886 125.666 329.927 126.02 330.011C126.374 330.095 126.698 330.233 126.991 330.427C127.283 330.616 127.519 330.876 127.696 331.204C127.876 331.532 127.966 331.943 127.966 332.436V337.4H126.285V336.381H126.227C126.121 336.587 125.971 336.781 125.778 336.961C125.588 337.138 125.348 337.281 125.059 337.391C124.772 337.497 124.436 337.55 124.049 337.55ZM124.503 336.265C124.854 336.265 125.158 336.196 125.416 336.058C125.674 335.916 125.872 335.729 126.01 335.498C126.152 335.266 126.223 335.013 126.223 334.739V333.865C126.168 333.91 126.075 333.952 125.942 333.991C125.814 334.029 125.669 334.063 125.508 334.092C125.347 334.121 125.187 334.147 125.03 334.169C124.872 334.192 124.735 334.211 124.619 334.227C124.358 334.263 124.125 334.321 123.919 334.401C123.713 334.482 123.55 334.594 123.431 334.739C123.312 334.881 123.252 335.065 123.252 335.29C123.252 335.612 123.37 335.855 123.605 336.019C123.84 336.183 124.139 336.265 124.503 336.265ZM132.81 337.545C132.07 337.545 131.434 337.383 130.903 337.057C130.375 336.732 129.967 336.283 129.681 335.71C129.397 335.134 129.256 334.47 129.256 333.72C129.256 332.967 129.401 332.302 129.69 331.726C129.98 331.146 130.389 330.695 130.917 330.373C131.448 330.048 132.076 329.886 132.801 329.886C133.403 329.886 133.936 329.997 134.399 330.219C134.866 330.438 135.238 330.748 135.515 331.151C135.792 331.55 135.949 332.017 135.988 332.552H134.317C134.249 332.194 134.088 331.896 133.834 331.658C133.583 331.417 133.246 331.296 132.825 331.296C132.467 331.296 132.153 331.392 131.883 331.586C131.612 331.776 131.402 332.049 131.25 332.407C131.102 332.764 131.028 333.192 131.028 333.691C131.028 334.197 131.102 334.631 131.25 334.995C131.398 335.356 131.606 335.634 131.873 335.831C132.144 336.024 132.461 336.121 132.825 336.121C133.082 336.121 133.312 336.072 133.515 335.976C133.721 335.876 133.894 335.733 134.032 335.546C134.171 335.359 134.266 335.132 134.317 334.865H135.988C135.946 335.39 135.792 335.855 135.524 336.261C135.257 336.663 134.893 336.979 134.433 337.207C133.973 337.433 133.432 337.545 132.81 337.545ZM140.978 329.982V331.334H136.714V329.982H140.978ZM137.767 328.205H139.515V335.169C139.515 335.404 139.55 335.584 139.621 335.71C139.695 335.832 139.792 335.916 139.911 335.961C140.03 336.006 140.162 336.029 140.307 336.029C140.416 336.029 140.516 336.021 140.606 336.005C140.7 335.989 140.771 335.974 140.819 335.961L141.114 337.328C141.02 337.36 140.887 337.396 140.713 337.434C140.542 337.473 140.333 337.495 140.085 337.502C139.647 337.515 139.253 337.449 138.902 337.304C138.551 337.156 138.272 336.927 138.066 336.618C137.863 336.309 137.763 335.923 137.767 335.459V328.205ZM142.291 337.4V329.982H144.039V337.4H142.291ZM143.17 328.929C142.893 328.929 142.655 328.838 142.455 328.654C142.255 328.467 142.156 328.244 142.156 327.983C142.156 327.719 142.255 327.495 142.455 327.311C142.655 327.125 142.893 327.031 143.17 327.031C143.45 327.031 143.688 327.125 143.885 327.311C144.084 327.495 144.184 327.719 144.184 327.983C144.184 328.244 144.084 328.467 143.885 328.654C143.688 328.838 143.45 328.929 143.17 328.929ZM148.923 337.545C148.199 337.545 147.571 337.386 147.04 337.067C146.508 336.748 146.096 336.302 145.803 335.729C145.513 335.156 145.369 334.487 145.369 333.72C145.369 332.954 145.513 332.283 145.803 331.706C146.096 331.13 146.508 330.682 147.04 330.364C147.571 330.045 148.199 329.886 148.923 329.886C149.648 329.886 150.275 330.045 150.807 330.364C151.338 330.682 151.748 331.13 152.038 331.706C152.331 332.283 152.478 332.954 152.478 333.72C152.478 334.487 152.331 335.156 152.038 335.729C151.748 336.302 151.338 336.748 150.807 337.067C150.275 337.386 149.648 337.545 148.923 337.545ZM148.933 336.145C149.326 336.145 149.654 336.037 149.918 335.821C150.182 335.602 150.378 335.309 150.507 334.942C150.639 334.575 150.705 334.166 150.705 333.715C150.705 333.261 150.639 332.851 150.507 332.484C150.378 332.114 150.182 331.819 149.918 331.6C149.654 331.381 149.326 331.272 148.933 331.272C148.53 331.272 148.195 331.381 147.928 331.6C147.664 331.819 147.466 332.114 147.334 332.484C147.205 332.851 147.141 333.261 147.141 333.715C147.141 334.166 147.205 334.575 147.334 334.942C147.466 335.309 147.664 335.602 147.928 335.821C148.195 336.037 148.53 336.145 148.933 336.145ZM155.56 333.054V337.4H153.812V329.982H155.483V331.243H155.57C155.741 330.827 156.013 330.497 156.386 330.253C156.763 330.008 157.228 329.886 157.782 329.886C158.294 329.886 158.74 329.995 159.12 330.214C159.503 330.433 159.799 330.75 160.008 331.165C160.221 331.581 160.325 332.085 160.322 332.677V337.4H158.574V332.948C158.574 332.452 158.445 332.064 158.188 331.784C157.933 331.504 157.581 331.363 157.13 331.363C156.824 331.363 156.552 331.431 156.314 331.566C156.079 331.698 155.893 331.89 155.758 332.141C155.626 332.392 155.56 332.696 155.56 333.054ZM168.931 329.982V331.334H164.546V329.982H168.931ZM165.642 337.4V329.282C165.642 328.783 165.745 328.368 165.951 328.036C166.161 327.704 166.441 327.456 166.792 327.292C167.143 327.128 167.532 327.046 167.96 327.046C168.263 327.046 168.532 327.07 168.767 327.118C169.002 327.167 169.176 327.21 169.288 327.249L168.941 328.601C168.867 328.578 168.773 328.556 168.661 328.533C168.548 328.508 168.422 328.495 168.284 328.495C167.959 328.495 167.729 328.574 167.593 328.731C167.461 328.886 167.395 329.108 167.395 329.398V337.4H165.642ZM173.156 337.545C172.412 337.545 171.77 337.391 171.229 337.082C170.691 336.769 170.277 336.328 169.988 335.758C169.698 335.185 169.553 334.511 169.553 333.735C169.553 332.972 169.698 332.302 169.988 331.726C170.281 331.146 170.69 330.695 171.214 330.373C171.739 330.048 172.356 329.886 173.064 329.886C173.521 329.886 173.953 329.96 174.358 330.108C174.767 330.253 175.128 330.478 175.44 330.784C175.756 331.09 176.004 331.479 176.184 331.953C176.364 332.423 176.454 332.983 176.454 333.633V334.169H170.374V332.991H174.779C174.775 332.656 174.703 332.358 174.561 332.098C174.42 331.834 174.222 331.626 173.967 331.475C173.716 331.323 173.423 331.248 173.088 331.248C172.731 331.248 172.417 331.334 172.146 331.508C171.876 331.679 171.665 331.904 171.514 332.184C171.366 332.461 171.29 332.766 171.287 333.097V334.126C171.287 334.557 171.366 334.928 171.523 335.237C171.681 335.543 171.902 335.778 172.185 335.942C172.468 336.103 172.8 336.183 173.18 336.183C173.434 336.183 173.665 336.148 173.871 336.077C174.077 336.003 174.255 335.895 174.407 335.754C174.558 335.612 174.672 335.436 174.75 335.227L176.382 335.411C176.279 335.842 176.083 336.219 175.793 336.541C175.506 336.859 175.139 337.107 174.692 337.284C174.244 337.458 173.732 337.545 173.156 337.545ZM181.068 337.545C180.324 337.545 179.682 337.391 179.141 337.082C178.603 336.769 178.19 336.328 177.9 335.758C177.61 335.185 177.465 334.511 177.465 333.735C177.465 332.972 177.61 332.302 177.9 331.726C178.193 331.146 178.602 330.695 179.126 330.373C179.651 330.048 180.268 329.886 180.976 329.886C181.433 329.886 181.865 329.96 182.271 330.108C182.679 330.253 183.04 330.478 183.352 330.784C183.668 331.09 183.916 331.479 184.096 331.953C184.276 332.423 184.367 332.983 184.367 333.633V334.169H178.286V332.991H182.691C182.687 332.656 182.615 332.358 182.473 332.098C182.332 331.834 182.134 331.626 181.879 331.475C181.628 331.323 181.335 331.248 181 331.248C180.643 331.248 180.329 331.334 180.059 331.508C179.788 331.679 179.577 331.904 179.426 332.184C179.278 332.461 179.202 332.766 179.199 333.097V334.126C179.199 334.557 179.278 334.928 179.436 335.237C179.593 335.543 179.814 335.778 180.097 335.942C180.381 336.103 180.712 336.183 181.092 336.183C181.346 336.183 181.577 336.148 181.783 336.077C181.989 336.003 182.167 335.895 182.319 335.754C182.47 335.612 182.584 335.436 182.662 335.227L184.294 335.411C184.191 335.842 183.995 336.219 183.705 336.541C183.418 336.859 183.051 337.107 182.604 337.284C182.156 337.458 181.644 337.545 181.068 337.545ZM191.559 331.943L189.965 332.117C189.92 331.956 189.841 331.805 189.729 331.663C189.619 331.521 189.471 331.407 189.284 331.32C189.098 331.233 188.869 331.19 188.599 331.19C188.235 331.19 187.929 331.268 187.681 331.426C187.436 331.584 187.316 331.788 187.319 332.04C187.316 332.255 187.394 332.431 187.555 332.566C187.72 332.701 187.99 332.812 188.367 332.899L189.632 333.17C190.334 333.321 190.856 333.561 191.197 333.889C191.541 334.218 191.715 334.648 191.718 335.179C191.715 335.646 191.578 336.058 191.308 336.415C191.041 336.769 190.669 337.046 190.192 337.246C189.716 337.445 189.168 337.545 188.55 337.545C187.642 337.545 186.911 337.355 186.358 336.975C185.804 336.592 185.474 336.059 185.368 335.377L187.072 335.213C187.15 335.547 187.314 335.8 187.565 335.971C187.816 336.141 188.143 336.227 188.545 336.227C188.961 336.227 189.294 336.141 189.545 335.971C189.799 335.8 189.927 335.589 189.927 335.338C189.927 335.126 189.845 334.95 189.68 334.812C189.519 334.673 189.268 334.567 188.927 334.493L187.662 334.227C186.95 334.079 186.424 333.83 186.082 333.479C185.741 333.125 185.572 332.677 185.575 332.136C185.572 331.679 185.696 331.283 185.947 330.948C186.201 330.61 186.554 330.349 187.005 330.166C187.459 329.979 187.982 329.886 188.574 329.886C189.444 329.886 190.128 330.071 190.627 330.441C191.129 330.811 191.44 331.312 191.559 331.943Z" fill="#3169FA"/>
<rect x="33.7999" y="311.6" width="177.6" height="41.6" rx="20.8" stroke="#3169FA" stroke-width="0.8" stroke-dasharray="2.4 2.4"/>
<rect x="33.3999" y="361.601" width="192" height="42.4" rx="21.2" fill="#232323"/>
<g clip-path="url(#clip0_190_1579)">
<path d="M61.2397 385.281C61.2397 384.751 61.6699 384.32 62.2 384.32C62.7301 384.32 63.1602 384.751 63.1602 385.281V386.241C63.1602 386.771 62.7301 387.2 62.2 387.2C61.6699 387.2 61.2397 386.771 61.2397 386.241V385.281Z" fill="white"/>
<path fill-rule="evenodd" clip-rule="evenodd" d="M66.9985 380.602C66.9994 380.561 66.9994 380.521 66.9994 380.481V377.601C66.9994 374.95 64.8503 372.801 62.1999 372.801C59.5485 372.801 57.4003 374.95 57.4003 377.601V380.481C57.4003 380.521 57.4003 380.561 57.4012 380.602C55.7444 381.027 54.5204 382.531 54.5204 384.321V388.161C54.5204 390.281 56.2393 392.001 58.3597 392.001H66.0401C68.1604 392.001 69.8793 390.281 69.8793 388.161V384.321C69.8793 382.531 68.6554 381.028 66.9985 380.602H66.9985ZM65.0798 380.481V377.601C65.0798 376.01 63.7901 374.721 62.1999 374.721C60.6096 374.721 59.32 376.01 59.32 377.601V380.481H65.0798ZM67.9597 384.32C67.9597 383.26 67.1002 382.401 66.0401 382.401H58.3597C57.2995 382.401 56.44 383.26 56.44 384.32V388.161C56.44 389.221 57.2995 390.08 58.3597 390.08H66.0401C67.1003 390.08 67.9597 389.221 67.9597 388.161V384.32Z" fill="white"/>
</g>
<path d="M84.5507 380.629C84.5056 380.207 84.3156 379.879 83.9808 379.644C83.6492 379.409 83.2177 379.291 82.6865 379.291C82.313 379.291 81.9926 379.347 81.7254 379.46C81.4582 379.573 81.2537 379.726 81.112 379.919C80.9704 380.112 80.8979 380.333 80.8947 380.581C80.8947 380.787 80.9414 380.965 81.0348 381.117C81.1314 381.268 81.2618 381.397 81.426 381.503C81.5902 381.606 81.7721 381.693 81.9717 381.764C82.1713 381.835 82.3726 381.894 82.5754 381.943L83.5027 382.174C83.8762 382.261 84.2352 382.379 84.5797 382.527C84.9274 382.675 85.2381 382.862 85.5118 383.087C85.7887 383.313 86.0076 383.585 86.1686 383.903C86.3296 384.222 86.4101 384.596 86.4101 385.024C86.4101 385.603 86.262 386.114 85.9657 386.555C85.6695 386.993 85.2413 387.336 84.6811 387.583C84.1241 387.828 83.4495 387.95 82.6575 387.95C81.888 387.95 81.2199 387.831 80.6532 387.593C80.0898 387.355 79.6487 387.007 79.3299 386.55C79.0144 386.093 78.8438 385.536 78.818 384.879H80.5808C80.6066 385.223 80.7128 385.51 80.8995 385.739C81.0863 385.967 81.3294 386.138 81.6288 386.25C81.9315 386.363 82.2695 386.42 82.643 386.42C83.0326 386.42 83.3739 386.362 83.6669 386.246C83.9631 386.127 84.1949 385.962 84.3623 385.753C84.5298 385.541 84.6151 385.293 84.6183 385.009C84.6151 384.752 84.5394 384.539 84.3913 384.372C84.2432 384.201 84.0355 384.059 83.7683 383.947C83.5043 383.831 83.1952 383.728 82.841 383.638L81.7157 383.348C80.9012 383.139 80.2572 382.822 79.7839 382.397C79.3138 381.968 79.0788 381.4 79.0788 380.692C79.0788 380.109 79.2366 379.599 79.5521 379.161C79.8709 378.723 80.3039 378.383 80.8512 378.142C81.3986 377.897 82.0184 377.775 82.7106 377.775C83.4125 377.775 84.0275 377.897 84.5555 378.142C85.0868 378.383 85.5037 378.72 85.8064 379.151C86.109 379.579 86.2652 380.072 86.2748 380.629H84.5507ZM91.4848 380.383V381.735H87.2203V380.383H91.4848ZM88.2732 378.605H90.0215V385.57C90.0215 385.805 90.0569 385.985 90.1277 386.11C90.2018 386.233 90.2984 386.317 90.4175 386.362C90.5366 386.407 90.6686 386.429 90.8135 386.429C90.923 386.429 91.0228 386.421 91.1129 386.405C91.2063 386.389 91.2771 386.374 91.3254 386.362L91.62 387.728C91.5267 387.761 91.3931 387.796 91.2192 387.835C91.0485 387.873 90.8393 387.896 90.5914 387.902C90.1535 387.915 89.7591 387.849 89.4081 387.704C89.0572 387.556 88.7787 387.327 88.5726 387.018C88.3698 386.709 88.2699 386.323 88.2732 385.859V378.605ZM94.932 387.95C94.4619 387.95 94.0386 387.867 93.6619 387.699C93.2884 387.529 92.9922 387.278 92.7732 386.946C92.5575 386.614 92.4496 386.205 92.4496 385.719C92.4496 385.301 92.5269 384.955 92.6815 384.681C92.836 384.407 93.0469 384.188 93.3141 384.024C93.5814 383.86 93.8824 383.736 94.2172 383.652C94.5553 383.565 94.9047 383.502 95.2653 383.464C95.6999 383.419 96.0525 383.379 96.3229 383.343C96.5934 383.304 96.7898 383.247 96.9121 383.169C97.0377 383.089 97.1005 382.965 97.1005 382.797V382.768C97.1005 382.405 96.9926 382.123 96.7769 381.923C96.5612 381.724 96.2505 381.624 95.8448 381.624C95.4166 381.624 95.0769 381.717 94.8258 381.904C94.5779 382.091 94.4104 382.311 94.3235 382.566L92.6911 382.334C92.8199 381.883 93.0324 381.506 93.3286 381.204C93.6248 380.898 93.987 380.669 94.4153 380.518C94.8435 380.363 95.3168 380.286 95.8351 380.286C96.1925 380.286 96.5483 380.328 96.9025 380.412C97.2566 380.495 97.5802 380.634 97.8732 380.827C98.1662 381.017 98.4012 381.276 98.5783 381.604C98.7586 381.933 98.8488 382.343 98.8488 382.836V387.801H97.1681V386.782H97.1101C97.0039 386.988 96.8542 387.181 96.661 387.361C96.471 387.538 96.2312 387.682 95.9414 387.791C95.6548 387.897 95.3184 387.95 94.932 387.95ZM95.386 386.666C95.7369 386.666 96.0412 386.597 96.2988 386.458C96.5564 386.317 96.7544 386.13 96.8928 385.898C97.0345 385.666 97.1053 385.413 97.1053 385.14V384.266C97.0506 384.311 96.9572 384.352 96.8252 384.391C96.6964 384.43 96.5515 384.464 96.3905 384.493C96.2296 384.522 96.0702 384.547 95.9124 384.57C95.7547 384.592 95.6178 384.612 95.5019 384.628C95.2411 384.663 95.0077 384.721 94.8016 384.802C94.5956 384.882 94.433 384.995 94.3138 385.14C94.1947 385.281 94.1351 385.465 94.1351 385.69C94.1351 386.012 94.2527 386.255 94.4877 386.42C94.7227 386.584 95.0222 386.666 95.386 386.666ZM102.051 385.473L102.046 383.362H102.326L104.992 380.383H107.035L103.756 384.034H103.394L102.051 385.473ZM100.457 387.801V377.91H102.205V387.801H100.457ZM105.113 387.801L102.698 384.425L103.876 383.193L107.204 387.801H105.113ZM111.029 387.946C110.285 387.946 109.643 387.791 109.102 387.482C108.564 387.17 108.151 386.729 107.861 386.159C107.571 385.586 107.426 384.911 107.426 384.135C107.426 383.372 107.571 382.702 107.861 382.126C108.154 381.547 108.563 381.096 109.088 380.774C109.612 380.449 110.229 380.286 110.937 380.286C111.395 380.286 111.826 380.36 112.232 380.508C112.641 380.653 113.001 380.878 113.314 381.184C113.629 381.49 113.877 381.88 114.057 382.353C114.238 382.823 114.328 383.383 114.328 384.034V384.57H108.247V383.391H112.652C112.649 383.057 112.576 382.759 112.435 382.498C112.293 382.234 112.095 382.026 111.84 381.875C111.589 381.724 111.296 381.648 110.962 381.648C110.604 381.648 110.29 381.735 110.02 381.909C109.749 382.079 109.538 382.305 109.387 382.585C109.239 382.862 109.163 383.166 109.16 383.498V384.526C109.16 384.958 109.239 385.328 109.397 385.637C109.555 385.943 109.775 386.178 110.058 386.342C110.342 386.503 110.673 386.584 111.053 386.584C111.308 386.584 111.538 386.548 111.744 386.477C111.95 386.403 112.129 386.296 112.28 386.154C112.431 386.012 112.546 385.837 112.623 385.627L114.255 385.811C114.152 386.242 113.956 386.619 113.666 386.941C113.38 387.26 113.012 387.508 112.565 387.685C112.117 387.859 111.605 387.946 111.029 387.946ZM118.41 387.931C117.827 387.931 117.306 387.781 116.845 387.482C116.385 387.183 116.021 386.748 115.754 386.178C115.487 385.608 115.353 384.916 115.353 384.101C115.353 383.277 115.488 382.582 115.759 382.015C116.032 381.445 116.401 381.015 116.865 380.725C117.328 380.433 117.845 380.286 118.415 380.286C118.849 380.286 119.207 380.36 119.487 380.508C119.767 380.653 119.989 380.829 120.153 381.035C120.318 381.237 120.445 381.429 120.535 381.609H120.607V377.91H122.361V387.801H120.641V386.632H120.535C120.445 386.812 120.314 387.004 120.144 387.207C119.973 387.406 119.748 387.577 119.468 387.719C119.188 387.86 118.835 387.931 118.41 387.931ZM118.898 386.497C119.268 386.497 119.584 386.397 119.844 386.197C120.105 385.995 120.303 385.713 120.438 385.352C120.574 384.992 120.641 384.571 120.641 384.092C120.641 383.612 120.574 383.195 120.438 382.841C120.306 382.487 120.11 382.211 119.849 382.015C119.592 381.819 119.274 381.72 118.898 381.72C118.508 381.72 118.183 381.822 117.922 382.025C117.661 382.227 117.465 382.508 117.333 382.865C117.201 383.222 117.135 383.631 117.135 384.092C117.135 384.555 117.201 384.969 117.333 385.333C117.468 385.693 117.666 385.978 117.927 386.188C118.191 386.394 118.515 386.497 118.898 386.497ZM132.75 380.629C132.705 380.207 132.515 379.879 132.18 379.644C131.849 379.409 131.417 379.291 130.886 379.291C130.513 379.291 130.192 379.347 129.925 379.46C129.658 379.573 129.453 379.726 129.312 379.919C129.17 380.112 129.098 380.333 129.094 380.581C129.094 380.787 129.141 380.965 129.234 381.117C129.331 381.268 129.461 381.397 129.626 381.503C129.79 381.606 129.972 381.693 130.171 381.764C130.371 381.835 130.572 381.894 130.775 381.943L131.702 382.174C132.076 382.261 132.435 382.379 132.779 382.527C133.127 382.675 133.438 382.862 133.711 383.087C133.988 383.313 134.207 383.585 134.368 383.903C134.529 384.222 134.61 384.596 134.61 385.024C134.61 385.603 134.462 386.114 134.165 386.555C133.869 386.993 133.441 387.336 132.881 387.583C132.324 387.828 131.649 387.95 130.857 387.95C130.088 387.95 129.42 387.831 128.853 387.593C128.289 387.355 127.848 387.007 127.53 386.55C127.214 386.093 127.043 385.536 127.018 384.879H128.78C128.806 385.223 128.912 385.51 129.099 385.739C129.286 385.967 129.529 386.138 129.828 386.25C130.131 386.363 130.469 386.42 130.843 386.42C131.232 386.42 131.574 386.362 131.867 386.246C132.163 386.127 132.395 385.962 132.562 385.753C132.729 385.541 132.815 385.293 132.818 385.009C132.815 384.752 132.739 384.539 132.591 384.372C132.443 384.201 132.235 384.059 131.968 383.947C131.704 383.831 131.395 383.728 131.041 383.638L129.915 383.348C129.101 383.139 128.457 382.822 127.984 382.397C127.514 381.968 127.278 381.4 127.278 380.692C127.278 380.109 127.436 379.599 127.752 379.161C128.071 378.723 128.504 378.383 129.051 378.142C129.598 377.897 130.218 377.775 130.91 377.775C131.612 377.775 132.227 377.897 132.755 378.142C133.286 378.383 133.703 378.72 134.006 379.151C134.309 379.579 134.465 380.072 134.475 380.629H132.75ZM137.729 377.91V387.801H135.98V377.91H137.729ZM139.377 387.801V380.383H141.125V387.801H139.377ZM140.256 379.33C139.979 379.33 139.741 379.238 139.541 379.054C139.341 378.868 139.241 378.644 139.241 378.383C139.241 378.119 139.341 377.895 139.541 377.712C139.741 377.525 139.979 377.432 140.256 377.432C140.536 377.432 140.774 377.525 140.97 377.712C141.17 377.895 141.27 378.119 141.27 378.383C141.27 378.644 141.17 378.868 140.97 379.054C140.774 379.238 140.536 379.33 140.256 379.33ZM146.009 387.946C145.268 387.946 144.633 387.783 144.101 387.458C143.573 387.133 143.166 386.684 142.879 386.11C142.596 385.534 142.454 384.871 142.454 384.121C142.454 383.367 142.599 382.702 142.889 382.126C143.179 381.547 143.588 381.096 144.116 380.774C144.647 380.449 145.275 380.286 145.999 380.286C146.601 380.286 147.134 380.397 147.598 380.619C148.065 380.838 148.437 381.149 148.714 381.551C148.99 381.951 149.148 382.417 149.187 382.952H147.516C147.448 382.595 147.287 382.297 147.033 382.058C146.782 381.817 146.445 381.696 146.024 381.696C145.666 381.696 145.352 381.793 145.082 381.986C144.811 382.176 144.6 382.45 144.449 382.807C144.301 383.164 144.227 383.593 144.227 384.092C144.227 384.597 144.301 385.032 144.449 385.396C144.597 385.756 144.805 386.035 145.072 386.231C145.343 386.424 145.66 386.521 146.024 386.521C146.281 386.521 146.511 386.473 146.714 386.376C146.92 386.276 147.092 386.133 147.231 385.946C147.369 385.759 147.464 385.533 147.516 385.265H149.187C149.145 385.79 148.99 386.255 148.723 386.661C148.456 387.063 148.092 387.379 147.632 387.608C147.171 387.833 146.63 387.946 146.009 387.946ZM153.757 387.946C153.013 387.946 152.371 387.791 151.83 387.482C151.292 387.17 150.879 386.729 150.589 386.159C150.299 385.586 150.154 384.911 150.154 384.135C150.154 383.372 150.299 382.702 150.589 382.126C150.882 381.547 151.291 381.096 151.815 380.774C152.34 380.449 152.957 380.286 153.665 380.286C154.122 380.286 154.554 380.36 154.959 380.508C155.368 380.653 155.729 380.878 156.041 381.184C156.357 381.49 156.605 381.88 156.785 382.353C156.965 382.823 157.056 383.383 157.056 384.034V384.57H150.975V383.391H155.38C155.376 383.057 155.304 382.759 155.162 382.498C155.021 382.234 154.823 382.026 154.568 381.875C154.317 381.724 154.024 381.648 153.689 381.648C153.332 381.648 153.018 381.735 152.748 381.909C152.477 382.079 152.266 382.305 152.115 382.585C151.967 382.862 151.891 383.166 151.888 383.498V384.526C151.888 384.958 151.967 385.328 152.125 385.637C152.282 385.943 152.503 386.178 152.786 386.342C153.07 386.503 153.401 386.584 153.781 386.584C154.035 386.584 154.266 386.548 154.472 386.477C154.678 386.403 154.856 386.296 155.008 386.154C155.159 386.012 155.273 385.837 155.351 385.627L156.983 385.811C156.88 386.242 156.684 386.619 156.394 386.941C156.107 387.26 155.74 387.508 155.293 387.685C154.845 387.859 154.333 387.946 153.757 387.946ZM161.138 387.931C160.555 387.931 160.033 387.781 159.573 387.482C159.113 387.183 158.749 386.748 158.482 386.178C158.214 385.608 158.081 384.916 158.081 384.101C158.081 383.277 158.216 382.582 158.486 382.015C158.76 381.445 159.129 381.015 159.592 380.725C160.056 380.433 160.573 380.286 161.143 380.286C161.577 380.286 161.935 380.36 162.215 380.508C162.495 380.653 162.717 380.829 162.881 381.035C163.045 381.237 163.173 381.429 163.263 381.609H163.335V377.91H165.088V387.801H163.369V386.632H163.263C163.173 386.812 163.042 387.004 162.872 387.207C162.701 387.406 162.476 387.577 162.195 387.719C161.915 387.86 161.563 387.931 161.138 387.931ZM161.626 386.497C161.996 386.497 162.311 386.397 162.572 386.197C162.833 385.995 163.031 385.713 163.166 385.352C163.301 384.992 163.369 384.571 163.369 384.092C163.369 383.612 163.301 383.195 163.166 382.841C163.034 382.487 162.838 382.211 162.577 382.015C162.319 381.819 162.002 381.72 161.626 381.72C161.236 381.72 160.911 381.822 160.65 382.025C160.389 382.227 160.193 382.508 160.061 382.865C159.929 383.222 159.863 383.631 159.863 384.092C159.863 384.555 159.929 384.969 160.061 385.333C160.196 385.693 160.394 385.978 160.655 386.188C160.919 386.394 161.242 386.497 161.626 386.497ZM173.73 380.383V381.735H169.465V380.383H173.73ZM170.518 378.605H172.267V385.57C172.267 385.805 172.302 385.985 172.373 386.11C172.447 386.233 172.543 386.317 172.663 386.362C172.782 386.407 172.914 386.429 173.059 386.429C173.168 386.429 173.268 386.421 173.358 386.405C173.451 386.389 173.522 386.374 173.57 386.362L173.865 387.728C173.772 387.761 173.638 387.796 173.464 387.835C173.294 387.873 173.084 387.896 172.836 387.902C172.399 387.915 172.004 387.849 171.653 387.704C171.302 387.556 171.024 387.327 170.818 387.018C170.615 386.709 170.515 386.323 170.518 385.859V378.605ZM178.199 387.946C177.474 387.946 176.846 387.786 176.315 387.468C175.784 387.149 175.372 386.703 175.079 386.13C174.789 385.557 174.644 384.887 174.644 384.121C174.644 383.354 174.789 382.683 175.079 382.107C175.372 381.53 175.784 381.083 176.315 380.764C176.846 380.445 177.474 380.286 178.199 380.286C178.923 380.286 179.551 380.445 180.082 380.764C180.613 381.083 181.024 381.53 181.314 382.107C181.607 382.683 181.753 383.354 181.753 384.121C181.753 384.887 181.607 385.557 181.314 386.13C181.024 386.703 180.613 387.149 180.082 387.468C179.551 387.786 178.923 387.946 178.199 387.946ZM178.208 386.545C178.601 386.545 178.929 386.437 179.193 386.222C179.457 386.003 179.654 385.71 179.783 385.343C179.915 384.975 179.981 384.567 179.981 384.116C179.981 383.662 179.915 383.251 179.783 382.884C179.654 382.514 179.457 382.219 179.193 382C178.929 381.782 178.601 381.672 178.208 381.672C177.806 381.672 177.471 381.782 177.204 382C176.94 382.219 176.742 382.514 176.61 382.884C176.481 383.251 176.416 383.662 176.416 384.116C176.416 384.567 176.481 384.975 176.61 385.343C176.742 385.71 176.94 386.003 177.204 386.222C177.471 386.437 177.806 386.545 178.208 386.545ZM184.681 385.473L184.676 383.362H184.956L187.622 380.383H189.665L186.386 384.034H186.024L184.681 385.473ZM183.087 387.801V377.91H184.836V387.801H183.087ZM187.743 387.801L185.328 384.425L186.507 383.193L189.834 387.801H187.743ZM193.659 387.946C192.916 387.946 192.273 387.791 191.732 387.482C191.195 387.17 190.781 386.729 190.491 386.159C190.201 385.586 190.056 384.911 190.056 384.135C190.056 383.372 190.201 382.702 190.491 382.126C190.784 381.547 191.193 381.096 191.718 380.774C192.243 380.449 192.859 380.286 193.568 380.286C194.025 380.286 194.456 380.36 194.862 380.508C195.271 380.653 195.631 380.878 195.944 381.184C196.259 381.49 196.507 381.88 196.687 382.353C196.868 382.823 196.958 383.383 196.958 384.034V384.57H190.878V383.391H195.282C195.279 383.057 195.206 382.759 195.065 382.498C194.923 382.234 194.725 382.026 194.471 381.875C194.22 381.724 193.927 381.648 193.592 381.648C193.234 381.648 192.92 381.735 192.65 381.909C192.38 382.079 192.169 382.305 192.017 382.585C191.869 382.862 191.794 383.166 191.79 383.498V384.526C191.79 384.958 191.869 385.328 192.027 385.637C192.185 385.943 192.405 386.178 192.689 386.342C192.972 386.503 193.304 386.584 193.683 386.584C193.938 386.584 194.168 386.548 194.374 386.477C194.58 386.403 194.759 386.296 194.91 386.154C195.062 386.012 195.176 385.837 195.253 385.627L196.885 385.811C196.782 386.242 196.586 386.619 196.296 386.941C196.01 387.26 195.643 387.508 195.195 387.685C194.748 387.859 194.236 387.946 193.659 387.946ZM200.036 383.454V387.801H198.287V380.383H199.958V381.643H200.045C200.216 381.228 200.488 380.898 200.862 380.653C201.238 380.408 201.703 380.286 202.257 380.286C202.769 380.286 203.215 380.395 203.595 380.614C203.978 380.833 204.274 381.15 204.484 381.566C204.696 381.981 204.801 382.485 204.798 383.077V387.801H203.049V383.348C203.049 382.852 202.921 382.464 202.663 382.184C202.409 381.904 202.056 381.764 201.605 381.764C201.299 381.764 201.027 381.831 200.789 381.967C200.554 382.099 200.369 382.29 200.234 382.541C200.102 382.793 200.036 383.097 200.036 383.454Z" fill="#F3F3F3"/>
</g>
<path d="M263.517 161.882C263.673 162.039 263.927 162.039 264.083 161.882L266.628 159.337C266.785 159.181 266.785 158.927 266.628 158.771C266.472 158.615 266.219 158.615 266.063 158.771L263.8 161.034L261.537 158.771C261.381 158.615 261.128 158.615 260.972 158.771C260.815 158.927 260.815 159.181 260.972 159.337L263.517 161.882ZM263.4 81.5996L263.4 161.6L264.2 161.6L264.2 81.5996L263.4 81.5996Z" fill="#3169FA"/>
<path d="M131.8 264.4L132.2 264.4L131.8 264.4ZM131.518 307.483C131.674 307.639 131.927 307.639 132.083 307.483L134.629 304.937C134.785 304.781 134.785 304.528 134.629 304.371C134.473 304.215 134.219 304.215 134.063 304.371L131.8 306.634L129.538 304.371C129.381 304.215 129.128 304.215 128.972 304.371C128.816 304.528 128.816 304.781 128.972 304.937L131.518 307.483ZM263.8 242L264.2 242L263.8 242ZM252.6 253.2L252.6 253.6L252.6 253.2ZM143 253.2L143 252.8L143 253.2ZM131.4 264.4L131.4 307.2L132.2 307.2L132.2 264.4L131.4 264.4ZM263.4 213.6L263.4 242L264.2 242L264.2 213.6L263.4 213.6ZM252.6 252.8L143 252.8L143 253.6L252.6 253.6L252.6 252.8ZM263.4 242C263.4 247.965 258.565 252.8 252.6 252.8L252.6 253.6C259.006 253.6 264.2 248.406 264.2 242L263.4 242ZM132.2 264.4C132.2 258.435 137.036 253.6 143 253.6L143 252.8C136.594 252.8 131.4 257.993 131.4 264.4L132.2 264.4Z" fill="#3169FA"/>
<path d="M396.085 264.4L395.685 264.4L396.085 264.4ZM396.368 307.483C396.211 307.639 395.958 307.639 395.802 307.483L393.256 304.937C393.1 304.781 393.1 304.528 393.256 304.371C393.412 304.215 393.666 304.215 393.822 304.371L396.085 306.634L398.347 304.371C398.504 304.215 398.757 304.215 398.913 304.371C399.069 304.528 399.069 304.781 398.913 304.937L396.368 307.483ZM264.085 242L263.685 242L264.085 242ZM275.285 253.2L275.285 253.6L275.285 253.2ZM384.885 253.2L384.885 252.8L384.885 253.2ZM396.485 264.4L396.485 307.2L395.685 307.2L395.685 264.4L396.485 264.4ZM264.485 213.6L264.485 242L263.685 242L263.685 213.6L264.485 213.6ZM275.285 252.8L384.885 252.8L384.885 253.6L275.285 253.6L275.285 252.8ZM264.485 242C264.485 247.965 269.32 252.8 275.285 252.8L275.285 253.6C268.879 253.6 263.685 248.406 263.685 242L264.485 242ZM395.685 264.4C395.685 258.435 390.849 253.6 384.885 253.6L384.885 252.8C391.291 252.8 396.485 257.993 396.485 264.4L395.685 264.4Z" fill="#3169FA"/>
<circle cx="263.8" cy="81.5996" r="4" fill="#3169FA"/>
<circle cx="263.8" cy="213.6" r="4" fill="#3169FA"/>
</g>
<defs>
<filter id="filter0_b_190_1579" x="-39.4" y="-40" width="614.4" height="516.8" filterUnits="userSpaceOnUse" color-interpolation-filters="sRGB">
<feFlood flood-opacity="0" result="BackgroundImageFix"/>
<feGaussianBlur in="BackgroundImageFix" stdDeviation="20"/>
<feComposite in2="SourceAlpha" operator="in" result="effect1_backgroundBlur_190_1579"/>
<feBlend mode="normal" in="SourceGraphic" in2="effect1_backgroundBlur_190_1579" result="shape"/>
</filter>
<filter id="filter1_d_190_1579" x="191.8" y="164.8" width="144.938" height="50.4004" filterUnits="userSpaceOnUse" color-interpolation-filters="sRGB">
<feFlood flood-opacity="0" result="BackgroundImageFix"/>
<feColorMatrix in="SourceAlpha" type="matrix" values="0 0 0 0 0 0 0 0 0 0 0 0 0 0 0 0 0 0 127 0" result="hardAlpha"/>
<feOffset dy="4"/>
<feGaussianBlur stdDeviation="2"/>
<feComposite in2="hardAlpha" operator="out"/>
<feColorMatrix type="matrix" values="0 0 0 0 0 0 0 0 0 0 0 0 0 0 0 0 0 0 0.15 0"/>
<feBlend mode="normal" in2="BackgroundImageFix" result="effect1_dropShadow_190_1579"/>
<feBlend mode="normal" in="SourceGraphic" in2="effect1_dropShadow_190_1579" result="shape"/>
</filter>
<filter id="filter2_d_190_1579" x="311.8" y="311.2" width="189" height="100.801" filterUnits="userSpaceOnUse" color-interpolation-filters="sRGB">
<feFlood flood-opacity="0" result="BackgroundImageFix"/>
<feColorMatrix in="SourceAlpha" type="matrix" values="0 0 0 0 0 0 0 0 0 0 0 0 0 0 0 0 0 0 127 0" result="hardAlpha"/>
<feOffset dy="4"/>
<feGaussianBlur stdDeviation="2"/>
<feComposite in2="hardAlpha" operator="out"/>
<feColorMatrix type="matrix" values="0 0 0 0 0 0 0 0 0 0 0 0 0 0 0 0 0 0 0.15 0"/>
<feBlend mode="normal" in2="BackgroundImageFix" result="effect1_dropShadow_190_1579"/>
<feBlend mode="normal" in="SourceGraphic" in2="effect1_dropShadow_190_1579" result="shape"/>
</filter>
<filter id="filter3_d_190_1579" x="203.8" y="33.5996" width="120.4" height="50.4004" filterUnits="userSpaceOnUse" color-interpolation-filters="sRGB">
<feFlood flood-opacity="0" result="BackgroundImageFix"/>
<feColorMatrix in="SourceAlpha" type="matrix" values="0 0 0 0 0 0 0 0 0 0 0 0 0 0 0 0 0 0 127 0" result="hardAlpha"/>
<feOffset dy="4"/>
<feGaussianBlur stdDeviation="2"/>
<feComposite in2="hardAlpha" operator="out"/>
<feColorMatrix type="matrix" values="0 0 0 0 0 0 0 0 0 0 0 0 0 0 0 0 0 0 0.15 0"/>
<feBlend mode="normal" in2="BackgroundImageFix" result="effect1_dropShadow_190_1579"/>
<feBlend mode="normal" in="SourceGraphic" in2="effect1_dropShadow_190_1579" result="shape"/>
</filter>
<filter id="filter4_d_190_1579" x="29.3999" y="311.2" width="200" height="100.801" filterUnits="userSpaceOnUse" color-interpolation-filters="sRGB">
<feFlood flood-opacity="0" result="BackgroundImageFix"/>
<feColorMatrix in="SourceAlpha" type="matrix" values="0 0 0 0 0 0 0 0 0 0 0 0 0 0 0 0 0 0 127 0" result="hardAlpha"/>
<feOffset dy="4"/>
<feGaussianBlur stdDeviation="2"/>
<feComposite in2="hardAlpha" operator="out"/>
<feColorMatrix type="matrix" values="0 0 0 0 0 0 0 0 0 0 0 0 0 0 0 0 0 0 0.15 0"/>
<feBlend mode="normal" in2="BackgroundImageFix" result="effect1_dropShadow_190_1579"/>
<feBlend mode="normal" in="SourceGraphic" in2="effect1_dropShadow_190_1579" result="shape"/>
</filter>
<linearGradient id="paint0_linear_190_1579" x1="267.8" y1="0" x2="267.8" y2="436.8" gradientUnits="userSpaceOnUse">
<stop stop-color="white" stop-opacity="0"/>
<stop offset="1" stop-color="white"/>
</linearGradient>
<clipPath id="clip0_190_1579">
<rect width="19.2" height="19.2" fill="white" transform="translate(52.5999 372.801)"/>
</clipPath>
</defs>
</svg>
