<svg width="153" height="34" viewBox="0 0 153 34" fill="none" xmlns="http://www.w3.org/2000/svg">
<path fill-rule="evenodd" clip-rule="evenodd" d="M17 0C19.5536 0 21.9756 0.563019 24.1489 1.57169L19.9966 4.94074C19.0369 4.70305 18.0332 4.57692 17 4.57692C10.1389 4.57692 4.57692 10.1389 4.57692 17C4.57692 20.9354 6.40685 24.4435 9.26223 26.7196L6.6237 30.467C2.59502 27.3583 0 22.4822 0 17C0 7.61116 7.61116 0 17 0ZM14.1402 29.0923L9.95483 32.476C12.1013 33.4547 14.487 34 17 34C26.3888 34 34 26.3888 34 17C34 11.5262 31.413 6.65666 27.3949 3.54734L24.7656 7.30262C27.605 9.57936 29.4231 13.0774 29.4231 17C29.4231 23.8611 23.8611 29.4231 17 29.4231C16.0158 29.4231 15.0584 29.3086 14.1402 29.0923Z" fill="#3169FA"/>
<path fill-rule="evenodd" clip-rule="evenodd" d="M27.5694 1.31236C27.7078 1.11472 27.4529 0.877095 27.2656 1.0291L7.16927 17.3349C7.03759 17.4417 7.08386 17.6539 7.24862 17.6988L15.4949 19.9435C15.6354 19.9818 15.6961 20.1478 15.6129 20.266L6.25138 33.5617C6.11242 33.7591 6.36693 33.9974 6.55462 33.8456L26.6767 17.578C26.8087 17.4713 26.7625 17.2588 26.5976 17.2139L18.3513 14.9692C18.2111 14.931 18.1503 14.7654 18.2331 14.6471L27.5694 1.31236Z" fill="black"/>
<path d="M39.0928 26.6963C38.8079 26.6963 38.5769 26.4654 38.5769 26.1804V8.45165C38.5769 8.16671 38.8079 7.93573 39.0928 7.93573H45.7587C47.1145 7.93573 48.2412 8.14948 49.1389 8.57696C50.0428 8.99834 50.7176 9.57545 51.1634 10.3083C51.6153 11.0411 51.8413 11.8717 51.8413 12.7999C51.8413 13.5633 51.6947 14.2167 51.4016 14.7603C51.1084 15.2977 50.7145 15.7343 50.2199 16.0702C49.7471 16.3912 49.2214 16.6258 48.6426 16.7739C48.5953 16.786 48.5618 16.8283 48.5618 16.8771C48.5618 16.9332 48.6057 16.9794 48.6615 16.9839C49.2913 17.0346 49.8962 17.237 50.4763 17.5908C51.0931 17.9573 51.597 18.4764 51.9878 19.1481C52.3787 19.8199 52.5741 20.6321 52.5741 21.5848C52.5741 22.5558 52.339 23.4291 51.8687 24.2047C51.3985 24.9742 50.6901 25.5818 49.7435 26.0276C48.7969 26.4734 47.6061 26.6963 46.1709 26.6963H39.0928ZM41.9754 23.3407C41.9754 23.6256 42.2064 23.8566 42.4914 23.8566H45.6305C46.8641 23.8566 47.7526 23.6215 48.2962 23.1512C48.8458 22.6749 49.1206 22.0642 49.1206 21.3192C49.1206 20.7634 48.9832 20.2626 48.7084 19.8168C48.4336 19.3649 48.0427 19.0107 47.5358 18.7542C47.029 18.4916 46.4244 18.3603 45.7221 18.3603H42.4914C42.2064 18.3603 41.9754 18.5913 41.9754 18.8762V23.3407ZM41.9754 15.3986C41.9754 15.6835 42.2064 15.9145 42.4914 15.9145H45.3373C45.9236 15.9145 46.4519 15.8076 46.9221 15.5939C47.3923 15.374 47.7618 15.0656 48.0305 14.6687C48.3053 14.2656 48.4427 13.7893 48.4427 13.2396C48.4427 12.5129 48.1862 11.9144 47.6732 11.4442C47.1664 10.9739 46.4122 10.7388 45.4106 10.7388H42.4914C42.2064 10.7388 41.9754 10.9698 41.9754 11.2547V15.3986Z" fill="black"/>
<path d="M55.9 26.6963C55.615 26.6963 55.3841 26.4654 55.3841 26.1804V13.1418C55.3841 12.8569 55.615 12.6259 55.9 12.6259H58.1842C58.4692 12.6259 58.7001 12.8569 58.7001 13.1418V26.1804C58.7001 26.4654 58.4692 26.6963 58.1842 26.6963H55.9ZM57.0513 10.6289C56.5261 10.6289 56.0741 10.4549 55.6955 10.1068C55.3169 9.75255 55.1276 9.32812 55.1276 8.83346C55.1276 8.33268 55.3169 7.90825 55.6955 7.56015C56.0741 7.20595 56.5261 7.02885 57.0513 7.02885C57.5826 7.02885 58.0345 7.20595 58.407 7.56015C58.7856 7.90825 58.975 8.33268 58.975 8.83346C58.975 9.32812 58.7856 9.75255 58.407 10.1068C58.0345 10.4549 57.5826 10.6289 57.0513 10.6289Z" fill="black"/>
<path d="M68.6203 12.6259C68.9052 12.6259 69.1362 12.8569 69.1362 13.1418V14.6749C69.1362 14.9598 68.9052 15.1908 68.6203 15.1908H61.5634C61.2785 15.1908 61.0475 14.9598 61.0475 14.6749V13.1418C61.0475 12.8569 61.2785 12.6259 61.5634 12.6259H68.6203ZM63.0445 9.77075C63.0445 9.48582 63.2755 9.25484 63.5604 9.25484H65.8447C66.1296 9.25484 66.3606 9.48582 66.3606 9.77075V22.4642C66.3606 22.91 66.4277 23.252 66.5621 23.4902C66.7026 23.7222 66.8858 23.881 67.1117 23.9665C67.3377 24.052 67.5881 24.0948 67.8629 24.0948C68.0705 24.0948 68.2598 24.0795 68.4308 24.049C68.6516 24.0109 68.8734 24.1498 68.9206 24.3688L69.2963 26.1117C69.3513 26.3669 69.2064 26.6218 68.9531 26.6851C68.8557 26.7095 68.7488 26.7346 68.6324 26.7605C68.3087 26.8337 67.9117 26.8765 67.4415 26.8887C66.611 26.9131 65.8629 26.7879 65.1972 26.5131C64.5315 26.2322 64.0033 25.7986 63.6124 25.2123C63.2277 24.6261 63.0384 23.8932 63.0445 23.0138V9.77075Z" fill="black"/>
<path d="M82.6966 15.8034C82.7838 16.0912 82.5733 16.3729 82.2743 16.4055L80.2406 16.6274C79.9898 16.6547 79.7611 16.4932 79.6483 16.2675C79.5701 16.1108 79.473 15.9596 79.357 15.8137C79.1493 15.545 78.8684 15.3282 78.5142 15.1633C78.16 14.9984 77.7264 14.916 77.2134 14.916C76.5233 14.916 75.9432 15.0656 75.4729 15.3649C75.0088 15.6641 74.7798 16.0519 74.7859 16.5282C74.7798 16.9374 74.9294 17.2702 75.2348 17.5267C75.5462 17.7832 76.0592 17.9939 76.7737 18.1588L79.1737 18.6718C80.5051 18.9588 81.4944 19.4138 82.1417 20.0367C82.7952 20.6596 83.125 21.4749 83.1311 22.4825C83.125 23.368 82.8654 24.1497 82.3524 24.8276C81.8455 25.4994 81.1402 26.0246 80.2364 26.4032C79.3325 26.7818 78.2943 26.9712 77.1218 26.9712C75.3996 26.9712 74.0134 26.6108 72.963 25.8902C72.062 25.2669 71.4733 24.4346 71.1968 23.3934C71.1207 23.1066 71.3341 22.8341 71.6295 22.8057L73.8683 22.59C74.126 22.5652 74.3564 22.7382 74.4532 22.9783C74.6248 23.4036 74.8914 23.7391 75.2531 23.9848C75.7294 24.3085 76.3493 24.4703 77.1126 24.4703C77.9004 24.4703 78.5325 24.3085 79.0089 23.9848C79.4913 23.6612 79.7325 23.2612 79.7325 22.7848C79.7325 22.3818 79.5768 22.0489 79.2654 21.7863C78.96 21.5237 78.4837 21.3222 77.8363 21.1817L75.4363 20.6779C74.0866 20.397 73.0882 19.9237 72.4408 19.2581C71.7935 18.5863 71.4729 17.7374 71.479 16.7114C71.4729 15.8443 71.708 15.0931 72.1843 14.458C72.6668 13.8167 73.3355 13.3221 74.1905 12.974C75.0515 12.6198 76.0439 12.4427 77.1676 12.4427C78.8165 12.4427 80.1142 12.7938 81.0608 13.4961C81.865 14.089 82.4103 14.8581 82.6966 15.8034Z" fill="black"/>
<path d="M88.6656 7.93573C88.9506 7.93573 89.1815 8.16672 89.1815 8.45165V26.1804C89.1815 26.4654 88.9506 26.6963 88.6656 26.6963H86.3814C86.0964 26.6963 85.8655 26.4654 85.8655 26.1804V8.45165C85.8655 8.16671 86.0964 7.93573 86.3814 7.93573H88.6656Z" fill="black"/>
<path d="M93.1074 26.6963C92.8225 26.6963 92.5915 26.4654 92.5915 26.1804V13.1418C92.5915 12.8569 92.8225 12.6259 93.1074 12.6259H95.3917C95.6766 12.6259 95.9076 12.8569 95.9076 13.1418V26.1804C95.9076 26.4654 95.6766 26.6963 95.3917 26.6963H93.1074ZM94.2587 10.6289C93.7335 10.6289 93.2816 10.4549 92.903 10.1068C92.5243 9.75255 92.335 9.32812 92.335 8.83346C92.335 8.33268 92.5243 7.90825 92.903 7.56015C93.2816 7.20595 93.7335 7.02885 94.2587 7.02885C94.79 7.02885 95.2419 7.20595 95.6145 7.56015C95.9931 7.90825 96.1824 8.33268 96.1824 8.83346C96.1824 9.32812 95.9931 9.75255 95.6145 10.1068C95.2419 10.4549 94.79 10.6289 94.2587 10.6289Z" fill="black"/>
<path d="M105.455 26.9712C104.05 26.9712 102.844 26.6628 101.837 26.0459C100.835 25.4291 100.063 24.5772 99.5191 23.4902C98.9817 22.397 98.713 21.139 98.713 19.7161C98.713 18.287 98.9878 17.026 99.5374 15.9328C100.087 14.8336 100.863 13.9786 101.864 13.3679C102.872 12.7511 104.063 12.4427 105.437 12.4427C106.579 12.4427 107.589 12.6534 108.469 13.0747C109.354 13.49 110.06 14.0793 110.585 14.8427C111.013 15.4596 111.291 16.1615 111.419 16.9486C111.467 17.2443 111.228 17.4992 110.928 17.4992H108.741C108.493 17.4992 108.284 17.3211 108.208 17.0851C108.048 16.5879 107.778 16.1611 107.397 15.8046C106.921 15.3465 106.283 15.1175 105.483 15.1175C104.805 15.1175 104.209 15.3007 103.696 15.6672C103.183 16.0275 102.783 16.5466 102.496 17.2244C102.215 17.9023 102.075 18.7145 102.075 19.6611C102.075 20.6199 102.215 21.4443 102.496 22.1344C102.777 22.8184 103.171 23.3467 103.678 23.7192C104.191 24.0856 104.792 24.2688 105.483 24.2688C105.971 24.2688 106.408 24.1772 106.793 23.994C107.183 23.8047 107.51 23.5329 107.773 23.1787C107.961 22.925 108.107 22.6322 108.21 22.3002C108.284 22.0641 108.492 21.8871 108.739 21.8871H110.924C111.225 21.8871 111.464 22.1445 111.414 22.4415C111.284 23.2133 111.014 23.911 110.603 24.5345C110.096 25.2978 109.406 25.8963 108.533 26.3299C107.66 26.7574 106.634 26.9712 105.455 26.9712Z" fill="black"/>
<path d="M120.435 26.9712C119.024 26.9712 117.806 26.678 116.78 26.0918C115.76 25.4994 114.975 24.6627 114.425 23.5818C113.876 22.4947 113.601 21.2153 113.601 19.7436C113.601 18.2962 113.876 17.026 114.425 15.9328C114.981 14.8336 115.757 13.9786 116.752 13.3679C117.748 12.7511 118.917 12.4427 120.261 12.4427C121.128 12.4427 121.946 12.5831 122.716 12.8641C123.491 13.1389 124.175 13.5664 124.768 14.1465C125.366 14.7267 125.836 15.4656 126.178 16.3633C126.52 17.255 126.691 18.3176 126.691 19.5512V20.0521C126.691 20.337 126.46 20.568 126.175 20.568H115.674C115.389 20.568 115.158 20.337 115.158 20.0521V18.8488C115.158 18.5638 115.389 18.3328 115.674 18.3328H122.992C123.279 18.3328 123.514 18.0979 123.476 17.8135C123.419 17.3855 123.294 16.9937 123.1 16.6382C122.832 16.1374 122.456 15.7435 121.974 15.4565C121.497 15.1694 120.942 15.0259 120.306 15.0259C119.629 15.0259 119.033 15.1908 118.52 15.5206C118.007 15.8443 117.607 16.2717 117.32 16.8031C117.039 17.3282 116.896 17.9054 116.89 18.5344V20.4856C116.89 21.3039 117.039 22.0062 117.338 22.5925C117.638 23.1726 118.056 23.6184 118.593 23.9299C119.131 24.2352 119.76 24.3879 120.481 24.3879C120.963 24.3879 121.4 24.3207 121.79 24.1864C122.181 24.0459 122.52 23.8413 122.807 23.5726C123.001 23.3916 123.162 23.1815 123.292 22.9423C123.405 22.7336 123.623 22.5928 123.859 22.6193L125.974 22.8571C126.282 22.8917 126.493 23.1895 126.387 23.4809C126.174 24.07 125.857 24.5983 125.436 25.0658C124.893 25.6704 124.197 26.1406 123.348 26.4765C122.499 26.8063 121.528 26.9712 120.435 26.9712Z" fill="black"/>
<path d="M134.718 26.9437C133.613 26.9437 132.623 26.6597 131.75 26.0918C130.877 25.5238 130.187 24.6994 129.68 23.6184C129.173 22.5375 128.92 21.2245 128.92 19.6794C128.92 18.116 129.176 16.7969 129.689 15.7221C130.208 14.6412 130.907 13.8259 131.787 13.2763C132.666 12.7205 133.646 12.4427 134.727 12.4427C135.552 12.4427 136.23 12.5831 136.761 12.8641C137.292 13.1389 137.714 13.4717 138.025 13.8625C138.322 14.2298 138.556 14.5776 138.725 14.9059C138.74 14.9345 138.769 14.9526 138.801 14.9526C138.848 14.9526 138.886 14.9146 138.886 14.8677V8.45165C138.886 8.16672 139.117 7.93573 139.402 7.93573H141.695C141.98 7.93573 142.211 8.16672 142.211 8.45165V26.1804C142.211 26.4654 141.98 26.6963 141.695 26.6963H139.466C139.181 26.6963 138.95 26.4654 138.95 26.1804V24.6041C138.95 24.5353 138.895 24.4795 138.826 24.4795C138.779 24.4795 138.736 24.5062 138.714 24.548C138.545 24.8699 138.309 25.2104 138.007 25.5696C137.683 25.9482 137.256 26.2719 136.724 26.5406C136.193 26.8093 135.524 26.9437 134.718 26.9437ZM135.643 24.223C136.346 24.223 136.944 24.0337 137.439 23.6551C137.933 23.2703 138.309 22.736 138.566 22.052C138.822 21.368 138.95 20.5711 138.95 19.6611C138.95 18.7512 138.822 17.9603 138.566 17.2886C138.315 16.6168 137.943 16.0946 137.448 15.7221C136.959 15.3496 136.358 15.1633 135.643 15.1633C134.904 15.1633 134.288 15.3557 133.793 15.7404C133.298 16.1252 132.926 16.6565 132.675 17.3344C132.425 18.0122 132.3 18.7878 132.3 19.6611C132.3 20.5405 132.425 21.3253 132.675 22.0153C132.932 22.6993 133.307 23.2398 133.802 23.6367C134.303 24.0276 134.917 24.223 135.643 24.223Z" fill="black"/>
<path d="M145.832 7.51923V3.32943H146.779V7.51923H145.832ZM144.5 4.09395V3.26923H148.112V4.09395H144.5Z" fill="black"/>
<path d="M148.64 7.51923V3.26923H149.316L150.992 5.87582H150.648L152.319 3.26923H153V7.51923H152.053V4.86449L152.222 4.90662L151.131 6.60422H150.504L149.418 4.90662L149.581 4.86449V7.51923H148.64Z" fill="black"/>
</svg>
