<svg width="110" height="24" viewBox="0 0 110 24" fill="none" xmlns="http://www.w3.org/2000/svg">
<path d="M103.019 3.25V0.0460339H103.743V3.25H103.019ZM102 0.630666V0H104.762V0.630666H102Z" fill="black" fill-opacity="0.9"/>
<path d="M105.166 3.25V0H105.683L106.965 1.99327H106.702L107.979 0H108.5V3.25H107.776V1.2199L107.905 1.25212L107.071 2.55028H106.591L105.761 1.25212L105.886 1.2199V3.25H105.166Z" fill="black" fill-opacity="0.9"/>
<path fill-rule="evenodd" clip-rule="evenodd" d="M48 19V0H44V20C44 22.2091 45.7909 24 48 24H52H56V8H52V20H49C48.4477 20 48 19.5523 48 19Z" fill="black" fill-opacity="0.9"/>
<path d="M54 1.59998C55.1046 1.59998 56 2.49541 56 3.59998C56 4.70455 55.1046 5.59998 54 5.59998C52.8954 5.59998 52 4.70455 52 3.59998C52 2.49541 52.8954 1.59998 54 1.59998Z" fill="black" fill-opacity="0.9"/>
<path d="M56.2 3.59998C56.2 2.38495 55.215 1.39998 54 1.39998C52.785 1.39998 51.8 2.38495 51.8 3.59998C51.8 4.815 52.785 5.79998 54 5.79998C55.215 5.79998 56.2 4.815 56.2 3.59998Z" stroke="black" stroke-opacity="0.9" stroke-width="0.4"/>
<path fill-rule="evenodd" clip-rule="evenodd" d="M42 0V4H33C31.3431 4 30 5.34315 30 7C30 8.65685 31.3431 10 33 10H34H35C38.866 10 42 13.134 42 17C42 20.866 38.866 24 35 24H20L24 20H35C36.6569 20 38 18.6569 38 17C38 15.3431 36.6569 14 35 14H34H33C29.134 14 26 10.866 26 7C26 3.13401 29.134 0 33 0H42Z" fill="black" fill-opacity="0.9"/>
<path fill-rule="evenodd" clip-rule="evenodd" d="M70 8H66C61.5817 8 58 11.5817 58 16C58 20.4183 61.5817 24 66 24H70H85L82 20H70H66C63.7909 20 62 18.2091 62 16C62 13.7909 63.7909 12 66 12H70H82L85 8H70ZM70 16C70 14.8954 70.8954 14 72 14H82V18H72C70.8954 18 70 17.1046 70 16Z" fill="black" fill-opacity="0.9"/>
<path fill-rule="evenodd" clip-rule="evenodd" d="M96 24H100V16V0H96V9.07026C94.8233 8.38958 93.4571 8 92 8C87.5817 8 84 11.5817 84 16C84 20.4183 87.5817 24 92 24C93.4571 24 94.8233 23.6104 96 22.9297V24ZM96 16C96 13.7909 94.2091 12 92 12C89.7909 12 88 13.7909 88 16C88 18.2091 89.7909 20 92 20C94.2091 20 96 18.2091 96 16Z" fill="black" fill-opacity="0.9"/>
<g clip-path="url(#clip0_5003_34612)">
<path fill-rule="evenodd" clip-rule="evenodd" d="M18.9952 0H0V10.8469L18.9952 0ZM0 12.2621V24H1.31549L9.74438 13.8309L0 12.2621ZM5.00461 24H24V13.1526L5.00461 24ZM24 11.7506L14.3886 10.2644L22.744 0H24V11.7506Z" fill="url(#paint0_linear_5003_34612)"/>
</g>
<defs>
<linearGradient id="paint0_linear_5003_34612" x1="0" y1="0" x2="24" y2="24" gradientUnits="userSpaceOnUse">
<stop stop-color="#9768FC"/>
<stop offset="1" stop-color="#42CAF5"/>
</linearGradient>
<clipPath id="clip0_5003_34612">
<rect width="24" height="24" rx="12" fill="white"/>
</clipPath>
</defs>
</svg>
