<svg width="32" height="32" viewBox="0 0 32 32" fill="none" xmlns="http://www.w3.org/2000/svg">
<path fill-rule="evenodd" clip-rule="evenodd" d="M16 0C18.4034 0 20.683 0.5299 22.7283 1.47924L18.8204 4.65011C17.9171 4.4264 16.9724 4.30769 16 4.30769C9.54252 4.30769 4.30769 9.54252 4.30769 16C4.30769 19.7039 6.02998 23.0056 8.7174 25.1479L6.23407 28.6748C2.44237 25.749 0 21.1597 0 16C0 7.16344 7.16345 0 16 0ZM13.3085 27.381L9.36926 30.5657C11.3894 31.4868 13.6348 32 16 32C24.8366 32 32 24.8366 32 16C32 10.8482 29.5652 6.2651 25.7834 3.33867L23.3088 6.87305C25.9812 9.01587 27.6923 12.3081 27.6923 16C27.6923 22.4575 22.4575 27.6923 16 27.6923C15.0737 27.6923 14.1726 27.5846 13.3085 27.381Z" fill="#3169FA"/>
<path fill-rule="evenodd" clip-rule="evenodd" d="M25.9477 1.23494C26.078 1.04892 25.8381 0.825275 25.6618 0.968336L6.74755 16.315C6.62362 16.4155 6.66716 16.6152 6.82223 16.6574L14.5834 18.7701C14.7156 18.8061 14.7728 18.9624 14.6945 19.0737L5.88366 31.5873C5.75287 31.773 5.99241 31.9973 6.16906 31.8545L25.1074 16.5438C25.2317 16.4434 25.1883 16.2434 25.033 16.2011L17.2719 14.0884C17.1399 14.0525 17.0826 13.8966 17.1605 13.7853L25.9477 1.23494Z" fill="black"/>
</svg>
